<svg width="40" height="38" viewBox="0 0 40 38" fill="none" xmlns="http://www.w3.org/2000/svg">
<path d="M18.9862 26.0701C19.169 25.2209 19.2091 24.3536 18.9755 23.4748C18.5676 21.9355 17.44 20.6809 16.2027 19.7217H16.2001C16.1672 19.4517 16.0685 19.1938 15.9125 18.9702C15.8617 18.7639 15.8107 18.5576 15.7596 18.3513C15.7594 18.3504 15.7594 18.3495 15.7596 18.3486C15.7636 18.079 15.7787 17.8102 15.7885 17.5392C15.8188 16.7395 15.6927 15.9478 15.2013 15.3086C15.4546 14.9549 15.558 14.5363 15.6178 14.1022C15.6766 13.6813 15.7636 12.9471 15.1862 12.8357C14.6467 12.7322 14.5174 13.5204 14.4282 13.8772C14.3394 14.2333 14.2749 14.595 14.2352 14.9598C14.0637 15.0156 13.9146 15.1239 13.8094 15.2692C13.7093 15.3915 13.6429 15.5374 13.6168 15.6927C13.6578 15.037 13.6987 14.3814 13.7394 13.726C13.7409 13.7021 13.7409 13.6782 13.7394 13.6544C13.8192 13.3891 13.9311 13.1239 14.0278 12.8839C14.2588 12.3043 14.4683 11.7168 14.4536 11.0847C14.4412 10.5706 13.7229 10.3473 13.4567 10.8168C13.0574 11.5191 12.7489 12.2686 12.5387 13.0474C12.4488 13.1006 12.3688 13.1688 12.3024 13.249C12.3024 13.2189 12.2984 13.1893 12.2966 13.1606C12.3005 13.1047 12.2984 13.0485 12.2903 12.9931V12.9891C12.2762 12.5955 12.304 12.2015 12.3733 11.8136C12.4624 11.3318 12.7175 10.8106 12.594 10.3173C12.5971 10.3075 12.6002 10.2978 12.6029 10.2876C12.7001 9.90791 12.4656 9.49945 12.1486 9.30141C12.119 9.28126 12.0853 9.26798 12.0498 9.26255C12.0144 9.25711 11.9782 9.25967 11.9439 9.27002C11.8947 9.27238 11.8467 9.28549 11.8032 9.30841C11.7597 9.33134 11.7219 9.36352 11.6924 9.40264C11.622 9.50077 11.5988 9.63516 11.5658 9.74921L11.494 9.99058C11.4504 10.0443 11.4189 10.1067 11.4017 10.1736C11.2675 10.6864 11.1822 11.2107 11.1472 11.7394C11.1006 11.7506 11.0557 11.7675 11.0134 11.7898C11.0228 11.4481 10.9853 11.109 10.8288 10.7934C10.7366 10.5991 10.5962 10.4312 10.4208 10.3054C10.2453 10.1795 10.0406 10.0998 9.82565 10.0737C9.68565 10.0569 9.55278 10.2094 9.55813 10.3389C9.57478 10.7471 9.59157 11.1548 9.60852 11.5621V12.3835C9.5646 12.4629 9.53916 12.5511 9.53406 12.6416C9.50641 13.1238 9.47862 13.606 9.45068 14.0885C9.44133 14.2051 9.47703 14.321 9.55055 14.4125C9.55055 14.4541 9.55546 14.4961 9.56036 14.5372C9.56259 14.5659 9.56527 14.5946 9.56839 14.6229C9.49097 14.7841 9.47869 14.9685 9.53406 15.1384C10.0147 16.6878 10.4561 18.2571 10.9822 19.7915C11.2497 20.5753 11.6742 21.2574 12.1062 21.9576L13.3715 24.0128C13.3975 24.055 13.4273 24.0949 13.4607 24.1317C13.7537 24.9289 13.9913 25.7451 14.1719 26.5745C14.2254 26.8309 14.2691 27.0886 14.3092 27.3472C14.3092 27.353 14.3092 27.3574 14.3114 27.3618C14.3136 27.3662 14.3114 27.3733 14.3114 27.3808C14.3185 27.4489 14.3275 27.517 14.3346 27.585C14.3489 27.7212 14.3603 27.8578 14.3689 27.9948C14.3725 28.0452 14.3747 28.0956 14.3774 28.146C14.3301 28.409 14.2722 28.6707 14.2044 28.9294C13.7866 30.5208 13.0559 32.0079 12.6207 33.5931C12.6005 33.6669 12.5919 33.7434 12.5953 33.8199C12.0558 34.834 11.4795 35.8274 10.8663 36.8002C10.5542 37.2962 10.9554 38.0292 11.5591 37.9973C13.6345 37.8885 15.696 37.5965 17.7191 37.1247C18.1079 37.0341 18.3433 36.6274 18.2938 36.2516C18.2825 36.1446 18.2475 36.0413 18.1913 35.9491C18.1351 35.857 18.0591 35.7782 17.9688 35.7185C17.9755 35.696 17.9809 35.6731 17.9848 35.65C18.416 33.1044 18.6972 30.5361 18.827 27.9581C18.8714 27.7821 18.9056 27.6036 18.9296 27.4237C18.9332 27.4126 18.9372 27.402 18.9407 27.3905C19.0164 27.1257 19.0387 26.8487 19.0063 26.5754C19.0236 26.4069 19.0168 26.2368 18.9862 26.0701Z" fill="#FFFAF0"/>
<path d="M31.2645 15.1911C31.2132 15.1027 31.1624 15.0143 31.1111 14.9236C31.0111 13.7887 30.7532 12.673 30.3447 11.6082C30.2274 11.3045 30.017 11.0835 29.6759 11.0379C29.3727 10.9977 29.0245 11.1365 28.8765 11.4181C28.81 11.5438 28.7516 11.6736 28.7017 11.8067C28.6803 11.7028 28.6571 11.5993 28.6379 11.4972C28.635 11.4537 28.6263 11.4108 28.6121 11.3695L28.5737 11.1834C28.5416 11.0251 28.5158 10.8638 28.4431 10.7232C28.4265 10.6856 28.4042 10.6507 28.3771 10.6197C28.3577 10.5947 28.3364 10.5712 28.3134 10.5494C27.9366 10.1958 27.3222 10.3828 27.118 10.8222C26.9196 11.2492 27.1318 11.7656 27.2339 12.1926C27.3299 12.5931 27.4257 12.9935 27.5211 13.3937C27.5331 13.4485 27.546 13.5029 27.5599 13.5572C27.5685 13.5904 27.58 13.6228 27.5942 13.654L27.6031 15.4731C27.5752 15.4939 27.5488 15.5167 27.5242 15.5412C27.4826 15.5822 27.4458 15.6277 27.4145 15.6769C27.4117 15.6316 27.4024 15.587 27.3869 15.5443C27.0223 14.5299 26.7428 13.4873 26.5513 12.4273C26.597 12.3618 26.6316 12.2894 26.6539 12.2129C26.8068 11.6922 26.4051 11.2735 25.9053 11.2187C25.5343 11.1781 25.3627 11.5569 25.3854 11.8526C25.3413 11.8987 25.307 11.9532 25.2846 12.0128C25.2623 12.0723 25.2523 12.1357 25.2552 12.1992C25.4461 13.9433 25.6372 15.6872 25.8286 17.431C25.8286 17.4752 25.8326 17.5159 25.8366 17.5579C25.5823 17.7025 25.3392 17.8658 25.1094 18.0464C25.1139 18.0212 25.1188 17.9964 25.1237 17.9716C25.1545 17.8207 25.1258 17.6637 25.0434 17.5331C25.0515 17.3891 25.0479 17.2447 25.0327 17.1012C25.0249 17.0291 25.0061 16.9586 24.977 16.8921L25.0002 16.5469C25.0024 16.4794 24.9904 16.4122 24.965 16.3496C24.9396 16.2869 24.9013 16.2302 24.8526 16.1831C24.7854 15.4201 24.7519 14.6552 24.7519 13.8883C24.7519 13.4715 24.3127 13.2836 23.9961 13.4091C23.7567 13.4591 23.5565 13.6744 23.565 13.9286C23.6093 15.2285 23.6539 16.5285 23.6987 17.8284C23.6916 18.2811 23.6768 18.7338 23.6542 19.1864C23.6499 19.257 23.6604 19.3278 23.6849 19.3942C23.3857 19.6561 23.1403 19.9728 22.9622 20.3269C22.7882 20.6772 22.6469 21.0426 22.54 21.4184C22.4486 21.7252 22.3581 22.0191 22.3425 22.3273C22.1514 22.8305 21.9909 23.3447 21.8618 23.867C21.6951 24.5592 21.6086 25.2886 21.6924 25.9986C21.4824 26.2908 21.4695 26.7726 21.7709 27.0211C21.8739 27.1059 21.9706 27.1979 22.0638 27.2894C22.2303 27.6443 22.452 27.971 22.721 28.2575C22.7357 28.2902 22.7558 28.3322 22.7593 28.3419C22.7629 28.3517 22.7629 28.3534 22.7651 28.3592C22.7323 28.4951 22.7279 28.6362 22.7522 28.7738C23.0595 30.6284 23.3666 32.4829 23.6733 34.3372C23.6769 34.3582 23.6818 34.3791 23.688 34.3995C23.5797 34.6749 23.6265 35.044 23.8615 35.2487C24.6364 35.925 25.751 35.9078 26.7234 36.0342L29.6817 36.4188C30.2845 36.4975 30.6849 35.685 30.3746 35.2217C29.4601 33.8558 28.8667 32.5954 28.4128 31.0836C28.1918 30.3347 28.0229 29.5717 27.9072 28.7999C27.9045 28.7783 27.9023 28.7623 27.9005 28.75C27.8951 28.7102 27.8902 28.6708 27.8853 28.631C27.8733 28.5294 27.8617 28.4277 27.8514 28.326C27.839 28.2014 27.8283 28.0767 27.8185 27.952C27.8122 27.7127 27.7994 27.474 27.7801 27.2359C27.7748 27.0644 27.773 26.8924 27.773 26.7209C27.8862 26.5308 27.9919 26.3359 28.1011 26.144C28.3517 25.7046 28.5974 25.263 28.8319 24.8152C29.3353 23.855 29.7918 22.8622 30.1249 21.8308C30.128 21.8215 30.1307 21.8118 30.1338 21.8021C30.2459 21.618 30.3378 21.4225 30.408 21.219C30.4142 21.2005 30.4187 21.1819 30.4232 21.1633C30.4575 21.0957 30.4909 21.0276 30.5226 20.9586C30.6026 20.8042 30.6686 20.6429 30.7196 20.4768C30.7511 20.3618 30.7561 20.2412 30.7343 20.1239C30.7124 20.0067 30.6643 19.8959 30.5935 19.7996C30.9103 18.7886 31.0967 17.7418 31.1481 16.6844C31.2116 16.6045 31.256 16.5114 31.2779 16.4121C31.3225 16.2132 31.3435 16.0097 31.3403 15.806C31.3702 15.7037 31.379 15.5965 31.3659 15.4908C31.3529 15.3851 31.3184 15.2832 31.2645 15.1911Z" fill="#FFFAF0"/>
<path d="M23.4371 32.8369C23.4327 32.8115 23.4303 32.7858 23.43 32.76C23.426 32.7339 23.4104 32.6994 23.4046 32.6751C23.3939 32.6282 23.376 32.5831 23.3662 32.5358L23.3404 32.4032L23.3283 32.3369C23.3239 32.3122 23.3199 32.2927 23.3145 32.2649C23.3092 32.237 23.3043 32.2096 23.2994 32.1893L23.2744 32.0779C23.2686 32.0478 23.2632 32.0191 23.2592 31.9895C23.2535 31.9499 23.251 31.91 23.2517 31.8701C23.2517 31.829 23.2566 31.7817 23.2592 31.7344V31.7118V31.7043C23.2646 31.6339 23.2646 31.5631 23.2592 31.4926C23.2521 31.4157 23.2392 31.3569 23.2289 31.2928C23.2164 31.2212 23.1843 31.0452 23.1843 31.0275C23.1843 31.0006 23.1487 30.8432 23.1442 30.8158L23.1161 30.6995L23.0898 30.5426C23.0243 30.1355 22.9663 29.773 22.9115 29.365C22.8954 29.2465 22.8883 29.1249 22.8669 29.0113L22.8566 28.9569C22.8294 28.8301 22.8277 28.7103 22.812 28.5715C22.8049 28.5109 22.7487 28.3708 22.7059 28.3593C22.681 28.3526 22.6547 28.3725 22.6292 28.3672C22.5713 28.3544 22.491 28.4596 22.5044 28.541C22.5178 28.6223 22.5396 28.7116 22.5548 28.7974C22.5668 28.8646 22.5749 28.9326 22.586 29.0003C22.594 29.0445 22.6016 29.0922 22.6096 29.1382C22.6368 29.2863 22.6823 29.4313 22.7024 29.5771C22.7238 29.7323 22.7599 29.88 22.7759 30.0471C22.7964 30.2632 22.8424 30.4891 22.8798 30.7101H22.8687V30.7225L22.8722 30.742C22.8959 30.8887 22.9217 31.0359 22.9476 31.1814C22.9605 31.2543 22.9734 31.3273 22.9864 31.3993L22.9957 31.4537C22.9989 31.4705 23.0011 31.4855 23.0029 31.5019C23.0068 31.534 23.0088 31.5663 23.0091 31.5987C23.0091 31.6871 23.0011 31.7755 22.9997 31.8803C23.0028 31.9825 23.0164 32.0841 23.0403 32.1835L23.0689 32.3161L23.0804 32.3794L23.1045 32.512C23.1148 32.6243 23.1045 32.7392 23.1241 32.8466C23.1289 32.8781 23.1422 32.9077 23.1625 32.9324C23.1839 32.9567 23.1812 32.966 23.1946 32.9735C23.2183 32.9815 23.244 32.9815 23.2677 32.9735C23.3489 32.9611 23.4545 32.8948 23.4371 32.8369Z" fill="#111111"/>
<path d="M23.2207 33.4342C23.2122 33.39 23.1953 33.2605 23.2563 33.245C23.2859 33.2415 23.3158 33.2483 23.341 33.2641C23.3817 33.2827 23.4211 33.3038 23.4592 33.3273C23.4792 33.3388 23.4961 33.355 23.5082 33.3746C23.5367 33.4281 23.5198 33.4992 23.53 33.5567C23.5492 33.6588 23.5211 33.7631 23.5251 33.871C23.5291 33.9788 23.5809 34.0717 23.4975 34.1468C23.4654 34.1243 23.4155 34.0947 23.403 34.0549C23.3415 33.8599 23.2898 33.6606 23.2278 33.4643C23.2249 33.4544 23.2225 33.4444 23.2207 33.4342Z" fill="#111111"/>
<path d="M23.4915 34.6647C23.4808 34.6248 23.4822 34.5827 23.4955 34.5436C23.5321 34.445 23.6859 34.3964 23.7247 34.5197C23.7484 34.5949 23.7341 34.6523 23.7377 34.7315C23.7399 34.7823 23.7337 34.9525 23.6592 34.9193C23.599 34.8915 23.5326 34.7704 23.5076 34.7129C23.5008 34.6973 23.4955 34.6812 23.4915 34.6647Z" fill="#111111"/>
<path d="M23.8271 35.5275L23.8205 35.5302C23.7023 35.5744 23.5815 35.3922 23.6319 35.2888C23.6689 35.2132 23.8026 35.169 23.8673 35.2344C23.9319 35.2998 23.9136 35.4877 23.8271 35.5275Z" fill="#111111"/>
<path d="M22.5232 21.0804C22.5132 21.1045 22.5012 21.1277 22.4875 21.1498C22.4768 21.1746 22.4714 21.2126 22.463 21.236C22.446 21.2802 22.4384 21.3302 22.4215 21.3762L22.3239 21.6352C22.3025 21.6887 22.2828 21.7396 22.2681 21.7802C22.2369 21.8647 22.2102 21.938 22.1865 22.007C22.1642 22.0689 22.142 22.1303 22.1201 22.1918C22.0559 22.3735 21.9921 22.556 21.9315 22.7395C21.9271 22.7536 21.9213 22.7704 21.9172 22.7837L21.9128 22.7983C21.8294 23.0507 21.7558 23.3071 21.6899 23.5653C21.652 23.7107 21.573 24.0732 21.5664 24.1064C21.5597 24.1395 21.5427 24.2297 21.5262 24.3274L21.4946 24.5484C21.4946 24.5577 21.4888 24.5926 21.4843 24.6368L21.4705 24.7955C21.4553 24.9047 21.4491 25.0166 21.4388 25.1253C21.4058 25.539 21.4139 25.9549 21.4629 26.3671C21.4857 26.5749 21.5306 26.7799 21.5967 26.9784C21.6328 27.0816 21.6775 27.1815 21.7304 27.2773C21.7839 27.3733 21.8435 27.4659 21.9088 27.5544C21.9832 27.6574 22.0613 27.7569 22.1379 27.8533L22.3609 28.1344L22.4318 28.2228C22.5169 28.3227 22.5802 28.4306 22.6801 28.5438C22.7138 28.5774 22.7526 28.6056 22.7951 28.6273C22.8282 28.6497 22.8681 28.6598 22.9079 28.6556C22.9311 28.6441 22.9369 28.6114 22.9592 28.5986C22.9725 28.5865 22.9825 28.5712 22.9882 28.5542C22.9939 28.5371 22.9951 28.519 22.9918 28.5013C22.9908 28.46 22.975 28.4203 22.9472 28.3895C22.8859 28.3347 22.8277 28.2765 22.7728 28.2153C22.7443 28.1822 22.7176 28.1468 22.6904 28.1114L22.6498 28.0575L22.5606 27.9439C22.5303 27.9054 22.4995 27.8665 22.4679 27.8281C22.3658 27.7065 22.261 27.596 22.1647 27.4811C22.0683 27.3713 21.9849 27.251 21.9159 27.1225C21.7782 26.8421 21.6993 26.5368 21.6841 26.2252C21.6488 25.776 21.654 25.3246 21.6997 24.8764C21.7032 24.8779 21.7066 24.8795 21.7099 24.8813L21.713 24.8565L21.7175 24.8172C21.7921 24.2239 21.9185 23.6382 22.0951 23.0666C22.2062 22.6997 22.3323 22.3372 22.4652 21.9761L22.5869 21.6525L22.6355 21.5265C22.685 21.4261 22.7528 21.3333 22.7956 21.2347C22.8082 21.2058 22.8128 21.174 22.809 21.1428C22.8041 21.1114 22.8116 21.1052 22.8045 21.0915C22.7893 21.0717 22.768 21.0575 22.7439 21.0508C22.6658 21.0221 22.5401 21.0212 22.5232 21.0804Z" fill="#111111"/>
<path d="M23.0368 20.704C23.0185 20.7429 22.9601 20.8587 22.9031 20.8366C22.8765 20.8229 22.8556 20.8006 22.8438 20.7734C22.8204 20.7351 22.7998 20.6952 22.7822 20.654C22.7728 20.6327 22.7685 20.6096 22.7697 20.5864C22.7778 20.5258 22.8353 20.4776 22.8625 20.425C22.9115 20.3313 22.9963 20.2641 23.064 20.1779C23.1318 20.0917 23.1532 19.9865 23.2647 19.9834C23.274 20.021 23.2932 20.0749 23.2767 20.1125C23.1996 20.2986 23.1162 20.4834 23.0506 20.6748C23.0449 20.6858 23.0408 20.6951 23.0368 20.704Z" fill="#111111"/>
<path d="M23.6166 19.6128C23.5959 19.6484 23.5648 19.677 23.5275 19.695C23.4334 19.7392 23.2859 19.6725 23.346 19.5549C23.3821 19.4828 23.4352 19.4514 23.4891 19.3927C23.5186 19.3619 23.5517 19.3347 23.5876 19.3118C23.6282 19.2888 23.6679 19.2808 23.6799 19.3193C23.6986 19.3807 23.6603 19.5124 23.6353 19.5686C23.6299 19.5836 23.6236 19.5984 23.6166 19.6128Z" fill="#111111"/>
<path d="M24.0451 18.8019L24.0509 18.8054C24.0749 18.825 24.0921 18.8515 24.1 18.8812C24.108 18.9109 24.1064 18.9424 24.0955 18.9712C24.089 19.001 24.0749 19.0286 24.0545 19.0513C24.0341 19.0741 24.0081 19.0913 23.9791 19.1012C23.8993 19.1193 23.778 19.0468 23.7887 18.9535C23.7994 18.8602 23.964 18.7555 24.0451 18.8019Z" fill="#111111"/>
<path d="M23.6233 19.4263C23.6068 19.4594 23.5823 19.4572 23.548 19.3763C23.5136 19.2954 23.474 19.1332 23.4633 18.8543C23.4633 18.8123 23.4757 18.6659 23.4793 18.5678C23.4896 18.2778 23.5092 18.0135 23.5136 17.7721C23.5163 17.6523 23.5136 17.5347 23.5101 17.4237C23.5065 17.3128 23.5056 17.2067 23.5038 17.1063C23.4955 16.7044 23.489 16.3884 23.4842 16.1586C23.4842 16.0617 23.4802 15.9707 23.4784 15.8836C23.4766 15.7965 23.4753 15.7125 23.4695 15.6347C23.4584 15.4773 23.441 15.3279 23.4249 15.1776C23.4089 15.0273 23.395 14.8753 23.3884 14.7108C23.3791 14.5289 23.3878 14.3465 23.4142 14.1662C23.4335 14.0381 23.4711 13.9134 23.5257 13.7957L23.5511 13.744C23.5605 13.7294 23.5685 13.7157 23.5761 13.7033L23.5979 13.668L23.6206 13.6375C23.636 13.6157 23.6526 13.5949 23.6706 13.5751C23.6936 13.5482 23.7184 13.5226 23.7446 13.4987C23.8421 13.4086 23.9562 13.338 24.0808 13.2909C24.1102 13.2776 24.1396 13.271 24.1673 13.2613C24.1939 13.2518 24.2212 13.244 24.2488 13.2379C24.3004 13.2259 24.3532 13.2198 24.4062 13.2197C24.4565 13.2198 24.5065 13.2279 24.5543 13.2436C24.6014 13.2598 24.6449 13.285 24.6822 13.3179C24.7533 13.3839 24.8024 13.4698 24.8231 13.5641C24.8464 13.6677 24.8583 13.7736 24.8588 13.8797C24.8762 14.2913 24.8882 14.5304 24.9034 14.77C24.9185 15.0096 24.9314 15.2484 24.9711 15.6568C25.009 16.048 25.0652 16.4362 25.1352 16.8225C25.1799 17.0593 25.207 17.2989 25.2163 17.5396C25.2246 17.7533 25.2012 17.967 25.1468 18.1739C25.1058 18.3167 25.0402 18.1969 25.0331 18.0948C25.0269 18.0064 25.0295 17.8937 25.0331 17.7739C25.0367 17.6541 25.0331 17.5281 25.0291 17.4202C25.0193 17.1793 24.9845 16.9269 24.952 16.6687C24.9194 16.4105 24.8833 16.1515 24.8548 15.8947C24.7955 15.3447 24.7767 15.0508 24.7553 14.7572C24.7451 14.61 24.7357 14.4633 24.7259 14.2842C24.721 14.1958 24.7161 14.0968 24.7107 13.9871L24.7027 13.813C24.7004 13.7511 24.6935 13.6895 24.6822 13.6286C24.6723 13.5693 24.6496 13.5128 24.6158 13.4629C24.5833 13.4184 24.5359 13.3871 24.482 13.3744C24.4233 13.3619 24.3625 13.3619 24.3037 13.3744C24.2718 13.3807 24.2404 13.389 24.2096 13.3992L24.1624 13.4142C24.1467 13.4195 24.132 13.4266 24.1178 13.4324C23.9961 13.4801 23.8876 13.5559 23.8012 13.6534C23.7585 13.7022 23.7215 13.7558 23.6911 13.813C23.6608 13.8713 23.636 13.9322 23.6171 13.9951C23.5923 14.0771 23.5749 14.1611 23.5649 14.2462C23.56 14.2824 23.5578 14.316 23.5547 14.3474L23.5498 14.4358C23.5466 14.5437 23.5498 14.6206 23.5529 14.6975C23.5605 14.8518 23.5747 15.0043 23.618 15.4177C23.6327 15.5684 23.6403 15.6798 23.6412 15.7669C23.642 15.854 23.6438 15.919 23.6447 15.9839C23.6474 16.1144 23.6501 16.2448 23.6563 16.5471C23.6643 16.884 23.6692 16.9101 23.6817 17.246C23.6817 17.2942 23.6933 17.6532 23.6906 17.7058C23.6906 17.75 23.6857 17.8826 23.6795 18.0152C23.6733 18.1478 23.6666 18.2769 23.6648 18.3202C23.663 18.3636 23.6572 18.6531 23.6599 18.9188C23.6626 19.1845 23.684 19.4294 23.6233 19.4263Z" fill="#111111"/>
<path d="M25.6445 16.0502C25.6142 15.7111 25.5843 15.372 25.5486 15.0334C25.5308 14.865 25.5107 14.6948 25.4951 14.5255C25.4795 14.3562 25.4626 14.1873 25.4394 14.0206C25.4283 13.9371 25.4153 13.854 25.3988 13.7726C25.3904 13.732 25.381 13.6922 25.3707 13.6528L25.3364 13.5304C25.2918 13.3668 25.2423 13.2015 25.2098 13.0304C25.1932 12.9445 25.1816 12.8577 25.175 12.7705C25.1692 12.6821 25.1679 12.5999 25.1643 12.5137C25.1549 12.341 25.1578 12.1678 25.1728 11.9956C25.1826 11.8937 25.2029 11.7931 25.2334 11.6954C25.2626 11.5954 25.31 11.5016 25.3734 11.4187C25.436 11.3352 25.5123 11.2627 25.599 11.2043C25.693 11.1407 25.8063 11.1115 25.9196 11.1216C25.9949 11.1299 26.0681 11.1513 26.1358 11.1848C26.193 11.2127 26.2477 11.2452 26.2994 11.2821C26.3842 11.3445 26.4594 11.419 26.5224 11.5031C26.6154 11.6283 26.6811 11.7713 26.7154 11.9231C26.7312 11.9931 26.7409 12.0644 26.7444 12.1361C26.7489 12.2073 26.7551 12.2829 26.7631 12.3687C26.7796 12.5393 26.8041 12.7493 26.8568 13.0344C26.8692 13.1038 26.9192 13.3673 26.9905 13.6285C27.0618 13.8898 27.1354 14.1511 27.1546 14.2209C27.1943 14.3593 27.2384 14.5021 27.2785 14.6347C27.3187 14.7673 27.361 14.8871 27.3922 15.0224C27.4337 15.2018 27.4644 15.3924 27.4903 15.5763C27.4961 15.6046 27.4961 15.6337 27.4903 15.662C27.4618 15.662 27.4435 15.7438 27.4172 15.7641C27.3909 15.7845 27.3592 15.7438 27.2964 15.5082C27.2357 15.2951 27.1532 14.9415 27.0734 14.6519C26.9976 14.369 26.9111 14.0861 26.8336 13.7974C26.7539 13.5076 26.6908 13.2136 26.6445 12.9168C26.6222 12.7678 26.604 12.6184 26.5906 12.4686C26.5839 12.3939 26.5781 12.3187 26.5736 12.2436L26.5678 12.1308C26.5652 12.0946 26.5647 12.0636 26.5594 12.03C26.5434 11.8979 26.4984 11.7708 26.4275 11.6578C26.3567 11.5447 26.2617 11.4485 26.1492 11.3758C26.0733 11.3244 25.9862 11.2917 25.8951 11.2803C25.8107 11.2758 25.7277 11.3028 25.6623 11.3559C25.6245 11.3844 25.5895 11.4165 25.558 11.4518C25.542 11.4699 25.5264 11.4894 25.5103 11.5084C25.4958 11.5266 25.4824 11.5456 25.4702 11.5654C25.4207 11.6486 25.3858 11.7395 25.3672 11.8342C25.3292 12.0382 25.3162 12.246 25.3284 12.4531L25.3337 12.6144V12.6953C25.3337 12.721 25.3337 12.7466 25.3382 12.7723C25.346 12.8763 25.3609 12.9797 25.3828 13.0817C25.4046 13.1843 25.4314 13.2873 25.4595 13.3911C25.4876 13.495 25.5183 13.5967 25.5424 13.7099C25.5822 13.9256 25.6108 14.1433 25.628 14.3619L25.6574 14.6842L25.6909 15.006L25.7564 15.6488C25.7907 16.0051 25.8219 16.3561 25.8585 16.7018C25.8791 16.8837 25.8771 17.0675 25.8527 17.249C25.8399 17.3395 25.8224 17.4292 25.8001 17.5178C25.7898 17.562 25.7778 17.6062 25.7658 17.6504C25.7537 17.6946 25.7359 17.741 25.7212 17.7861C25.6578 17.9398 25.5583 18.0762 25.4309 18.184C25.31 18.2845 25.1759 18.3684 25.0324 18.4333C24.9031 18.4943 24.7867 18.5412 24.6944 18.5752C24.6021 18.6093 24.5343 18.63 24.4978 18.6252C24.4915 18.6252 24.5268 18.5933 24.587 18.5474C24.6471 18.5014 24.7314 18.4439 24.8192 18.3856C24.9071 18.3272 24.9976 18.2671 25.0653 18.2163C25.1331 18.1654 25.1835 18.123 25.2031 18.1088C25.2793 18.0523 25.3485 17.9872 25.4095 17.9148C25.453 17.8596 25.4922 17.8012 25.5268 17.7402L25.5437 17.715C25.5482 17.7061 25.5531 17.6968 25.5576 17.6871L25.5861 17.6283C25.6039 17.5841 25.6213 17.5359 25.6365 17.486C25.7072 17.2668 25.7345 17.036 25.7167 16.8065C25.7074 16.6863 25.6922 16.559 25.6815 16.4378L25.6445 16.0502Z" fill="#111111"/>
<path d="M24.9776 23.0254C24.9883 23.0099 24.9994 23.0086 25.0132 22.9949C25.0271 22.9812 25.036 22.9635 25.0467 22.9529C25.0672 22.9321 25.0832 22.9087 25.1055 22.8875C25.146 22.85 25.1885 22.8149 25.2331 22.7823C25.2545 22.7664 25.2754 22.7518 25.2924 22.7407C25.3267 22.7168 25.3579 22.6965 25.3864 22.6797C25.415 22.6629 25.4395 22.6488 25.4667 22.6355C25.5475 22.5932 25.6308 22.5554 25.7159 22.5223L25.736 22.5148L25.7427 22.5117C25.8604 22.4675 25.9821 22.4273 26.1043 22.3888L26.2523 22.3446L26.3187 22.3247L26.3352 22.3199C26.3378 22.3193 26.3404 22.3184 26.3428 22.3172L26.3459 22.3097L26.3575 22.2823L26.3753 22.2381L26.3816 22.2244C26.3945 22.2001 26.4502 22.0476 26.4592 22.021C26.4618 22.0122 26.4797 21.9583 26.4966 21.9061L26.5501 21.7545C26.6183 21.5586 26.6767 21.3716 26.7334 21.1846C26.79 20.9976 26.8551 20.8173 26.9117 20.6126C26.9472 20.4933 26.9681 20.3703 26.9741 20.2461C26.9741 20.2258 26.9741 20.2054 26.9741 20.1864C26.9741 20.1674 26.9741 20.1422 26.971 20.1206L26.967 20.0551C26.9634 20.0109 26.9585 19.9703 26.9532 19.9283C26.9482 19.9033 26.9404 19.879 26.93 19.8558C26.9193 19.831 26.9072 19.8089 26.8943 19.8036C26.8814 19.7983 26.8613 19.8067 26.8462 19.8014C26.8347 19.7992 26.8229 19.8004 26.8122 19.8049C26.8014 19.8093 26.7923 19.8169 26.786 19.8266C26.7762 19.8378 26.7688 19.8509 26.7642 19.865C26.7596 19.8791 26.7579 19.894 26.7592 19.9088C26.7681 19.9676 26.7846 20.0206 26.7931 20.071C26.7968 20.0968 26.7992 20.1228 26.8002 20.1488V20.1882C26.8002 20.2076 26.8002 20.2324 26.8002 20.2523L26.7958 20.3186C26.7837 20.4627 26.7568 20.6052 26.7155 20.7439C26.6923 20.8186 26.6709 20.892 26.6473 20.9649C26.6237 21.0379 26.6027 21.1179 26.5746 21.1961C26.5042 21.4004 26.4409 21.6192 26.3646 21.8301L26.3588 21.8261L26.3544 21.8376L26.3477 21.8561C26.3223 21.9251 26.2964 21.9945 26.2692 22.0626L26.2282 22.1651L26.2211 22.1828L26.2153 22.185L26.2037 22.1886C26.061 22.2328 25.9179 22.277 25.7788 22.3278C25.5945 22.3921 25.4178 22.476 25.2518 22.578C25.2304 22.5909 25.2108 22.605 25.1898 22.6187C25.1795 22.6253 25.1697 22.6324 25.1599 22.6399L25.1336 22.6589C25.122 22.6678 25.1095 22.6762 25.0984 22.6859C25.0752 22.7045 25.0516 22.7226 25.0293 22.742C24.9665 22.7816 24.9068 22.8259 24.851 22.8747C24.8362 22.8893 24.8257 22.9076 24.8206 22.9277C24.8162 22.9481 24.8104 22.9503 24.8117 22.96C24.816 22.9751 24.8257 22.9881 24.8389 22.9967C24.8822 23.0276 24.9562 23.055 24.9776 23.0254Z" fill="#111111"/>
<path d="M24.6003 23.1639C24.6164 23.141 24.673 23.0755 24.7056 23.0994C24.7195 23.112 24.7286 23.1291 24.7314 23.1476C24.7395 23.1743 24.746 23.2015 24.751 23.2289C24.7548 23.2434 24.7548 23.2586 24.751 23.2731C24.739 23.308 24.698 23.3297 24.6757 23.3589C24.6369 23.4106 24.5762 23.4429 24.5294 23.4915C24.4826 23.5401 24.463 23.6047 24.3921 23.6016C24.3836 23.5746 24.3836 23.5458 24.3921 23.5189C24.4532 23.4049 24.5218 23.2935 24.5914 23.1807C24.594 23.175 24.597 23.1693 24.6003 23.1639Z" fill="#111111"/>
<path d="M24.1575 23.8337C24.1699 23.81 24.1891 23.7906 24.2128 23.7779C24.2734 23.7479 24.3639 23.7934 24.3283 23.8664C24.3049 23.9037 24.2772 23.9381 24.2458 23.969C24.2253 23.9924 24.1566 24.0733 24.1325 24.0287C24.1125 23.9911 24.1325 23.9031 24.1446 23.8651C24.1481 23.8543 24.1524 23.8438 24.1575 23.8337Z" fill="#111111"/>
<path d="M24.0321 24.4117H24.0276C23.988 24.4117 23.9599 24.3776 23.951 24.3339C23.9457 24.3134 23.9461 24.2918 23.9519 24.2715C23.9578 24.2512 23.969 24.2327 23.9844 24.2181C23.9967 24.2106 24.0105 24.2058 24.0248 24.2039C24.0392 24.2021 24.0537 24.2033 24.0675 24.2075C24.0814 24.2117 24.0941 24.2187 24.105 24.2282C24.1159 24.2376 24.1246 24.2492 24.1306 24.2623C24.1349 24.2943 24.1269 24.3268 24.1083 24.3533C24.1007 24.368 24.0899 24.3808 24.0768 24.3909C24.0636 24.401 24.0483 24.4081 24.0321 24.4117Z" fill="#111111"/>
<path d="M26.8895 20.1216C26.8494 20.1565 26.7941 20.1172 26.7455 19.8444C26.7419 19.8241 26.7455 19.7502 26.7406 19.7012C26.6725 19.1244 26.6247 18.7202 26.597 18.4886C26.5743 18.2937 26.5573 18.1407 26.5462 17.9864C26.5326 17.8164 26.5305 17.6457 26.54 17.4754C26.5436 17.3831 26.5549 17.2913 26.5738 17.2009C26.585 17.1545 26.5908 17.1072 26.6363 16.9303C26.6693 16.8114 26.6947 16.7367 26.7228 16.6624C26.7554 16.5736 26.7963 16.4879 26.8449 16.4065C26.9262 16.2682 27.0292 16.1436 27.1499 16.0374C27.2713 15.9309 27.41 15.8456 27.5601 15.7849C27.7607 15.7004 27.9801 15.6687 28.1967 15.693C28.2315 15.6979 28.2654 15.7045 28.2993 15.7116C28.3339 15.7199 28.3678 15.7311 28.4005 15.7452C28.4721 15.774 28.5328 15.8244 28.5739 15.8893C28.5797 15.8986 28.5824 15.9043 28.5855 15.9101L28.5953 15.9291C28.602 15.9423 28.6092 15.956 28.6154 15.9711C28.6285 16.0007 28.6376 16.0319 28.6426 16.0639C28.6506 16.1191 28.6492 16.1753 28.6386 16.2301C28.623 16.3061 28.5374 16.254 28.5133 16.208C28.4892 16.162 28.4816 16.1196 28.4647 16.0794C28.4567 16.059 28.4442 16.0352 28.4295 16.0073L28.4206 15.9901C28.4206 15.9861 28.4161 15.9821 28.4139 15.9781C28.409 15.9703 28.4035 15.9629 28.3974 15.956C28.3394 15.891 28.2092 15.8517 28.0893 15.8393C27.9644 15.8269 27.8382 15.8395 27.7183 15.8765C27.6144 15.9079 27.5152 15.9532 27.4236 16.0113C27.3585 16.0519 27.2976 16.0989 27.2417 16.1514C27.1854 16.2036 27.1339 16.2607 27.0879 16.3221C27.0221 16.4084 26.9649 16.501 26.9171 16.5983C26.7975 16.8437 26.7247 17.1088 26.7022 17.3804C26.6913 17.5003 26.6888 17.6208 26.6947 17.7411C26.6987 17.8189 26.7014 17.8967 26.7192 18.1031C26.7486 18.4051 26.7419 18.3639 26.7794 18.6668C26.8008 18.8352 26.807 18.848 26.8329 19.0155C26.8364 19.0399 26.8592 19.2198 26.861 19.2454C26.8645 19.2896 26.8882 19.5106 26.8949 19.5522C26.9015 19.5938 27.0081 20.1233 26.8895 20.1216Z" fill="#111111"/>
<path d="M29.3374 21.1581C29.3717 21.4079 29.4528 21.6519 29.53 21.9021C29.6071 22.1523 29.6833 22.4114 29.6981 22.6846C29.7113 22.9558 29.6763 23.2273 29.5946 23.4865C29.5152 23.741 29.4107 23.987 29.2825 24.2212C29.2201 24.3383 29.1532 24.4524 29.0859 24.5651C29.0186 24.6778 28.9455 24.7919 28.871 24.8993C28.7207 25.1163 28.5696 25.3219 28.4537 25.5465C28.3332 25.7736 28.225 26.0069 28.1295 26.2454C28.0322 26.481 27.9532 26.7237 27.8932 26.9712C27.8333 27.2552 27.815 27.5463 27.8388 27.8355C27.8567 28.1331 27.8992 28.4288 27.9659 28.7196C28.0436 29.0543 28.1433 29.3836 28.2646 29.7054C28.3538 29.9525 28.443 30.1333 28.529 30.3194C28.5736 30.4118 28.6182 30.5046 28.6628 30.6063C28.7074 30.708 28.7577 30.8119 28.8023 30.9476C28.8495 31.0957 28.886 31.247 28.9116 31.4003C28.9276 31.4847 28.9432 31.574 28.9628 31.6655C28.9722 31.7123 28.9829 31.761 28.9954 31.8083C29.0076 31.8572 29.0225 31.9055 29.04 31.9528C29.0791 32.0599 29.1238 32.165 29.1737 32.2676C29.2094 32.3432 29.2513 32.4289 29.2932 32.5222C29.3351 32.6155 29.3739 32.7154 29.4105 32.8148C29.4832 33.0147 29.5442 33.2154 29.5951 33.3772C29.6459 33.5389 29.6869 33.6623 29.7052 33.7136C29.777 33.9171 29.8651 34.1146 29.9687 34.3042C30.0672 34.4894 30.1742 34.6441 30.2772 34.8271C30.411 35.0694 30.551 35.3302 30.6754 35.5883C30.6965 35.6277 30.7096 35.6708 30.7141 35.7152C30.6696 35.7302 30.6794 35.858 30.6482 35.8991C30.633 35.9199 30.608 35.9195 30.563 35.8744C30.4841 35.7837 30.4131 35.6865 30.3508 35.5839C30.168 35.3015 29.8679 34.8262 29.6602 34.3904C29.5588 34.1794 29.4708 33.9623 29.3967 33.7405C29.3222 33.5195 29.2584 33.3038 29.1884 33.0925C29.1532 32.9873 29.1162 32.8834 29.0765 32.783C29.0369 32.6827 28.9932 32.5845 28.9428 32.4824C28.8924 32.3803 28.8438 32.2751 28.7983 32.1628C28.7751 32.1067 28.7537 32.0492 28.735 31.9891C28.7163 31.929 28.7002 31.8649 28.6904 31.8083C28.6409 31.5749 28.616 31.3503 28.5647 31.1452C28.5518 31.0943 28.5375 31.044 28.5201 30.9949C28.5027 30.9458 28.484 30.8967 28.4635 30.845C28.4225 30.7429 28.3779 30.6408 28.332 30.5378C28.2401 30.3318 28.1429 30.1218 28.0604 29.9012C27.978 29.6806 27.9053 29.4662 27.8375 29.2443C27.7402 28.9193 27.6673 28.5876 27.6195 28.2519C27.5959 28.083 27.5794 27.9137 27.5718 27.7431C27.5622 27.5699 27.5654 27.3963 27.5816 27.2236C27.6173 26.87 27.7292 26.5402 27.8491 26.2272C27.9724 25.9114 28.1185 25.6047 28.286 25.3095C28.4644 25.0076 28.6775 24.7543 28.8425 24.4807C29.0176 24.2095 29.1682 23.9235 29.2928 23.6261C29.4135 23.3384 29.472 23.0288 29.4644 22.7173C29.4542 22.4122 29.3485 22.1077 29.2491 21.7889C29.2081 21.6563 29.1679 21.5237 29.1367 21.3831C29.1061 21.2438 29.086 21.1024 29.0765 20.9601C29.0666 20.8206 29.0647 20.6807 29.0707 20.541C29.0752 20.4022 29.0859 20.2651 29.0997 20.1299C29.126 19.8589 29.1635 19.5932 29.1889 19.3293C29.1956 19.2634 29.2005 19.1967 29.2054 19.1317C29.2102 19.0729 29.2102 19.0137 29.2054 18.9549C29.1969 18.8497 29.147 18.7471 29.0814 18.6286C29.0551 18.5813 29.0262 18.5305 28.9985 18.4748C28.9707 18.418 28.9458 18.3599 28.9241 18.3006C28.8806 18.1825 28.8473 18.0609 28.8246 17.9372C28.78 17.6937 28.7591 17.4563 28.7386 17.2459C28.7181 17.0354 28.6967 16.8515 28.6726 16.7079C28.6681 16.6716 28.6614 16.6385 28.6561 16.608C28.6507 16.5775 28.6485 16.5478 28.6436 16.5231C28.6355 16.4838 28.6346 16.4434 28.6409 16.4037C28.6409 16.3993 28.653 16.4112 28.6721 16.4369C28.6999 16.4733 28.7248 16.5117 28.7466 16.5518C28.8184 16.6811 28.8762 16.8176 28.9191 16.959C28.9695 17.1168 29.0083 17.2812 29.0422 17.4134C29.0761 17.5456 29.0984 17.6459 29.1055 17.6839C29.1299 17.8333 29.1639 17.9809 29.2072 18.126C29.2192 18.1605 29.2308 18.1936 29.2415 18.225C29.2522 18.2564 29.266 18.2838 29.2763 18.3103C29.2963 18.3621 29.3209 18.4063 29.3289 18.435C29.3516 18.4973 29.3815 18.5676 29.4096 18.6463C29.4417 18.7326 29.4615 18.8229 29.4684 18.9146C29.4723 19.0065 29.468 19.0985 29.4555 19.1896C29.4451 19.278 29.4346 19.3678 29.4239 19.4588C29.3793 19.8235 29.3226 20.2103 29.3097 20.5777C29.3011 20.7716 29.3103 20.9659 29.3374 21.1581Z" fill="#111111"/>
<path d="M27.8263 10.3778C27.7812 10.3779 27.7363 10.3833 27.6925 10.3937C27.6479 10.4039 27.6002 10.4185 27.5556 10.4335C27.4672 10.4634 27.3847 10.5083 27.3118 10.5661C27.2421 10.6221 27.1891 10.6957 27.1584 10.7792C27.1282 10.8652 27.1147 10.9561 27.1187 11.0471C27.1231 11.2336 27.1731 11.4237 27.2079 11.6173C27.2426 11.811 27.2823 12.0037 27.3153 12.1978C27.3514 12.4254 27.3849 12.6398 27.4219 12.8697C27.4776 13.2043 27.5035 13.356 27.5307 13.5089C27.5579 13.6619 27.5851 13.8131 27.6355 14.1481C27.6417 14.1888 27.6627 14.3444 27.68 14.5018C27.6974 14.6592 27.7148 14.8152 27.7193 14.8554C27.7273 14.9385 27.7393 15.0239 27.7505 15.1034C27.7616 15.183 27.7799 15.2546 27.7857 15.3346C27.7933 15.4412 27.792 15.553 27.7893 15.6604C27.7893 15.6816 27.7804 15.7099 27.7759 15.7099C27.7188 15.7077 27.6564 15.8868 27.6078 15.6065C27.5851 15.4805 27.5659 15.2732 27.5503 15.0999C27.5209 14.7635 27.4798 14.4258 27.4361 14.0867C27.3925 13.7476 27.347 13.4095 27.2908 13.0726C27.211 12.5806 27.1294 12.0895 27.038 11.6001C27.0161 11.4781 26.9894 11.3552 26.9742 11.2252C26.9546 11.0909 26.9585 10.9542 26.9858 10.8212C27.018 10.6794 27.0964 10.552 27.2088 10.4587C27.3175 10.3735 27.4422 10.3105 27.5757 10.2735C27.6305 10.2559 27.6867 10.2433 27.7438 10.2359C27.803 10.2287 27.8629 10.2287 27.9222 10.2359C28.0314 10.2515 28.1382 10.2812 28.2396 10.3243L28.3841 10.3844C28.4423 10.4079 28.4955 10.4419 28.541 10.4848C28.5667 10.5104 28.5876 10.5403 28.6026 10.5732C28.6162 10.603 28.6263 10.6343 28.6324 10.6665C28.644 10.727 28.6454 10.7779 28.6516 10.8265C28.6694 10.9699 28.6973 11.1118 28.735 11.2513C28.7681 11.3592 28.7938 11.4693 28.8117 11.5807V11.6032L28.809 11.6059C28.8028 11.6128 28.7946 11.6177 28.7855 11.6197C28.7763 11.6218 28.7668 11.621 28.7582 11.6173C28.7535 11.6158 28.7495 11.6127 28.7467 11.6086C28.744 11.6046 28.7427 11.5997 28.743 11.5948C28.743 11.5926 28.7475 11.5948 28.7528 11.5904C28.7582 11.586 28.7662 11.5807 28.7622 11.5767V11.6045C28.7054 11.5364 28.6542 11.4638 28.6093 11.3875C28.5728 11.3277 28.5415 11.265 28.5156 11.2C28.497 11.1391 28.4821 11.0771 28.471 11.0144C28.4615 10.9669 28.4575 10.9186 28.459 10.8703C28.4658 10.815 28.469 10.7593 28.4684 10.7036C28.4689 10.6789 28.4638 10.6544 28.4534 10.6319C28.443 10.6095 28.4275 10.5897 28.4082 10.5741C28.353 10.5367 28.293 10.507 28.2298 10.4857C28.1655 10.4576 28.0997 10.433 28.0327 10.4118C27.966 10.3903 27.8964 10.3788 27.8263 10.3778Z" fill="#111111"/>
<path d="M29.1757 15.2302C29.1759 15.2137 29.1774 15.1973 29.1802 15.1811C29.1802 15.1648 29.1748 15.1413 29.1739 15.1254C29.1739 15.0949 29.1668 15.0649 29.1654 15.0344L29.1628 14.8575C29.1628 14.8133 29.1628 14.7749 29.1628 14.743C29.1628 14.6767 29.1596 14.6188 29.1574 14.5662C29.1552 14.5136 29.1534 14.4699 29.1516 14.4217C29.1454 14.2793 29.1373 14.1365 29.1253 13.9942L29.1226 13.9606V13.9496C29.1057 13.7537 29.078 13.5579 29.0446 13.3643C29.0348 13.3095 29.0156 13.2149 28.9973 13.1318C28.9791 13.0487 28.9621 12.9766 28.9595 12.9642C28.9514 12.924 28.8912 12.6897 28.8841 12.6499C28.881 12.6367 28.8609 12.5558 28.8462 12.4771C28.8342 12.3997 28.8244 12.3228 28.8194 12.2454C28.8084 12.1013 28.8201 11.9563 28.8542 11.8158C28.8888 11.6828 28.9503 11.5581 29.0348 11.4493C29.1145 11.3424 29.2244 11.2614 29.3505 11.2163C29.4835 11.1827 29.6239 11.1914 29.7517 11.2411C29.8316 11.2693 29.9076 11.307 29.9782 11.3534C30.0135 11.3764 30.0478 11.4016 30.0795 11.4268C30.1087 11.45 30.1353 11.4764 30.1588 11.5054C30.1728 11.5232 30.1851 11.5423 30.1954 11.5625C30.2276 11.6341 30.2546 11.708 30.2761 11.7835C30.2886 11.8197 30.3425 11.8984 30.3706 11.8998C30.3867 11.8998 30.4005 11.8847 30.4152 11.8847C30.4526 11.8847 30.4874 11.8087 30.4678 11.7609C30.4482 11.7132 30.4232 11.6606 30.4018 11.6098L30.3688 11.5275C30.3626 11.5134 30.3563 11.4988 30.3488 11.4833C30.3302 11.4462 30.3073 11.4113 30.2805 11.3795C30.2535 11.3484 30.2237 11.3198 30.1914 11.2941C30.0948 11.2195 29.9873 11.1598 29.8726 11.1173C29.7586 11.0737 29.638 11.0493 29.5159 11.0453C29.4161 11.0421 29.3169 11.0617 29.2261 11.1027C29.1962 11.1171 29.1674 11.1337 29.14 11.1522C29.0308 11.2268 28.9366 11.321 28.8623 11.4298C28.7601 11.5782 28.6952 11.7485 28.6728 11.9267C28.6533 12.1034 28.6583 12.2818 28.6875 12.4572H28.6803L28.683 12.4762L28.6879 12.5063C28.7249 12.7339 28.7851 12.9527 28.8342 13.1693C28.882 13.3833 28.9185 13.5996 28.9434 13.8174C28.9746 14.0972 28.9916 14.3797 28.9982 14.6626L29.0005 14.7691V14.8677V14.995C28.9947 15.0653 28.9768 15.1356 28.9755 15.2037C28.9748 15.2237 28.9795 15.2436 28.9893 15.2611C29 15.2784 28.9969 15.2837 29.0045 15.2899C29.0179 15.2978 29.0336 15.3011 29.0491 15.2992C29.107 15.2974 29.1802 15.2682 29.1757 15.2302Z" fill="#111111"/>
<path d="M28.9717 15.5742C28.9717 15.5468 28.9766 15.4641 29.0163 15.4619C29.0351 15.4633 29.0528 15.4709 29.0667 15.4836C29.0895 15.5002 29.1114 15.518 29.1322 15.5371C29.1433 15.5468 29.1519 15.5591 29.1572 15.5729C29.1683 15.6091 29.1474 15.6511 29.1465 15.6878C29.1443 15.7537 29.1126 15.8151 29.1019 15.8819C29.0912 15.9486 29.1064 16.0145 29.0426 16.0472C29.0274 16.0286 29.0011 16.003 28.998 15.9774C28.99 15.8509 28.9842 15.7223 28.9726 15.5936C28.9721 15.587 28.9717 15.5804 28.9717 15.5742Z" fill="#111111"/>
<path d="M28.939 16.3509C28.9419 16.326 28.9517 16.3023 28.9671 16.2824C29.0091 16.2333 29.1112 16.2307 29.1085 16.3151C29.1026 16.3613 29.0887 16.4062 29.0675 16.4477C29.0572 16.4796 29.0059 16.5768 28.9729 16.5362C28.9495 16.4884 28.9375 16.4359 28.9377 16.3828C28.9372 16.3721 28.9376 16.3615 28.939 16.3509Z" fill="#111111"/>
<path d="M28.847 16.9099H28.8426C28.8259 16.9005 28.8124 16.8863 28.8039 16.8692C28.7954 16.8521 28.7922 16.8329 28.7948 16.814C28.7942 16.7957 28.7982 16.7776 28.8066 16.7613C28.8149 16.745 28.8273 16.731 28.8426 16.7207C28.8872 16.6977 28.9764 16.7176 28.9839 16.7777C28.9837 16.7961 28.9796 16.8141 28.9719 16.8308C28.9642 16.8474 28.9531 16.8623 28.9393 16.8746C28.9282 16.8877 28.9139 16.8979 28.8978 16.9041C28.8816 16.9102 28.8642 16.9123 28.847 16.9099Z" fill="#111111"/>
<path d="M30.2053 22.1434C30.2121 22.1291 30.2204 22.1155 30.2298 22.1027C30.2374 22.0881 30.2423 22.0647 30.2485 22.0505C30.2606 22.0227 30.2686 21.9935 30.282 21.9661L30.3194 21.8905L30.364 21.8087L30.471 21.6103C30.533 21.4949 30.586 21.3923 30.6315 21.2937C30.6732 21.2049 30.7103 21.1141 30.7425 21.0214C30.7912 20.8823 30.8212 20.7374 30.8317 20.5904C30.8374 20.4458 30.8299 20.301 30.8094 20.1576L30.8018 20.0922L30.7991 20.071C30.7873 19.9783 30.7805 19.885 30.7786 19.7916C30.7779 19.6991 30.7835 19.6067 30.7951 19.5149C30.817 19.3297 30.8571 19.1422 30.8928 18.953C30.9338 18.74 31.0354 18.2157 31.0444 18.1679C31.0617 18.0893 31.1478 17.6162 31.1634 17.5358C31.1683 17.5088 31.1977 17.3439 31.2258 17.1844C31.2555 17.0293 31.2853 16.8737 31.315 16.7175C31.3447 16.5664 31.3737 16.4169 31.4019 16.2693C31.43 16.1208 31.4612 15.9784 31.4853 15.8272C31.4977 15.7501 31.5029 15.6719 31.5009 15.5938C31.4973 15.5146 31.4841 15.4361 31.4617 15.36C31.4403 15.2857 31.4135 15.2154 31.3881 15.1473C31.3627 15.0793 31.3404 15.0116 31.3168 14.944C31.1349 14.3985 31.0444 13.8247 30.9182 13.22C30.8522 12.8656 30.7568 12.5172 30.6328 12.1785C30.6119 12.1268 30.5941 12.0746 30.5704 12.0246L30.562 12.007L30.5486 11.9769C30.5401 11.957 30.5321 11.9371 30.5245 11.9163C30.5169 11.8956 30.5102 11.8752 30.5018 11.854C30.4933 11.8328 30.483 11.812 30.4737 11.7899C30.4567 11.7541 30.3948 11.6785 30.3671 11.6807C30.3511 11.6807 30.3395 11.6997 30.3225 11.7015C30.286 11.7064 30.2588 11.7855 30.282 11.8301C30.3051 11.8748 30.3372 11.9221 30.3586 11.972C30.3702 11.9972 30.3809 12.0233 30.3916 12.0494L30.4086 12.0878L30.4278 12.1321L30.4465 12.1807L30.4835 12.2779C30.5098 12.3425 30.5281 12.4106 30.5521 12.4751C30.6854 12.8981 30.7928 13.3287 30.8736 13.7646C30.9588 14.2344 31.078 14.6976 31.2303 15.1504C31.2856 15.3052 31.3453 15.4524 31.3484 15.6022C31.3515 15.7521 31.3141 15.9152 31.2833 16.0814C31.2196 16.4125 31.1558 16.7445 31.0921 17.0778C31.0921 17.0747 31.0885 17.0738 31.0867 17.0712C31.084 17.0831 31.0818 17.0951 31.0796 17.1074L31.0689 17.1658C30.9846 17.6021 30.9008 18.0397 30.817 18.4743L30.693 19.1241C30.6455 19.3421 30.6196 19.5642 30.6159 19.7872C30.6186 20.0816 30.6948 20.3566 30.6676 20.6214C30.6404 20.8862 30.5339 21.1434 30.4059 21.3901L30.195 21.7853L30.1558 21.8618C30.1174 21.9224 30.0697 21.9781 30.0381 22.0386C30.0288 22.0566 30.0245 22.0768 30.0256 22.097C30.0256 22.1173 30.0229 22.1208 30.0256 22.1297C30.0344 22.1427 30.0475 22.1524 30.0626 22.1571C30.1143 22.1743 30.1928 22.1792 30.2053 22.1434Z" fill="#111111"/>
<path d="M29.875 22.3736C29.8861 22.348 29.924 22.2733 29.9615 22.2874C29.9783 22.296 29.9914 22.3102 29.9985 22.3276C30.013 22.3519 30.026 22.377 30.0373 22.4028C30.0438 22.4166 30.0467 22.4318 30.0458 22.447C30.0413 22.4846 30.0061 22.5147 29.9909 22.5483C29.9633 22.6075 29.9115 22.6517 29.875 22.7092C29.8384 22.7667 29.8331 22.8334 29.763 22.8449C29.7492 22.8203 29.7432 22.7921 29.7457 22.764C29.7813 22.6398 29.8273 22.5177 29.8683 22.394C29.8701 22.387 29.8723 22.3803 29.875 22.3736Z" fill="#111111"/>
<path d="M29.5835 23.1169C29.5919 23.0918 29.6074 23.0695 29.6281 23.0528C29.6812 23.0121 29.7792 23.0378 29.7583 23.116C29.7428 23.1579 29.7215 23.1975 29.695 23.2336C29.6798 23.2614 29.6205 23.3511 29.5911 23.3092C29.5679 23.2747 29.5719 23.1872 29.5777 23.1478C29.5788 23.1374 29.5807 23.127 29.5835 23.1169Z" fill="#111111"/>
<path d="M29.4898 23.6946H29.4853C29.4073 23.6818 29.3961 23.5439 29.4568 23.5028C29.5014 23.4732 29.5879 23.4917 29.6026 23.547C29.6173 23.6022 29.55 23.6995 29.4898 23.6946Z" fill="#111111"/>
<path d="M12.3591 16.8949C12.344 16.9201 12.3195 16.9206 12.2833 16.8751C12.2217 16.7802 12.1669 16.6813 12.1193 16.5789C12.1089 16.5548 12.0998 16.5301 12.0921 16.505C12.08 16.4719 12.0649 16.4352 12.0506 16.406C11.883 16.0656 11.714 15.7871 11.5753 15.5573C11.4366 15.3274 11.3203 15.1515 11.2356 15.0233C11.191 14.9587 11.1513 14.8977 11.1245 14.8579L11.1312 14.8137C11.1319 14.8098 11.1328 14.806 11.1339 14.8022L11.1366 14.7903L11.1397 14.7757C11.1399 14.7731 11.1399 14.7704 11.1397 14.7677L11.1299 14.7576C11.1263 14.7545 11.1232 14.7501 11.125 14.7487C11.1268 14.7474 11.125 14.7487 11.125 14.7461V14.7403C11.1266 14.7311 11.1277 14.7218 11.1281 14.7125C11.1281 14.6922 11.1303 14.6705 11.1303 14.6488C11.1303 14.6046 11.1303 14.5604 11.1259 14.5184C11.121 14.4322 11.1134 14.3487 11.1045 14.2642C11.0875 14.0949 11.0661 13.9212 11.0389 13.7081C10.977 13.2475 11.018 13.4672 10.9498 13.0061C10.9346 12.9027 10.9217 12.8249 10.9092 12.7528L10.8677 12.5216C10.8704 12.5115 10.8726 12.4978 10.8762 12.4849L10.8856 12.4478V12.4341V12.4261C10.8856 12.4142 10.8909 12.4027 10.8927 12.3872C10.898 12.3576 10.9025 12.3218 10.9074 12.2812C10.9289 12.0886 10.9345 11.8946 10.9244 11.7012C10.9131 11.5081 10.8824 11.3166 10.8325 11.1296C10.7647 10.886 10.6542 10.6495 10.4816 10.4798C10.2587 10.2636 9.98493 10.1853 9.73302 10.1487C9.63671 10.1319 9.69779 10.0474 9.77493 10.0258C9.79195 10.0211 9.80921 10.0174 9.82665 10.0147C9.84493 10.0147 9.86499 10.0147 9.8855 10.0147C9.92925 10.0141 9.97292 10.0184 10.0157 10.0275C10.0613 10.0354 10.1061 10.0476 10.1495 10.0638C10.1902 10.0776 10.2297 10.0948 10.2676 10.1151C10.4309 10.1996 10.5721 10.3207 10.68 10.4687C10.7845 10.6155 10.8665 10.7769 10.9235 10.9475C10.9728 11.0915 11.0098 11.2393 11.034 11.3895C11.055 11.5093 11.0661 11.6105 11.0737 11.7082C11.0813 11.8059 11.0866 11.9072 11.0858 12.0287C11.0858 12.0897 11.0831 12.156 11.0782 12.2312C11.0751 12.2683 11.0719 12.3077 11.0661 12.3501C11.0608 12.3969 11.0523 12.4433 11.0407 12.4889L11.034 12.5088C11.0334 12.5115 11.0323 12.514 11.0309 12.5163C11.0287 12.5185 11.0309 12.5216 11.0309 12.5243L11.0702 12.7745L11.1076 13.0344L11.1803 13.5547C11.2177 13.8297 11.232 13.9336 11.2463 14.0375C11.2605 14.1413 11.277 14.2443 11.2953 14.5237C11.2985 14.5842 11.2985 14.6449 11.2953 14.7054C11.295 14.7364 11.2905 14.7671 11.2819 14.7969C11.2757 14.8013 11.2819 14.8058 11.2819 14.8093C11.3488 14.911 11.3912 14.9764 11.5129 15.1629L11.7706 15.5551C11.7884 15.5825 11.9128 15.7898 11.9284 15.8203C11.9579 15.8716 12.0974 16.1297 12.1251 16.1819C12.1322 16.196 12.1625 16.2438 12.1977 16.3105L12.2557 16.4215C12.2744 16.4617 12.294 16.5046 12.3123 16.547C12.3294 16.5884 12.3443 16.6306 12.3569 16.6735C12.3697 16.7099 12.3788 16.7475 12.3841 16.7858C12.3957 16.8481 12.389 16.8923 12.3591 16.8949Z" fill="#111111"/>
<path d="M13.2136 16.2859C13.1993 16.3111 13.1748 16.3137 13.1378 16.2695C13.0741 16.1778 13.0193 16.0802 12.9742 15.9782C12.963 15.9548 12.9367 15.865 12.9095 15.808C12.7486 15.4751 12.5836 15.2033 12.4476 14.9787L12.35 14.8196L12.2942 14.7289L12.2889 14.7205V14.6215C12.2889 14.5181 12.2889 14.4288 12.2889 14.3536C12.2889 13.8475 12.2858 13.5663 12.2889 13.0606C12.292 12.6048 12.3009 12.8236 12.3045 12.3679C12.3045 12.2795 12.3045 12.2105 12.3045 12.1468L12.3018 11.9537L12.3161 11.9121L12.325 11.8834L12.3451 11.8188C12.3589 11.7746 12.3745 11.7203 12.3928 11.6579C12.4655 11.4028 12.4976 11.2512 12.5265 11.1C12.5631 10.9133 12.5858 10.7242 12.5943 10.5342C12.5997 10.4099 12.5948 10.2854 12.5796 10.162C12.5671 10.0419 12.537 9.92428 12.4904 9.81275C12.3763 9.53027 12.156 9.37069 11.9246 9.28228C11.8355 9.2447 11.9126 9.1753 11.9928 9.1722C12.0103 9.17046 12.028 9.17046 12.0455 9.1722C12.0637 9.1753 12.0829 9.17972 12.103 9.18502C12.123 9.19033 12.1435 9.19652 12.1645 9.20359C12.1855 9.21066 12.2046 9.2226 12.2251 9.23321C12.2456 9.24382 12.2662 9.25442 12.2853 9.2668L12.3402 9.30836C12.3741 9.33474 12.4053 9.36435 12.4334 9.39677C12.464 9.42965 12.492 9.46482 12.5172 9.50198C12.543 9.53867 12.5618 9.57934 12.5854 9.6178C12.609 9.65626 12.6228 9.69914 12.6376 9.74069C12.6523 9.78225 12.6679 9.82469 12.6768 9.86801C12.7184 10.0385 12.7395 10.2133 12.7397 10.3888C12.7411 10.5365 12.7332 10.6841 12.716 10.8308C12.7027 10.9489 12.6884 11.0448 12.6714 11.1403C12.6545 11.2357 12.6367 11.3312 12.6095 11.4462C12.5823 11.5611 12.5484 11.6964 12.4931 11.8706L12.4735 11.9316L12.4556 11.9824L12.4503 12.4492L12.4458 12.9266C12.4458 13.4677 12.4525 13.3347 12.4521 13.8753C12.4521 14.2696 12.4476 14.2157 12.4485 14.6096V14.6732C12.4484 14.6767 12.4497 14.68 12.4521 14.6825L12.4637 14.7002L12.5158 14.7802C12.5484 14.8297 12.5818 14.8788 12.6411 14.9716C12.659 14.9977 12.7802 15.2006 12.7958 15.2307C12.8244 15.2811 12.9608 15.5339 12.9871 15.5843C13.054 15.7001 13.1135 15.8198 13.1654 15.9428C13.2363 16.1095 13.2725 16.2775 13.2136 16.2859Z" fill="#111111"/>
<path d="M13.6392 15.3677C13.6147 15.3761 13.5947 15.3677 13.5813 15.3235C13.5747 15.2945 13.5721 15.2647 13.5737 15.235C13.5739 15.1845 13.5771 15.134 13.5831 15.0839C13.5831 15.0653 13.6085 15.0025 13.6143 14.9579C13.6495 14.6962 13.6611 14.4694 13.6696 14.282C13.678 14.0945 13.6829 13.9456 13.6874 13.8399C13.6954 13.6582 13.703 13.5154 13.715 13.3731L13.7199 13.3196L13.7226 13.2926C13.723 13.2776 13.7256 13.2627 13.7302 13.2484C13.7427 13.2113 13.7525 13.1755 13.7659 13.1388C13.7917 13.0654 13.8216 12.9885 13.8573 12.9036C13.9879 12.6004 13.9353 12.7502 14.0682 12.4509C14.1573 12.2503 14.1729 12.1923 14.2501 11.9894C14.2984 11.8625 14.34 11.7331 14.3745 11.6018L14.3936 11.5213L14.4097 11.4329C14.4146 11.4019 14.4182 11.3683 14.4231 11.3312C14.428 11.2941 14.4293 11.2534 14.4275 11.2088C14.4328 11.0417 14.3785 10.8781 14.2741 10.7468C14.2563 10.7282 14.2411 10.7075 14.2229 10.6902C14.2046 10.673 14.1854 10.6557 14.1676 10.6381C14.1279 10.6076 14.0918 10.574 14.0503 10.5496C14.0298 10.5359 14.0115 10.52 13.991 10.5054C13.9705 10.4909 13.9509 10.4798 13.9313 10.4661L13.9023 10.4458L13.8729 10.4272C13.8533 10.4148 13.8341 10.402 13.8154 10.3883C13.7587 10.3476 13.8283 10.2844 13.8858 10.284C13.9812 10.2782 14.1141 10.3635 14.1979 10.4321C14.2997 10.5132 14.3847 10.613 14.4485 10.726C14.5105 10.8407 14.5487 10.9665 14.5608 11.096C14.5709 11.2039 14.5686 11.3126 14.5541 11.4201C14.543 11.5058 14.5292 11.5752 14.514 11.6437C14.4728 11.8198 14.4178 11.9925 14.3495 12.1601C14.2541 12.4032 14.1373 12.6357 14.0374 12.8727C13.9921 12.9755 13.9521 13.0806 13.9175 13.1874C13.9117 13.2047 13.9063 13.2215 13.901 13.2405L13.884 13.2979L13.8769 13.3819C13.8733 13.4169 13.8711 13.4571 13.8671 13.5053C13.8492 13.7855 13.8488 13.7466 13.8385 14.0287C13.8336 14.186 13.8385 14.1984 13.8363 14.3562C13.8363 14.3788 13.8283 14.5481 13.8252 14.5724C13.8212 14.614 13.8015 14.8191 13.7975 14.8597C13.7934 14.9558 13.7828 15.0515 13.7659 15.1462C13.7413 15.274 13.6936 15.3889 13.6392 15.3677Z" fill="#111111"/>
<path d="M15.2609 15.1813C15.2164 15.1747 15.1807 15.1332 15.2213 15.0076C15.2244 14.9983 15.2511 14.9727 15.2605 14.951C15.3409 14.7749 15.4095 14.5937 15.466 14.4086C15.5108 14.2582 15.5456 14.1051 15.5704 13.9502C15.5842 13.8689 15.5864 13.8481 15.5926 13.8273C15.6022 13.7869 15.6074 13.7455 15.6082 13.704C15.6082 13.6766 15.6082 13.654 15.6082 13.6341L15.6038 13.5798C15.6016 13.5453 15.5953 13.5117 15.5895 13.4587C15.586 13.4357 15.5828 13.4144 15.5797 13.3963L15.5686 13.3459C15.5628 13.3145 15.5525 13.2907 15.5458 13.265C15.5391 13.2394 15.5267 13.2164 15.5146 13.1881C15.4981 13.1555 15.4787 13.1245 15.4567 13.0953C15.4061 13.0281 15.3386 12.9754 15.2609 12.9423C15.1639 12.9077 15.0713 12.862 14.985 12.8062C14.9529 12.7823 14.985 12.7032 15.0171 12.6877C15.0454 12.6761 15.0769 12.6746 15.1062 12.6833C15.1375 12.6934 15.1681 12.7056 15.1976 12.72C15.3226 12.78 15.4351 12.8628 15.5293 12.964C15.569 13.0077 15.6032 13.0559 15.6314 13.1077C15.6512 13.1439 15.669 13.1813 15.6845 13.2195C15.6912 13.2376 15.6979 13.2557 15.7045 13.2748C15.7112 13.2938 15.7157 13.3141 15.7219 13.3366C15.7287 13.3613 15.7339 13.3864 15.7375 13.4118C15.7436 13.4429 15.7476 13.4743 15.7496 13.5059C15.7581 13.6452 15.751 13.785 15.7286 13.9228C15.7139 14.0254 15.7081 14.0638 15.7028 14.1023C15.6939 14.1618 15.6819 14.2209 15.6667 14.2791C15.6288 14.425 15.6301 14.4038 15.5864 14.5474C15.5614 14.627 15.5628 14.6358 15.5418 14.7145C15.5383 14.726 15.5079 14.81 15.5017 14.8215C15.4923 14.8414 15.4486 14.94 15.4411 14.9603C15.428 15.0088 15.4101 15.0559 15.3876 15.1009C15.3568 15.1628 15.3113 15.2105 15.2609 15.1813Z" fill="#111111"/>
<path d="M12.878 11.7056C12.8708 11.7208 12.8626 11.7355 12.8535 11.7498C12.8464 11.7648 12.8424 11.7891 12.8366 11.8037C12.8254 11.8324 12.8187 11.8625 12.8072 11.8921L12.7412 12.0508C12.7379 12.057 12.7351 12.0633 12.7327 12.0698L12.7211 12.0994L12.7113 12.1238L12.6819 12.194L12.6796 12.1998C12.6663 12.2321 12.6524 12.2648 12.6408 12.2975C12.6337 12.316 12.6181 12.362 12.6154 12.366C12.6128 12.37 12.6007 12.4151 12.598 12.4221C12.5954 12.4292 12.5954 12.4403 12.5923 12.4544L12.578 12.4951C12.5396 12.6007 12.5044 12.694 12.4634 12.7983C12.449 12.827 12.4365 12.8565 12.4259 12.8867L12.4219 12.9013C12.4014 12.9813 12.3675 13.0499 12.3386 13.1339C12.3261 13.1705 12.3198 13.2665 12.3412 13.2842C12.3533 13.2943 12.3738 13.2899 12.3858 13.2996C12.4157 13.3217 12.4901 13.2833 12.5044 13.2338C12.5187 13.1842 12.5303 13.1281 12.5463 13.0759C12.5584 13.0353 12.5731 12.9946 12.586 12.9539C12.5899 12.9421 12.5934 12.9302 12.5967 12.9181C12.6079 12.8792 12.6074 12.8363 12.6221 12.7997C12.6343 12.7587 12.6492 12.7185 12.6667 12.6794C12.6913 12.6244 12.7122 12.5679 12.7291 12.5101L12.7354 12.5128V12.5097V12.5048C12.763 12.4301 12.7866 12.3532 12.8152 12.2807C12.8375 12.2223 12.8598 12.164 12.8852 12.1039L12.9351 11.9849C12.9695 11.9231 13.014 11.866 13.0426 11.8046C13.0513 11.7869 13.0551 11.7672 13.0537 11.7476C13.051 11.7277 13.0537 11.7237 13.0537 11.7153C13.0447 11.7024 13.0317 11.6928 13.0167 11.6879C12.969 11.6702 12.8901 11.6702 12.878 11.7056Z" fill="#111111"/>
<path d="M13.2101 11.48C13.198 11.5043 13.1583 11.5759 13.1209 11.5613C13.1045 11.5521 13.0918 11.5376 13.0848 11.5202C13.0713 11.4957 13.0594 11.4703 13.0491 11.4442C13.0433 11.4302 13.041 11.415 13.0424 11.4C13.0478 11.362 13.087 11.3332 13.1035 11.3005C13.1428 11.2462 13.1865 11.1952 13.2341 11.148C13.2787 11.0923 13.2908 11.0287 13.3621 11.0273C13.3722 11.0534 13.3746 11.0817 13.3692 11.1091C13.3175 11.2258 13.2636 11.3421 13.2172 11.4628C13.215 11.4685 13.2127 11.4743 13.2101 11.48Z" fill="#111111"/>
<path d="M13.5877 10.7933C13.5753 10.816 13.5562 10.8344 13.5328 10.8459C13.4735 10.8742 13.3803 10.8322 13.4178 10.7574C13.4426 10.7192 13.4726 10.6846 13.507 10.6545C13.5284 10.6301 13.6104 10.5576 13.6269 10.6063C13.6407 10.6452 13.6153 10.7274 13.6024 10.7641C13.5985 10.7743 13.5935 10.784 13.5877 10.7933Z" fill="#111111"/>
<path d="M13.8076 10.4214H13.8036C13.784 10.4099 13.7719 10.3905 13.7554 10.3852C13.7522 10.3846 13.7489 10.3846 13.7456 10.3852C13.7492 10.3846 13.7526 10.3831 13.7554 10.3808L13.8691 10.4006C13.8648 10.4158 13.8569 10.4297 13.8461 10.4413C13.8354 10.4529 13.822 10.4618 13.8072 10.4674C13.7563 10.4811 13.6788 10.4382 13.6828 10.379C13.6897 10.3466 13.709 10.318 13.7367 10.2994L13.8526 10.2959C13.8636 10.3109 13.8701 10.3287 13.8712 10.3471C13.8723 10.3656 13.868 10.384 13.8589 10.4002C13.854 10.409 13.8463 10.4158 13.837 10.4197C13.8277 10.4235 13.8173 10.4242 13.8076 10.4214Z" fill="#111111"/>
<path d="M11.1386 10.7831C11.1344 10.7982 11.1288 10.813 11.1222 10.8273C11.1177 10.8436 11.1177 10.8679 11.115 10.8834C11.1092 10.9139 11.1083 10.9448 11.1021 10.9749L11.0673 11.1433C11.0671 11.1448 11.0671 11.1463 11.0673 11.1478V11.1548V11.1601L11.0629 11.1765C11.0606 11.1839 11.0589 11.1914 11.058 11.199C11.0581 11.2044 11.0574 11.2098 11.0557 11.215C11.0557 11.215 11.0557 11.2264 11.0557 11.2282C11.0557 11.23 11.0584 11.2326 11.0597 11.2362C11.06 11.2394 11.06 11.2427 11.0597 11.2459C11.0562 11.2695 11.0496 11.2925 11.0401 11.3144C11.037 11.321 11.0276 11.3268 11.029 11.3339V11.3374V11.3538L11.0245 11.386C11.021 11.4077 11.0169 11.4302 11.0129 11.4501C11.0024 11.495 10.9944 11.5405 10.9889 11.5863C10.9813 11.6252 11.0027 11.7282 11.0276 11.7379C11.0424 11.7445 11.0611 11.7339 11.0758 11.7379C11.1106 11.749 11.1721 11.6937 11.1725 11.6469C11.173 11.6 11.1725 11.5421 11.1828 11.4886C11.1859 11.4607 11.1904 11.4333 11.1948 11.4055C11.1948 11.3918 11.1997 11.3781 11.202 11.3644C11.2024 11.3614 11.2024 11.3585 11.202 11.3555C11.202 11.3467 11.1895 11.3361 11.1935 11.3281C11.1975 11.3202 11.1913 11.3096 11.1997 11.3012C11.2082 11.2928 11.2073 11.2764 11.2086 11.2636H11.2153C11.218 11.2463 11.2153 11.2287 11.2189 11.2119L11.2247 11.1796L11.2349 11.1287C11.2407 11.1013 11.2461 11.0739 11.2528 11.0465C11.2751 10.9798 11.3067 10.9139 11.3254 10.8507C11.3308 10.8316 11.3308 10.8114 11.3254 10.7923C11.3192 10.7733 11.3254 10.7685 11.3179 10.7609C11.3066 10.7499 11.2921 10.7427 11.2764 10.7406C11.222 10.734 11.144 10.7446 11.1386 10.7831Z" fill="#111111"/>
<path d="M11.4257 10.5036C11.4168 10.5293 11.3914 10.6071 11.3526 10.5987C11.3341 10.5929 11.3184 10.5808 11.308 10.5646C11.2901 10.5426 11.2737 10.5194 11.2589 10.4952C11.2511 10.4828 11.2464 10.4687 11.2451 10.4541C11.2451 10.4157 11.2772 10.3807 11.2897 10.3458C11.3098 10.2821 11.361 10.2335 11.3927 10.1734C11.4244 10.1133 11.4301 10.0465 11.4997 10.0337C11.514 10.0577 11.5208 10.0854 11.5193 10.1133C11.4881 10.2362 11.4538 10.3595 11.4301 10.4851C11.4288 10.4913 11.427 10.4974 11.4257 10.5036Z" fill="#111111"/>
<path d="M11.6853 9.76983C11.6762 9.79329 11.6608 9.81379 11.6407 9.82906C11.5872 9.86619 11.4891 9.83879 11.5136 9.75922C11.5325 9.71779 11.5573 9.67924 11.5872 9.64474C11.6041 9.61689 11.6764 9.53467 11.6996 9.58153C11.7169 9.61777 11.7049 9.70264 11.6969 9.74022C11.6938 9.75036 11.6899 9.76026 11.6853 9.76983Z" fill="#111111"/>
<path d="M11.889 9.23103L11.8926 9.23324C11.9077 9.24527 11.919 9.26145 11.9249 9.27976C11.9309 9.29808 11.9313 9.31772 11.926 9.33625C11.9232 9.35443 11.916 9.37167 11.905 9.38646C11.8939 9.40125 11.8794 9.41315 11.8627 9.42113C11.8146 9.43749 11.733 9.40168 11.7334 9.34155C11.7345 9.32569 11.7399 9.31042 11.749 9.29734C11.7616 9.28132 11.7767 9.2673 11.7936 9.25579C11.8059 9.24371 11.8212 9.23507 11.838 9.23072C11.8547 9.22638 11.8723 9.22648 11.889 9.23103Z" fill="#111111"/>
<path d="M9.4451 11.759C9.44528 11.7753 9.44393 11.7915 9.44109 11.8076C9.44109 11.8244 9.44689 11.8474 9.44778 11.8629C9.44778 11.8934 9.45536 11.9234 9.45625 11.9539V12.0392V12.2603V12.468C9.45625 12.5246 9.45625 12.5812 9.45625 12.6373V13.3548L9.43663 13.5206C9.42994 13.578 9.42192 13.6355 9.41702 13.6934L9.40676 13.8672C9.40676 13.8999 9.4023 13.9441 9.39963 13.9931C9.39695 14.0422 9.39963 14.0957 9.39963 14.1461C9.39963 14.2464 9.39963 14.3344 9.39963 14.349C9.39963 14.3972 9.41657 14.6872 9.42682 14.7358C9.42682 14.7517 9.44154 14.8521 9.45402 14.9489C9.46651 15.043 9.48256 15.1368 9.49861 15.2318C9.62479 15.9621 9.833 16.5916 10.1152 17.271C10.1357 17.3205 10.1563 17.37 10.1763 17.4196C10.1964 17.4691 10.2209 17.5181 10.2401 17.5672L10.3043 17.7135L10.3729 17.8559L10.4175 17.9443C10.4559 18.0168 10.4808 18.0884 10.5165 18.1693C10.5321 18.2047 10.5928 18.2789 10.6204 18.2776C10.6365 18.2776 10.6485 18.2599 10.665 18.2586C10.702 18.2551 10.7305 18.1768 10.7069 18.1304C10.6833 18.084 10.6543 18.0349 10.6289 17.9863C10.6159 17.9606 10.6035 17.935 10.5914 17.9089L10.5736 17.87L10.4652 17.6463C10.3524 17.4054 10.2307 17.1676 10.1384 16.9249C10.0368 16.6672 9.94269 16.4165 9.86154 16.1323C9.75087 15.7537 9.66744 15.3679 9.61186 14.9776C9.61428 14.9782 9.61666 14.9789 9.61899 14.9798L9.61587 14.9582C9.61587 14.9467 9.61319 14.9352 9.61186 14.9237C9.54827 14.4085 9.55142 13.8873 9.62122 13.3729L9.61854 11.9902C9.62479 11.9194 9.64218 11.8487 9.64307 11.7806C9.64369 11.7605 9.63876 11.7407 9.6288 11.7232C9.6181 11.7059 9.62077 11.7006 9.61319 11.6944C9.59967 11.6868 9.58404 11.6837 9.56861 11.6856C9.51332 11.6918 9.44065 11.7214 9.4451 11.759Z" fill="#111111"/>
<path d="M9.64475 11.413C9.64475 11.4404 9.64163 11.523 9.60016 11.5261C9.58139 11.5251 9.56357 11.5176 9.54978 11.5049C9.52658 11.4889 9.50439 11.4715 9.48335 11.4528C9.47205 11.4432 9.46331 11.4311 9.45794 11.4174C9.4459 11.3811 9.46596 11.3391 9.46685 11.302C9.46685 11.2366 9.49806 11.1747 9.50876 11.108C9.51946 11.0412 9.4994 10.9754 9.56048 10.9404C9.57743 10.9581 9.60507 10.9846 9.6073 11.0085C9.62112 11.1358 9.62825 11.2653 9.64207 11.3935C9.6443 11.4002 9.64475 11.4055 9.64475 11.413Z" fill="#111111"/>
<path d="M9.63059 10.6212C9.63225 10.6471 9.62621 10.6729 9.61321 10.6955C9.57799 10.7516 9.47678 10.7631 9.46876 10.6822C9.46848 10.6374 9.47463 10.5927 9.48704 10.5496C9.49194 10.5178 9.51735 10.413 9.55882 10.4435C9.5927 10.4682 9.61856 10.5513 9.62703 10.5898C9.62934 10.6001 9.63053 10.6106 9.63059 10.6212Z" fill="#111111"/>
<path d="M9.67989 10.1025V10.107C9.68077 10.125 9.67804 10.143 9.67186 10.16C9.66821 10.1727 9.66745 10.186 9.66963 10.1989C9.67409 10.2144 9.66607 10.2321 9.63798 10.2471C9.59919 10.2652 9.50424 10.2697 9.4922 10.2029C9.49185 10.1789 9.49809 10.1552 9.51026 10.1344C9.52244 10.1136 9.54008 10.0965 9.5613 10.0849C9.58467 10.07 9.61294 10.0646 9.64021 10.0698C9.64922 10.0711 9.65769 10.0749 9.66469 10.0807C9.67169 10.0864 9.67695 10.094 9.67989 10.1025Z" fill="#111111"/>
<path d="M14.3754 13.7654C14.3731 13.7786 14.3656 13.7826 14.3611 13.7959C14.3566 13.8091 14.3584 13.8237 14.3558 13.8343C14.3513 13.8542 14.3513 13.8759 14.3459 13.8958L14.3161 14.0085L14.3112 14.0231L14.3063 14.047L14.3014 14.0655L14.2862 14.1217V14.1257C14.2791 14.1513 14.2724 14.1765 14.267 14.2026C14.2635 14.2172 14.2577 14.2534 14.2554 14.2565C14.2525 14.2711 14.2507 14.2859 14.2501 14.3007C14.2501 14.3007 14.2501 14.3144 14.2501 14.3259L14.2438 14.3577C14.2264 14.4404 14.2113 14.5138 14.1899 14.5956C14.1815 14.6186 14.1749 14.6423 14.1703 14.6663C14.1621 14.7248 14.1494 14.7826 14.1324 14.8391C14.1266 14.8643 14.1377 14.9276 14.1618 14.9408C14.1756 14.947 14.1952 14.9435 14.2095 14.9492C14.2425 14.9634 14.3085 14.9342 14.3134 14.8997C14.3183 14.8652 14.3201 14.8272 14.3245 14.791C14.329 14.7547 14.3401 14.7163 14.3442 14.6782C14.3421 14.6479 14.3421 14.6175 14.3442 14.5872C14.3486 14.5556 14.3553 14.5245 14.3642 14.4939C14.3779 14.4506 14.3876 14.4063 14.3932 14.3613H14.3999V14.3586V14.3551C14.4124 14.2967 14.42 14.2371 14.4338 14.1809C14.4498 14.1071 14.4703 14.0346 14.49 13.9621C14.5096 13.9179 14.5399 13.8794 14.5542 13.837C14.5595 13.8241 14.5595 13.8096 14.5542 13.7968C14.5479 13.783 14.5519 13.7804 14.5457 13.7742C14.5339 13.7645 14.52 13.7577 14.5051 13.7543C14.4552 13.7428 14.3794 13.7393 14.3754 13.7654Z" fill="#111111"/>
<path d="M14.643 13.6155C14.6368 13.6327 14.6145 13.6818 14.5761 13.6699C14.5588 13.6639 14.5434 13.6534 14.5316 13.6394C14.514 13.6216 14.4975 13.6029 14.4821 13.5832C14.4745 13.5742 14.4693 13.5634 14.4669 13.5518C14.4647 13.524 14.4946 13.505 14.5048 13.482C14.5231 13.4404 14.5672 13.4139 14.5967 13.3772C14.6261 13.3405 14.6256 13.2924 14.6916 13.2972C14.7019 13.3153 14.7184 13.3414 14.7139 13.3578C14.7028 13.3989 14.6894 13.4391 14.6769 13.4798C14.6644 13.5204 14.6533 13.5616 14.6439 13.6031C14.6439 13.6073 14.6436 13.6114 14.643 13.6155Z" fill="#111111"/>
<path d="M14.8519 13.1388C14.8483 13.147 14.8429 13.1543 14.8362 13.1603C14.8296 13.1663 14.8217 13.1709 14.8131 13.1737C14.7645 13.1901 14.6709 13.1507 14.6901 13.0977C14.7016 13.0654 14.7266 13.0534 14.7502 13.0278C14.7654 13.0114 14.8229 12.9628 14.8483 13.0013C14.8646 13.0383 14.8684 13.0796 14.859 13.1189C14.8574 13.1257 14.855 13.1324 14.8519 13.1388Z" fill="#111111"/>
<path d="M14.9664 12.7605L14.9704 12.7627C15.0399 12.799 15.039 12.8954 14.9811 12.906C14.9387 12.9126 14.8598 12.8728 14.8504 12.8282C14.8411 12.7835 14.9129 12.7362 14.9664 12.7605Z" fill="#111111"/>
<path d="M16.7448 20.5768C16.7163 20.6135 16.6624 20.6211 16.5723 20.515C16.5656 20.507 16.5567 20.4708 16.5442 20.4478C16.3917 20.1993 16.2972 20.0172 16.2464 19.9116C16.1701 19.762 16.1026 19.6082 16.0444 19.4509C15.9842 19.2834 16.023 19.3603 15.9691 19.1914C15.9517 19.1344 15.9405 19.0982 15.9276 19.0624C15.9121 19.0197 15.899 18.9761 15.8884 18.932C15.8759 18.8811 15.8656 18.8409 15.8581 18.8055L15.8398 18.7105C15.8277 18.6508 15.8179 18.5907 15.8006 18.4872C15.7916 18.4382 15.7849 18.3887 15.7769 18.3392L15.752 18.192C15.7262 18.0785 15.7345 17.96 15.776 17.8511C15.7921 17.8136 15.8781 17.8343 15.9 17.8591C15.937 17.9002 15.9249 17.9745 15.9191 18.0288C15.9134 18.0832 15.9125 18.1531 15.9138 18.2172C15.9151 18.2813 15.9227 18.3458 15.9307 18.409C15.9526 18.5416 15.9669 18.615 15.9851 18.6853C16.0034 18.7556 16.0212 18.8259 16.0551 18.958C16.089 19.0902 16.1247 19.2233 16.1719 19.3497C16.1916 19.4064 16.2145 19.4618 16.2406 19.5159C16.258 19.5504 16.2714 19.5866 16.3151 19.679C16.377 19.8147 16.3659 19.7971 16.4336 19.9301C16.4733 20.0031 16.4805 20.0066 16.5228 20.0769C16.5286 20.087 16.5741 20.1653 16.5794 20.1746C16.5848 20.1839 16.5995 20.213 16.6151 20.2413C16.6307 20.2696 16.6481 20.2966 16.6543 20.3054C16.6682 20.3253 16.8461 20.5185 16.7448 20.5768Z" fill="#111111"/>
<path d="M15.6254 18.812C15.5947 18.8337 15.5755 18.8169 15.5831 18.7325C15.5907 18.648 15.6179 18.4924 15.6513 18.2214C15.6535 18.2011 15.6624 18.1556 15.6727 18.103C15.683 18.0504 15.6914 17.9902 15.6968 17.9416C15.7424 17.4517 15.7245 16.9581 15.6437 16.4727C15.6142 16.2957 15.571 16.1214 15.5144 15.951C15.473 15.8228 15.4201 15.6985 15.3561 15.5797C15.1778 15.2468 14.9375 15.0536 14.6628 15.005L14.6116 14.9949L14.5589 14.9922L14.5059 14.9891H14.4965H14.4907L14.4635 14.9935C14.4274 15.001 14.3895 15.0041 14.3534 15.0143C14.3173 15.0245 14.2803 15.0329 14.2442 15.0452C14.0875 15.0958 13.9469 15.1864 13.8367 15.3078C13.7621 15.3936 13.7019 15.4906 13.6583 15.5952C13.6275 15.6628 13.6137 15.7052 13.599 15.7464C13.591 15.7667 13.5861 15.7884 13.5785 15.8135C13.5709 15.8387 13.562 15.867 13.5544 15.9046C13.5286 16.0212 13.5109 16.1393 13.5014 16.2583C13.4869 16.4372 13.4824 16.6168 13.488 16.7962C13.4929 16.9488 13.4974 17.1013 13.5049 17.3409C13.5107 17.5522 13.5125 17.7206 13.5076 17.8682C13.5045 17.9421 13.5009 18.0101 13.4947 18.0764C13.4947 18.1092 13.488 18.1414 13.484 18.1737L13.4813 18.1976V18.2095C13.4812 18.2111 13.4812 18.2128 13.4813 18.2144L13.4782 18.2586L13.4715 18.351L13.4679 18.3978V18.4186V18.4372C13.4702 18.5004 13.4724 18.5667 13.4746 18.6379C13.4768 18.709 13.4844 18.786 13.4898 18.8713C13.4951 18.9566 13.5049 19.0481 13.5179 19.1533C13.5625 19.5512 13.6311 19.949 13.6704 20.3539C13.6972 20.6002 13.6991 20.8486 13.6761 21.0953C13.6721 21.1536 13.6614 21.2106 13.6534 21.2663L13.6405 21.349L13.6226 21.4295C13.6102 21.4825 13.5986 21.5342 13.5847 21.5846C13.5709 21.635 13.5531 21.6828 13.537 21.7296C13.4875 21.8715 13.4282 21.7464 13.43 21.6412C13.436 21.5308 13.4476 21.4207 13.4648 21.3114C13.4715 21.25 13.4795 21.1877 13.488 21.1271L13.5045 20.9534C13.5221 20.6989 13.5193 20.4435 13.496 20.1895C13.4746 19.9278 13.4385 19.6634 13.4068 19.4017C13.3716 19.1215 13.3489 18.9053 13.3382 18.721C13.3302 18.629 13.3297 18.5441 13.3253 18.4655C13.3239 18.4441 13.3239 18.4227 13.3253 18.4014L13.3284 18.3439L13.3355 18.2312V18.2029C13.3355 18.1892 13.3355 18.1803 13.3386 18.1715L13.3444 18.1162C13.3493 18.0795 13.3502 18.0415 13.3533 18.0031C13.3578 17.9253 13.36 17.843 13.3605 17.7524C13.3605 17.5707 13.3533 17.3546 13.3449 17.0734C13.3335 16.7889 13.3393 16.504 13.3623 16.2202C13.3756 16.0766 13.3996 15.9342 13.434 15.7941C13.4686 15.6516 13.5226 15.5145 13.5946 15.3865C13.6767 15.2414 13.792 15.1175 13.9312 15.0245C14.0116 14.9707 14.0987 14.9273 14.1902 14.8954C14.2808 14.8643 14.3741 14.8418 14.4689 14.8282C14.4783 14.826 14.4878 14.8247 14.4974 14.8242H14.5233L14.5741 14.8269L14.6289 14.8304C14.6481 14.8304 14.6677 14.837 14.6882 14.8401C14.733 14.8471 14.777 14.858 14.8198 14.8728L14.892 14.8976C14.9161 14.9082 14.9406 14.921 14.966 14.9338C14.9845 14.9422 15.0025 14.9514 15.02 14.9617L15.0645 14.9926C15.093 15.0103 15.1199 15.0301 15.1452 15.0519L15.2108 15.1089C15.2309 15.127 15.2469 15.146 15.263 15.1628L15.3075 15.2119C15.3209 15.2278 15.3325 15.2437 15.3441 15.2588C15.3659 15.2893 15.3887 15.3158 15.407 15.3472L15.464 15.4356C15.4828 15.4683 15.501 15.5041 15.5229 15.5443C15.5447 15.5846 15.5639 15.6327 15.5893 15.6862C15.6023 15.7132 15.6121 15.7437 15.625 15.7746C15.6379 15.8056 15.6517 15.8405 15.6629 15.8781L15.6999 15.9904L15.7262 16.0814C15.7427 16.1363 15.7538 16.1818 15.765 16.2278C15.7761 16.2737 15.7882 16.3193 15.7993 16.375L15.8185 16.4678L15.8381 16.5832C15.843 16.6075 15.8564 16.7123 15.868 16.8179L15.8809 16.9664C15.8831 17.0106 15.8849 17.0425 15.8858 17.0548C15.8858 17.0991 15.8934 17.2361 15.8929 17.3709C15.8929 17.4386 15.8929 17.5062 15.8907 17.5623C15.8885 17.6185 15.8876 17.6636 15.8867 17.6861C15.8839 17.8977 15.8644 18.1088 15.8283 18.3174C15.8083 18.4427 15.775 18.5655 15.7289 18.6838C15.7147 18.7217 15.6952 18.7575 15.6709 18.7899C15.654 18.8125 15.6379 18.8209 15.6254 18.812Z" fill="#111111"/>
<path d="M13.4488 16.6254C13.4729 16.6625 13.4893 16.7098 13.4532 16.7447C13.4506 16.7474 13.4341 16.7403 13.4265 16.7447C13.3373 16.7819 13.2744 16.8035 13.2397 16.8168C13.1804 16.8384 13.1505 16.8544 13.0907 16.8734C13.031 16.8924 13.06 16.8734 13.0087 16.8893C12.9735 16.9008 12.9681 16.9131 12.9347 16.9264C12.8772 16.9512 12.8656 16.9507 12.8112 16.9781C12.7854 16.9911 12.7616 17.0078 12.7407 17.0276C12.7294 17.041 12.7136 17.0499 12.6962 17.0528C12.6737 17.0558 12.6508 17.0529 12.6297 17.0444C12.5962 17.02 12.5696 16.9874 12.5526 16.9498C12.5428 16.9145 12.5749 16.9092 12.5972 16.9056C12.6428 16.8979 12.6869 16.883 12.7278 16.8614C12.8103 16.8194 12.8125 16.8102 12.8959 16.773C12.9405 16.7549 12.9851 16.7465 13.0252 16.731C13.0876 16.7076 13.0698 16.7067 13.1322 16.6829C13.1768 16.6661 13.1723 16.6722 13.2165 16.6541C13.2332 16.6458 13.249 16.6359 13.2637 16.6245C13.2742 16.6189 13.2851 16.6142 13.2963 16.6104C13.3118 16.6071 13.3267 16.6019 13.3409 16.5949C13.3467 16.5922 13.3979 16.5202 13.4488 16.6254Z" fill="#111111"/>
<path d="M11.2111 20.7212C11.2229 20.7445 11.2328 20.7688 11.2405 20.7937C11.2521 20.818 11.2775 20.8472 11.29 20.8693C11.3136 20.9135 11.3453 20.9498 11.3693 20.9926L11.5076 21.2433C11.5744 21.3679 11.6413 21.4842 11.6948 21.5766C11.8067 21.7671 11.9057 21.9302 11.9998 22.0841L12.2517 22.493C12.5005 22.8939 12.7488 23.2931 12.9842 23.6976L13.0386 23.7935L13.0573 23.8249C13.217 24.1047 13.3694 24.3872 13.5086 24.675C13.5447 24.7466 13.5777 24.8191 13.6111 24.8916C13.6445 24.9641 13.6771 25.0371 13.7083 25.1104L13.7319 25.1652L13.744 25.1927L13.7498 25.2064V25.2099C14.0043 25.3792 13.8207 25.2568 13.8777 25.2948C13.9959 25.381 13.7177 25.1767 13.7462 25.198L13.7484 25.205L13.7801 25.32L13.8443 25.549C13.8666 25.6352 13.8889 25.7554 13.9205 25.8863C13.9366 25.9512 13.9468 26.0189 13.958 26.09L13.9923 26.2978C14.0119 26.434 14.0226 26.563 14.0342 26.6612C14.0369 26.6859 14.0396 26.7089 14.0418 26.7297C14.044 26.7505 14.0418 26.7695 14.0445 26.7854L14.048 26.8504C14.048 26.8835 14.0534 26.9582 14.0592 27.0533C14.0632 27.1006 14.0636 27.1536 14.0645 27.2089C14.0654 27.2642 14.0645 27.3225 14.0672 27.3809C14.0717 27.4967 14.0672 27.6134 14.0636 27.7089C14.0601 27.8044 14.0601 27.8799 14.0561 27.914C14.0561 27.9365 14.0494 28.017 14.0427 28.1253C14.0387 28.1797 14.0365 28.2411 14.0298 28.3052L14.0084 28.5041C13.9999 28.5696 13.9945 28.6368 13.9834 28.7L13.9526 28.8949C13.9339 29.0249 13.908 29.1544 13.8817 29.2844C13.6784 30.2905 13.3645 31.2162 13.0065 32.1215C12.6485 33.0269 12.2339 33.9128 11.7902 34.8464C11.5321 35.3892 11.2601 35.9347 11.0216 36.4727L10.911 36.7238L10.8994 36.7521C10.8927 36.768 10.886 36.7835 10.8789 36.799C10.8646 36.8299 10.8495 36.86 10.8343 36.89C10.8027 36.9501 10.7701 37.0112 10.7371 37.0788C10.7099 37.134 10.6823 37.283 10.7121 37.3153C10.73 37.3339 10.763 37.3308 10.7813 37.3484C10.8258 37.3891 10.9484 37.3427 10.9806 37.2671C11.0127 37.1915 11.0421 37.1049 11.076 37.0249L11.4491 36.1973C11.7612 35.5112 12.0693 34.8185 12.3819 34.1479C12.714 33.4322 13.0141 32.7294 13.3271 31.9438C13.7315 30.9271 14.0712 29.8073 14.2277 28.6726C14.2304 28.6765 14.234 28.6783 14.2371 28.6827L14.2447 28.6204C14.2487 28.5868 14.2522 28.5536 14.2563 28.5205C14.3544 27.7684 14.3511 27.0066 14.2464 26.2554C14.2313 26.1621 14.2157 26.0688 14.2019 25.976C14.1952 25.9291 14.1849 25.8832 14.1747 25.8372L14.1439 25.6993C14.1078 25.514 14.0512 25.3346 14.0017 25.1538L13.9972 25.137L13.9945 25.1286V25.1241L13.8786 25.0393L13.9887 25.1126L13.9749 25.0804L13.9473 25.0163L13.8915 24.8881L13.7738 24.6357C13.6931 24.469 13.6098 24.3041 13.5228 24.1423C13.0721 23.2993 12.5419 22.5067 12.0586 21.6977C11.9992 21.5963 11.9397 21.4947 11.8803 21.3927L11.7911 21.2393L11.7193 21.1102L11.6868 21.051C11.6649 21.0121 11.6422 20.9723 11.623 20.933C11.5784 20.83 11.553 20.7186 11.5067 20.6235C11.4932 20.5951 11.4724 20.5707 11.4465 20.5528C11.4193 20.5355 11.4197 20.5258 11.4046 20.5223C11.3796 20.5204 11.3547 20.5268 11.3337 20.5404C11.2614 20.5762 11.1772 20.669 11.2111 20.7212Z" fill="#111111"/>
<path d="M11.2696 20.091C11.2861 20.1308 11.3347 20.2501 11.2785 20.2798C11.2506 20.2899 11.2199 20.2899 11.192 20.2798C11.1477 20.2714 11.104 20.2599 11.0614 20.2453C11.0385 20.2387 11.0179 20.2262 11.0016 20.209C10.9619 20.1622 10.9651 20.087 10.9432 20.0322C10.9058 19.9327 10.9156 19.8236 10.8955 19.717C10.8754 19.6105 10.8117 19.5234 10.8884 19.439C10.9223 19.458 10.974 19.4832 10.9923 19.5181C11.0293 19.595 11.0609 19.6737 11.0993 19.7511L11.1742 19.9075C11.2009 19.9591 11.2281 20.0104 11.2557 20.0614C11.2611 20.0709 11.2657 20.0808 11.2696 20.091Z" fill="#111111"/>
<path d="M10.8602 18.93C10.8711 18.9689 10.8711 19.01 10.8602 19.0489C10.8294 19.1471 10.6792 19.2076 10.6324 19.0838C10.6052 19.0078 10.619 18.9512 10.6128 18.869C10.6065 18.8178 10.6186 18.6445 10.6917 18.6807C10.7285 18.7037 10.7591 18.7353 10.7808 18.7727C10.8051 18.808 10.8267 18.8451 10.8455 18.8836C10.8515 18.8987 10.8564 18.9142 10.8602 18.93Z" fill="#111111"/>
<path d="M10.5646 18.0641H10.5713C10.6943 18.0402 10.7942 18.2263 10.7358 18.3214C10.6939 18.3917 10.5575 18.4279 10.4964 18.3559C10.4353 18.2838 10.4741 18.0906 10.5646 18.0641Z" fill="#111111"/>
<path d="M19.131 24.8088C19.1997 24.7434 19.2817 24.8335 19.3219 25.414C19.3219 25.4356 19.3196 25.4847 19.3161 25.5417C19.3125 25.5988 19.3036 25.6624 19.3027 25.7141C19.2969 26.0183 19.2978 26.3007 19.2808 26.5585C19.2639 26.8162 19.2603 27.0527 19.2412 27.2658C19.222 27.4788 19.2113 27.6676 19.1966 27.8347C19.1819 28.0018 19.1667 28.1441 19.1547 28.2661C19.0753 29.0804 19.0245 29.5322 18.9179 30.3412C18.8189 31.0701 18.8506 30.7183 18.7498 31.4463C18.682 31.9375 18.6794 32.0723 18.6161 32.5634C18.5643 32.994 18.5269 33.2442 18.5015 33.4948C18.4761 33.7455 18.4395 33.9957 18.4029 34.4267C18.3619 34.8383 18.3396 35.2534 18.3254 35.6645C18.3227 35.9266 18.3098 36.1764 18.291 36.4107C18.2796 36.6303 18.2534 36.8488 18.2126 37.0649C18.1822 37.2174 18.0494 37.1113 18.0177 36.9991C17.9914 36.8838 17.9811 36.7656 17.987 36.6476C17.9901 36.515 17.9977 36.3797 18.0119 36.2657C18.0253 36.1362 18.0382 36.0044 18.0498 35.8705C18.0614 35.7365 18.0699 35.6013 18.085 35.4656C18.1002 35.3298 18.1114 35.1928 18.1225 35.0562C18.1336 34.9196 18.1439 34.783 18.1577 34.6477C18.1849 34.3582 18.2023 34.1354 18.2215 33.9475C18.2407 33.7596 18.2554 33.6054 18.271 33.4511C18.2866 33.2968 18.3017 33.1416 18.3231 32.9546C18.3445 32.7677 18.3677 32.5449 18.4065 32.2566C18.4792 31.6793 18.571 31.1042 18.6455 30.5277C18.7026 30.0954 18.7191 29.9318 18.7347 29.7683C18.7503 29.6047 18.7708 29.4416 18.818 29.0084C18.8533 28.6927 18.8706 28.557 18.884 28.4209C18.8974 28.2847 18.9121 28.1486 18.9411 27.8325C18.9661 27.4788 18.9607 27.4528 18.9781 27.1009C18.9821 27.0509 18.9964 26.6747 19.0008 26.6212C19.0035 26.577 19.012 26.4382 19.0205 26.3016C19.0289 26.165 19.0258 26.0284 19.0254 25.9829C19.0254 25.9581 19.0222 25.8711 19.0191 25.7544C19.0191 25.696 19.0169 25.6306 19.0191 25.5616C19.0213 25.4927 19.0151 25.4215 19.0147 25.3503C19.0147 25.0652 19.0387 24.7973 19.131 24.8088Z" fill="#111111"/>
<path d="M39.2551 2.00392C34.0841 -0.421668 27.8893 0.519922 17.4902 0.126046C7.42631 -0.255011 -1.75788 5.50106 0.446432 4.96396C6.61084 3.46095 18.5192 6.17079 23.9876 7.4784C34.1006 9.89824 42.2406 3.40393 39.2551 2.00392Z" fill="#FFDD8B"/>
<path d="M39.0641 4.16289C39.0462 4.1872 39.0297 4.19118 39.0083 4.21373C38.9869 4.23627 38.9736 4.26545 38.9575 4.28357C38.9259 4.31849 38.9 4.35828 38.8683 4.39276C38.8367 4.42724 38.8068 4.45642 38.7747 4.48692L38.7266 4.53112L38.702 4.55411L38.69 4.56516L38.6842 4.57091L38.6811 4.574L38.6713 4.58329L38.6325 4.61688C38.1899 5.00224 37.7123 5.34615 37.2057 5.64423C36.417 6.109 35.5857 6.49858 34.7228 6.80774C34.3708 6.93417 34.0156 7.04969 33.6572 7.15431C33.2987 7.25893 32.9371 7.35147 32.5724 7.43193C30.4147 7.90805 28.189 8.00219 25.9983 7.70998L25.8681 7.69319L25.7343 7.67285L25.4851 7.63528C25.4222 7.62599 25.3785 7.61804 25.3156 7.60743C25.1288 7.57427 24.9416 7.54333 24.7561 7.50398L24.4774 7.44784L24.2001 7.38463C24.0155 7.34396 23.8292 7.29622 23.6437 7.25201L23.0859 7.11939C22.3428 6.94257 21.5984 6.77164 20.8526 6.6066C19.3612 6.27417 17.8654 5.96208 16.3642 5.68092C15.5171 5.52001 14.0489 5.26053 12.738 5.06558C12.4108 5.0143 12.0924 4.97274 11.7977 4.92942C11.503 4.8861 11.2297 4.85427 10.9921 4.82244C10.5163 4.76232 10.1806 4.72475 10.0852 4.71193C9.92648 4.69292 9.56934 4.65534 9.11279 4.60849L8.36509 4.54085L7.54114 4.4794L6.71497 4.43254L5.96237 4.40337C5.50135 4.39541 5.13932 4.38657 4.97569 4.39011C4.86779 4.39011 4.47989 4.38745 3.9569 4.40867C3.69563 4.41309 3.40092 4.43652 3.09061 4.45288C3.01303 4.45642 2.93456 4.46393 2.85564 4.47145L2.61666 4.49355C2.45615 4.50858 2.29431 4.52096 2.1338 4.54439L1.65985 4.6107L1.19126 4.68894L1.07444 4.70839L1.01559 4.71856L0.961196 4.73005L0.742727 4.77779C0.60897 4.80609 0.404768 4.85206 0.41101 4.84852C0.400798 4.84985 0.390457 4.84985 0.380246 4.84852C0.377583 4.84832 0.374989 4.84758 0.372615 4.84637C0.370242 4.84516 0.368137 4.84348 0.366424 4.84145C0.365318 4.83918 0.364743 4.83668 0.364743 4.83416C0.364743 4.83163 0.365318 4.82914 0.366424 4.82686C0.376896 4.80977 0.390507 4.79478 0.406551 4.78266L0.418143 4.77249L0.442219 4.75304L0.483684 4.72077L0.52827 4.68673C0.589352 4.64252 0.652664 4.59832 0.716421 4.55411C0.974126 4.38127 1.24342 4.22301 1.51629 4.07094C2.04641 3.77697 2.58902 3.51041 3.13475 3.26108C3.68047 3.01176 4.232 2.78101 4.78441 2.56484C5.89192 2.13339 7.00835 1.76058 8.13369 1.44642C10.3839 0.817371 12.6627 0.408464 14.9597 0.27452C15.5337 0.240923 16.1084 0.226188 16.6839 0.230314C16.9715 0.230314 17.2586 0.239155 17.5471 0.250206L18.4142 0.279825C19.5735 0.316663 20.7386 0.341271 21.9098 0.353649C23.0815 0.367353 24.2608 0.370889 25.4521 0.373984C26.6434 0.377078 27.8463 0.37973 29.0635 0.402275C29.7709 0.415537 30.4796 0.439261 31.1894 0.473447C31.8974 0.508812 32.605 0.558323 33.3067 0.633473C34.7103 0.781564 36.0956 1.02602 37.4037 1.43847L37.7091 1.53616L38.0101 1.64402C38.2116 1.71254 38.4073 1.79477 38.6035 1.87301L38.6271 1.8823H38.6303H38.6361L38.6481 1.88672C38.6641 1.89246 38.6797 1.89865 38.6954 1.90528C38.7266 1.9181 38.756 1.93402 38.7845 1.94949C38.8443 1.98088 38.904 2.01447 38.97 2.04807C39.0244 2.07503 39.1724 2.10509 39.2063 2.07636C39.2259 2.05956 39.2241 2.02685 39.2433 2.00917C39.2879 1.9685 39.2433 1.84472 39.1666 1.81068C39.0899 1.77664 39.0021 1.74526 38.9205 1.71033L38.7943 1.65375L38.7301 1.62723L38.3734 1.484C38.2397 1.43184 38.1059 1.38675 37.9748 1.33812C37.908 1.31469 37.8411 1.28905 37.7747 1.26739L37.5727 1.20241C37.4389 1.1582 37.3052 1.11399 37.1678 1.0773C36.6261 0.914624 36.0746 0.789963 35.5222 0.679448C34.6419 0.51351 33.7534 0.393546 32.8604 0.320052C31.9687 0.244018 31.077 0.202906 30.1902 0.177266C28.4135 0.127756 26.6483 0.138365 24.9055 0.13306C23.9767 0.129966 23.0556 0.126871 22.1349 0.118472C21.2142 0.110073 20.2926 0.0954852 19.3635 0.0742662C18.9047 0.0632147 18.437 0.0521632 17.9684 0.0344808L17.2604 0.0106095C17.0227 0.00442061 16.7842 0 16.5448 0C15.5683 0.00029981 14.5925 0.0503186 13.6213 0.149859C11.0509 0.411117 8.44668 1.01188 5.91689 1.89335C4.64535 2.33346 3.4031 2.85274 2.19756 3.44808C1.89616 3.59882 1.59743 3.75752 1.30317 3.92152C1.0064 4.08561 0.718429 4.26489 0.440436 4.45863C0.405659 4.48382 0.370883 4.50902 0.336552 4.53555L0.310692 4.55544L0.280374 4.57975L0.248272 4.60583L0.207699 4.64076C0.17961 4.66374 0.15598 4.6885 0.130566 4.71237C0.108323 4.73559 0.0874799 4.7601 0.0681461 4.78575C0.0359632 4.82572 0.0138063 4.87268 0.00349694 4.92279C-0.00116565 4.9451 -0.00116565 4.96812 0.00349694 4.99043C0.00980449 5.01611 0.0243561 5.03907 0.0449616 5.05585C0.0812761 5.08523 0.125425 5.10351 0.172031 5.10846C0.233777 5.11448 0.296072 5.1118 0.357061 5.1005L0.409226 5.09033L0.451582 5.08149L0.516232 5.06779L1.03209 4.95506C1.19839 4.92456 1.36024 4.89936 1.52253 4.87107C1.50514 4.87726 1.50068 4.88168 1.4824 4.88831C1.57871 4.87284 1.67189 4.85427 1.76909 4.8441L2.23099 4.78531C3.10424 4.69252 3.98197 4.64751 4.86021 4.65048C5.73899 4.65048 6.61867 4.68319 7.49656 4.73889C9.25234 4.85958 11.001 5.06734 12.7354 5.32816C16.205 5.85156 19.6203 6.56947 22.9602 7.35413C23.5037 7.48011 24.0445 7.61936 24.596 7.73032C25.1476 7.84128 25.7018 7.93367 26.26 7.99556C27.3774 8.12479 28.5041 8.15674 29.6271 8.09104C30.7502 8.02524 31.8652 7.85969 32.9585 7.59637C33.5048 7.46464 34.0439 7.30653 34.5756 7.12204C35.1069 6.93949 35.6278 6.72861 36.1361 6.49034C36.6464 6.25264 37.141 5.98303 37.6168 5.68314C37.854 5.53107 38.0859 5.37104 38.3106 5.2004L38.4778 5.07088L38.6414 4.93826C38.6958 4.89406 38.748 4.84543 38.8015 4.79901L38.8411 4.76409L38.8465 4.75923L38.8969 4.71149L38.9976 4.61688C39.0868 4.54218 39.188 4.48073 39.2652 4.39585C39.2875 4.37241 39.3029 4.34337 39.3097 4.31186C39.3151 4.27915 39.3245 4.27517 39.3218 4.2597C39.3137 4.23634 39.298 4.2163 39.2772 4.20267C39.2143 4.15537 39.0989 4.11603 39.0641 4.16289Z" fill="#111111"/>
<path d="M39.6562 3.92228C39.6357 3.95284 39.6119 3.98114 39.5853 4.00672C39.5546 4.03501 39.5185 4.05092 39.4921 4.03457C39.4689 4.01596 39.4532 3.9898 39.4476 3.96074C39.4351 3.91875 39.419 3.87543 39.4101 3.83255C39.4034 3.81075 39.4025 3.78761 39.4074 3.76535C39.4244 3.71054 39.4832 3.67208 39.514 3.62478C39.5657 3.5399 39.6527 3.47934 39.7097 3.3896C39.7668 3.29987 39.7655 3.19819 39.8725 3.16504C39.8903 3.19864 39.9247 3.25345 39.9131 3.29368C39.8595 3.50368 39.7784 3.7058 39.6718 3.89488C39.6674 3.9046 39.662 3.91388 39.6562 3.92228Z" fill="#111111"/>
<path d="M39.9911 2.62396C40.0054 2.66898 40.0037 2.71753 39.9862 2.76144C39.9385 2.86886 39.7779 2.87373 39.7565 2.7663C39.7483 2.73651 39.7447 2.70566 39.7458 2.6748C39.7473 2.6601 39.7473 2.64529 39.7458 2.63059C39.7458 2.61467 39.7426 2.59832 39.7395 2.58063C39.7364 2.56295 39.7239 2.51035 39.723 2.46525C39.7218 2.44611 39.7235 2.4269 39.7279 2.40823C39.7305 2.40048 39.7358 2.3939 39.7428 2.38968C39.7498 2.38546 39.7582 2.38388 39.7663 2.38524C39.8117 2.39433 39.8528 2.41812 39.8832 2.45288C39.8935 2.46193 39.9032 2.47168 39.9121 2.48205C39.9206 2.49266 39.9282 2.50327 39.9353 2.51388C39.9501 2.53466 39.9621 2.55455 39.9715 2.57047C39.9808 2.58719 39.9874 2.60523 39.9911 2.62396Z" fill="#111111"/>
<path d="M39.251 2.01736V2.01073C39.2698 1.95105 39.3349 1.92673 39.4062 1.93381C39.4242 1.93573 39.442 1.93943 39.4592 1.94486C39.4761 1.95124 39.4921 1.95955 39.507 1.96961C39.5349 1.98664 39.5569 2.0118 39.5698 2.04167C39.5988 2.13009 39.5136 2.24149 39.4294 2.23707C39.4062 2.23608 39.3838 2.22857 39.3647 2.2154C39.3427 2.19951 39.3224 2.18144 39.3041 2.16147C39.2847 2.1431 39.2698 2.12055 39.2606 2.09555C39.2514 2.07056 39.2481 2.04381 39.251 2.01736Z" fill="#111111"/>
<path d="M19.0644 22.7614C19.0521 22.7377 19.0417 22.7132 19.0332 22.688C19.0174 22.662 19.0001 22.6369 18.9814 22.6128C18.9547 22.5708 18.9217 22.5333 18.8958 22.4908C18.8472 22.4117 18.7982 22.3357 18.7474 22.2552C18.7331 22.2322 18.7188 22.211 18.7077 22.1938C18.6832 22.1593 18.6631 22.1288 18.6426 22.1005C18.6221 22.0722 18.6074 22.0505 18.5895 22.0253C18.5369 21.9515 18.4857 21.8768 18.4313 21.8043L18.4183 21.7871L18.4143 21.7813C18.3773 21.7309 18.3399 21.6818 18.3011 21.6332C18.2623 21.5846 18.2248 21.5351 18.1843 21.4882C18.1397 21.4347 18.0278 21.3034 18.0184 21.2911C18.0037 21.2694 17.8967 21.1584 17.8788 21.1381L17.7964 21.0581L17.6938 20.9449C17.4299 20.6505 17.1891 20.3959 16.9278 20.105C16.852 20.0201 16.7829 19.9282 16.7049 19.849L16.6679 19.8115C16.5798 19.7172 16.4971 19.6181 16.42 19.5148C16.3817 19.468 16.2599 19.3795 16.2171 19.3924C16.1926 19.3999 16.1806 19.4304 16.1561 19.4392C16.0999 19.4587 16.0878 19.5895 16.144 19.6523C16.2002 19.7151 16.2671 19.7779 16.3268 19.8424C16.3745 19.8928 16.4191 19.9454 16.4659 19.9958C16.4967 20.0289 16.5275 20.0612 16.5582 20.093C16.6585 20.196 16.7736 20.2853 16.8667 20.3901C16.9599 20.4949 17.0741 20.5979 17.1748 20.7217C17.3055 20.8817 17.4588 21.0364 17.602 21.1951L17.5926 21.2009L17.6006 21.2097L17.6131 21.2239C17.7995 21.4343 17.9881 21.6447 18.1562 21.8596C18.2641 22.0001 18.3697 22.1416 18.4683 22.2884L18.5405 22.3958L18.5762 22.4519L18.6466 22.5651C18.6711 22.6146 18.6912 22.6677 18.7095 22.7185C18.7278 22.7693 18.7483 22.8206 18.7714 22.8679C18.7851 22.8958 18.8062 22.9193 18.8325 22.936C18.8602 22.9523 18.8602 22.9616 18.8749 22.9652C18.8997 22.967 18.9245 22.9606 18.9453 22.947C19.0176 22.9073 19.1 22.8135 19.0644 22.7614Z" fill="#111111"/>
<path d="M18.9937 23.3893C18.9808 23.3491 18.9358 23.2311 18.9937 23.2028C19.0217 23.1928 19.0523 23.1928 19.0802 23.2028C19.1244 23.2128 19.1678 23.2261 19.21 23.2426C19.2326 23.2501 19.2527 23.2637 19.2679 23.2819C19.3054 23.3319 19.2983 23.4079 19.317 23.4649C19.3442 23.5693 19.3295 23.6776 19.3339 23.7868C19.3384 23.8959 19.3892 23.9923 19.3027 24.0635C19.2719 24.0396 19.2233 24.0096 19.2135 23.9711C19.1602 23.7807 19.091 23.5949 19.0067 23.4159C19.0026 23.407 18.9991 23.3982 18.9937 23.3893Z" fill="#111111"/>
<path d="M19.233 24.5629C19.2299 24.5234 19.2388 24.4838 19.2584 24.4493C19.3111 24.3609 19.4707 24.3308 19.4881 24.4647C19.4931 24.5008 19.4914 24.5375 19.4832 24.5731C19.4752 24.6071 19.4645 24.6407 19.4569 24.6809C19.4493 24.7232 19.4355 24.7642 19.4159 24.8025C19.3918 24.8432 19.3623 24.8697 19.332 24.8427C19.2874 24.7985 19.2482 24.6694 19.2375 24.6111C19.2344 24.5952 19.2329 24.5791 19.233 24.5629Z" fill="#111111"/>
<path d="M19.2615 25.4677H19.2548C19.2248 25.4604 19.1978 25.4441 19.1774 25.4211C19.157 25.3981 19.1442 25.3695 19.1407 25.339C19.133 25.31 19.1328 25.2795 19.1402 25.2505C19.1476 25.2214 19.1624 25.1946 19.1831 25.1728C19.2441 25.1202 19.3855 25.1259 19.4212 25.2143C19.4399 25.2585 19.4212 25.3213 19.3891 25.3753C19.357 25.4292 19.3092 25.4699 19.2615 25.4677Z" fill="#111111"/>
<path d="M27.3125 17.7222C27.3091 17.7066 27.3073 17.6908 27.3071 17.6749C27.3044 17.6589 27.2946 17.6382 27.2911 17.6231C27.2844 17.5944 27.2741 17.5666 27.2688 17.5374C27.2594 17.4834 27.2532 17.4277 27.2478 17.3738C27.2483 17.3709 27.2483 17.3679 27.2478 17.365L27.2456 17.3517V17.3411C27.2456 17.33 27.2456 17.3194 27.2456 17.3088C27.2456 17.3088 27.2456 17.3088 27.2456 17.3062C27.2456 17.2916 27.2456 17.277 27.2456 17.262C27.2442 17.2519 27.2434 17.2417 27.2434 17.2315C27.2434 17.2284 27.2385 17.2102 27.2385 17.2072C27.2385 17.2041 27.2344 17.1996 27.2322 17.1935V17.1753C27.2306 17.1298 27.233 17.0843 27.2393 17.0392C27.2416 17.0255 27.2505 17.0118 27.2483 16.9985V16.9923V16.9751V16.9441C27.2483 16.9233 27.2523 16.903 27.255 16.8827C27.2608 16.8416 27.2688 16.8005 27.2764 16.7554C27.2817 16.7187 27.2764 16.6272 27.2514 16.6117C27.238 16.6028 27.2184 16.6095 27.2041 16.6011C27.172 16.5816 27.1029 16.6298 27.0958 16.6833C27.0887 16.7368 27.0869 16.7956 27.0829 16.8517C27.0829 16.8809 27.0784 16.9101 27.0762 16.9401V16.9844C27.0762 16.991 27.0762 16.9963 27.0762 17.002C27.0762 17.0202 27.0904 17.0387 27.0882 17.056C27.086 17.0732 27.0931 17.0931 27.0882 17.113C27.0835 17.1398 27.0835 17.1671 27.0882 17.1939H27.0815V17.1961C27.0815 17.2319 27.0895 17.2673 27.0927 17.3022L27.0985 17.3698L27.1047 17.4313C27.1069 17.4605 27.1109 17.4892 27.115 17.5197C27.1136 17.592 27.1171 17.6644 27.1252 17.7363C27.129 17.7566 27.1383 17.7755 27.152 17.7911C27.1658 17.8062 27.164 17.8119 27.1734 17.8163C27.1878 17.8213 27.2035 17.8213 27.2179 17.8163C27.2594 17.8009 27.3245 17.7566 27.3125 17.7222Z" fill="#111111"/>
<path d="M27.3998 18.0501H27.3873H27.3677C27.344 18.0527 27.3186 18.0545 27.2954 18.0549C27.2509 18.0549 27.2174 18.0492 27.2303 18.0275C27.2475 18.0057 27.2673 17.9859 27.2892 17.9687C27.3133 17.9484 27.3326 17.923 27.3458 17.8944C27.3489 17.8887 27.3458 17.8834 27.3521 17.8785C27.3571 17.8733 27.363 17.869 27.3695 17.8657C27.4042 17.8489 27.4493 17.8626 27.4858 17.8577C27.5518 17.8498 27.6173 17.871 27.686 17.8723C27.7547 17.8737 27.8157 17.8449 27.8603 17.8997C27.8452 17.9188 27.8247 17.9488 27.7992 17.9554C27.6735 17.9864 27.5456 18.0116 27.4189 18.0439L27.3998 18.0501Z" fill="#111111"/>
<path d="M28.1892 17.9258C28.1635 17.9313 28.1368 17.9288 28.1125 17.9187C28.0514 17.8926 28.026 17.7945 28.1058 17.7751C28.1502 17.769 28.1952 17.769 28.2396 17.7751C28.2717 17.7751 28.38 17.7861 28.3555 17.8312C28.3354 17.8674 28.2561 17.9046 28.2191 17.9196C28.2093 17.9225 28.1993 17.9245 28.1892 17.9258Z" fill="#111111"/>
<path d="M28.7333 17.7111L28.7365 17.7142C28.7429 17.7225 28.7475 17.732 28.7501 17.7422C28.7527 17.7523 28.7532 17.7628 28.7516 17.7732C28.75 17.7835 28.7462 17.7934 28.7407 17.8022C28.7351 17.8111 28.7277 17.8187 28.7191 17.8247C28.7033 17.8415 28.6832 17.8536 28.6609 17.8597C28.6386 17.8657 28.615 17.8656 28.5928 17.8592C28.5802 17.8522 28.5693 17.8427 28.5608 17.8312C28.5522 17.8197 28.5462 17.8065 28.5432 17.7925C28.5402 17.7785 28.5403 17.7641 28.5434 17.7501C28.5465 17.7362 28.5525 17.723 28.5612 17.7116C28.585 17.6931 28.6149 17.6841 28.645 17.6864C28.6764 17.6846 28.7075 17.6934 28.7333 17.7111Z" fill="#111111"/>
<path d="M14.6133 16.9853C14.5974 16.9869 14.5815 16.9869 14.5656 16.9853C14.5491 16.9853 14.5273 16.9955 14.5121 16.9977C14.4827 17.0021 14.4537 17.0109 14.4229 17.014C14.3676 17.0193 14.3115 17.0229 14.258 17.0237H14.192C14.1813 17.0237 14.1706 17.0237 14.1603 17.0237C14.1303 17.0218 14.1005 17.0175 14.0711 17.0109H14.064H14.0618C14.0238 17.0025 13.9868 16.9899 13.9516 16.9734C13.9281 16.9631 13.9063 16.9494 13.887 16.9327C13.8798 16.9254 13.8719 16.9189 13.8634 16.9132L13.8402 16.892L13.8148 16.8673C13.8063 16.8544 13.7974 16.8407 13.7898 16.8266C13.7374 16.7068 13.7161 16.576 13.7278 16.446C13.7278 16.4049 13.739 16.3629 13.7381 16.3222V16.3023C13.7381 16.2205 13.7514 16.1463 13.759 16.0587C13.7626 16.0207 13.7456 15.9261 13.7207 15.9146C13.706 15.9071 13.6872 15.9146 13.6725 15.9098C13.6382 15.8947 13.5753 15.9495 13.5731 16.0013C13.5709 16.053 13.5731 16.1109 13.5731 16.1657C13.5731 16.2099 13.5682 16.2541 13.5664 16.2952C13.5664 16.3116 13.5664 16.3288 13.5664 16.3461C13.5664 16.4009 13.5798 16.4566 13.5793 16.511C13.5789 16.5653 13.5914 16.6259 13.5963 16.6878C13.6051 16.7777 13.6365 16.8641 13.6877 16.9389L13.6814 16.9415L13.6841 16.9464L13.6895 16.953C13.7246 17.0057 13.7701 17.0508 13.8232 17.0856C13.8754 17.1178 13.9322 17.1418 13.9918 17.1568C14.0803 17.1778 14.1714 17.1869 14.2624 17.1838C14.307 17.1838 14.3516 17.1807 14.3962 17.1776C14.4685 17.1835 14.5412 17.1849 14.6138 17.1816C14.6343 17.1796 14.6539 17.1721 14.6704 17.1599C14.6864 17.1471 14.6927 17.1488 14.6976 17.1404C14.7034 17.1264 14.7043 17.1109 14.7003 17.0962C14.6891 17.0432 14.6494 16.9751 14.6133 16.9853Z" fill="#111111"/>
<path d="M14.9929 17.1192C14.9648 17.1263 14.8806 17.14 14.8699 17.1015C14.8674 17.0829 14.8713 17.0641 14.881 17.048C14.893 17.0228 14.9046 16.9972 14.9189 16.9733C14.9257 16.9605 14.9353 16.9495 14.947 16.941C14.9787 16.922 15.0215 16.9313 15.0536 16.9211C15.1084 16.903 15.1695 16.9065 15.223 16.8703C15.2463 16.851 15.2668 16.8287 15.2841 16.804C15.2923 16.7921 15.303 16.7821 15.3153 16.7744C15.3277 16.7668 15.3415 16.7618 15.3559 16.7598C15.3696 16.7872 15.3725 16.8188 15.3639 16.8482C15.3302 16.9181 15.2782 16.9776 15.2132 17.0206C15.1508 17.06 15.0835 17.0911 15.013 17.113C15.0064 17.1154 14.9997 17.1175 14.9929 17.1192Z" fill="#111111"/>
<path d="M15.4909 16.4507C15.4901 16.4775 15.4811 16.5033 15.4651 16.5249C15.4205 16.5789 15.3215 16.5691 15.3233 16.494C15.3283 16.4501 15.3387 16.4071 15.3545 16.3658C15.3621 16.3349 15.3964 16.2332 15.4352 16.2663C15.4669 16.2937 15.4851 16.3791 15.49 16.418C15.4915 16.4288 15.4918 16.4398 15.4909 16.4507Z" fill="#111111"/>
<path d="M15.443 15.8697H15.447C15.5264 15.8662 15.5669 15.997 15.5179 16.05C15.4822 16.0889 15.3935 16.0911 15.3659 16.0399C15.3382 15.9886 15.3823 15.8768 15.443 15.8697Z" fill="#111111"/>
<path d="M10.8891 12.4779C10.8901 12.4802 10.8904 12.4828 10.89 12.4854C10.8895 12.4879 10.8882 12.4902 10.8864 12.492C10.8794 12.496 10.8713 12.4979 10.8632 12.4973C10.8262 12.4968 10.7893 12.4916 10.7536 12.4819C10.7062 12.4715 10.658 12.4655 10.6095 12.4637C10.5569 12.4611 10.4999 12.4615 10.4482 12.4593C10.4296 12.4603 10.4111 12.4574 10.3938 12.4509C10.3808 12.439 10.4009 12.431 10.4196 12.4239C10.4638 12.4163 10.5087 12.4146 10.5534 12.4186C10.6225 12.4231 10.7027 12.4301 10.7763 12.4399C10.8003 12.4422 10.8239 12.4472 10.8467 12.4549C10.8673 12.4664 10.8815 12.4664 10.8891 12.4779Z" fill="#111111"/>
<path d="M11.1718 14.8027C11.1726 14.8053 11.1725 14.8081 11.1715 14.8106C11.1704 14.8131 11.1685 14.8151 11.166 14.8164C11.1576 14.8179 11.149 14.8179 11.1406 14.8164C11.1067 14.8164 11.0644 14.8234 11.0144 14.8225C10.9645 14.8217 10.89 14.8062 10.8383 14.8035C10.7768 14.7982 10.7086 14.7991 10.6471 14.7956C10.6251 14.7961 10.6032 14.7927 10.5824 14.7854C10.5681 14.7731 10.5922 14.7655 10.6145 14.7594C10.6667 14.7531 10.7195 14.7522 10.7719 14.7567C10.8129 14.7598 10.8575 14.7638 10.9021 14.77C10.9436 14.7784 10.9861 14.7807 11.0283 14.7766C11.0578 14.7724 11.0879 14.7724 11.1174 14.7766C11.1464 14.7823 11.1642 14.789 11.1718 14.8027Z" fill="#111111"/>
<path d="M12.3367 11.9476C12.3323 11.9516 12.3247 11.9476 12.322 11.9445C12.319 11.9404 12.315 11.9371 12.3104 11.9348C12.2976 11.9284 12.284 11.9239 12.2698 11.9215C12.2502 11.9169 12.2308 11.911 12.2119 11.9039C12.17 11.8879 12.1111 11.8725 12.0665 11.8597C12.0135 11.8451 11.955 11.8305 11.9047 11.8119C11.8859 11.807 11.8684 11.7981 11.8534 11.7858C11.8449 11.7704 11.8677 11.7695 11.8877 11.769C11.9332 11.7763 11.9779 11.7874 12.0215 11.8022C12.0888 11.8243 12.1682 11.8464 12.24 11.8636C12.2654 11.8681 12.29 11.8766 12.3126 11.8888C12.3239 11.8959 12.3332 11.9057 12.3398 11.9171C12.3426 11.9219 12.3438 11.9274 12.3433 11.9329C12.3427 11.9384 12.3404 11.9435 12.3367 11.9476Z" fill="#111111"/>
<path d="M12.3353 14.7292C12.337 14.7313 12.3379 14.7338 12.3379 14.7365C12.3379 14.7392 12.337 14.7417 12.3353 14.7438C12.3274 14.7489 12.3184 14.752 12.309 14.7526C12.2645 14.7577 12.2196 14.7577 12.1752 14.7526C12.1158 14.7495 12.0563 14.7495 11.9969 14.7526C11.9326 14.7548 11.8631 14.7592 11.8002 14.7588C11.778 14.7606 11.7556 14.7584 11.7342 14.7522C11.7191 14.7407 11.7432 14.7319 11.7654 14.7243C11.8182 14.7155 11.8716 14.7115 11.9251 14.7124L12.1926 14.7093C12.2212 14.7083 12.2498 14.7096 12.2782 14.7133C12.3054 14.7208 12.3232 14.7208 12.3353 14.7292Z" fill="#111111"/>
<path d="M13.7725 13.2147C13.7676 13.2195 13.7605 13.2147 13.7578 13.2116C13.7551 13.2085 13.7516 13.2116 13.7458 13.2116C13.7168 13.2032 13.6894 13.1902 13.6646 13.1731C13.6301 13.1525 13.5939 13.1349 13.5563 13.1205C13.5157 13.1037 13.4703 13.0891 13.4306 13.0723C13.4132 13.0644 13.3936 13.056 13.3909 13.0484C13.3847 13.0339 13.4029 13.0316 13.4199 13.0308C13.457 13.0362 13.493 13.0471 13.5269 13.063C13.5804 13.086 13.6419 13.1125 13.6967 13.1386C13.715 13.1468 13.7323 13.1572 13.748 13.1696C13.7547 13.1762 13.7614 13.1802 13.7685 13.1881C13.772 13.1915 13.7742 13.196 13.7749 13.2007C13.7757 13.2055 13.7748 13.2104 13.7725 13.2147Z" fill="#111111"/>
<path d="M13.5892 15.3003C13.579 15.295 13.5892 15.2879 13.5892 15.2866C13.5892 15.2852 13.5892 15.2826 13.5861 15.2817H13.5901L13.5848 15.2839V15.2861C13.5848 15.2861 13.5745 15.2861 13.5647 15.2861L13.5357 15.2826C13.5161 15.2799 13.4956 15.276 13.4747 15.2711C13.4301 15.2605 13.3672 15.2538 13.3191 15.2463C13.26 15.2397 13.2019 15.2261 13.1461 15.2057C13.1265 15.1996 13.1086 15.189 13.0939 15.1747C13.0873 15.1584 13.1104 15.1601 13.1305 15.1615C13.1724 15.1707 13.2197 15.1831 13.2642 15.1937C13.3408 15.2095 13.4182 15.2212 13.4961 15.2287C13.5217 15.2312 13.547 15.2365 13.5714 15.2446L13.5884 15.2508C13.5961 15.2533 13.6029 15.2581 13.608 15.2645C13.6114 15.2686 13.6133 15.2737 13.6133 15.279C13.6137 15.2835 13.6124 15.2879 13.6098 15.2914C13.6078 15.2949 13.6047 15.2977 13.601 15.2993C13.5973 15.3009 13.5932 15.3012 13.5892 15.3003Z" fill="#111111"/>
<path d="M15.0785 18.9938C15.08 18.9941 15.0814 18.9948 15.0825 18.9958C15.0837 18.9968 15.0845 18.9981 15.085 18.9995C15.0855 19.001 15.0855 19.0025 15.0851 19.004C15.0848 19.0055 15.084 19.0069 15.083 19.0079C15.0694 19.0167 15.0542 19.0229 15.0384 19.0261C14.9621 19.0468 14.8834 19.0576 14.8043 19.0583C14.7002 19.0612 14.596 19.0585 14.4922 19.0504C14.3812 19.0393 14.2541 19.0261 14.1529 18.969C14.1165 18.9513 14.0857 18.9241 14.0637 18.8903C14.0557 18.8634 14.0896 18.8903 14.1225 18.908C14.2005 18.9519 14.2861 18.9807 14.3749 18.9929C14.5252 19.0184 14.6782 19.0247 14.8301 19.0115C14.8747 19.0075 14.9403 19 14.9764 18.9978C15.0102 18.9932 15.0444 18.9918 15.0785 18.9938Z" fill="#111111"/>
<path d="M24.077 15.2512C24.079 15.253 24.0804 15.2553 24.081 15.2579C24.0817 15.2605 24.0815 15.2633 24.0805 15.2658C24.0755 15.2724 24.0685 15.2774 24.0605 15.2799C24.0233 15.2944 23.9836 15.3015 23.9437 15.3007C23.8925 15.3015 23.8414 15.3052 23.7907 15.3117C23.7362 15.3191 23.6825 15.3313 23.6302 15.348C23.6131 15.3558 23.5949 15.3608 23.5762 15.3626C23.5588 15.3582 23.5735 15.3418 23.5891 15.3268C23.6295 15.301 23.6753 15.2847 23.7229 15.279C23.7961 15.2675 23.8799 15.264 23.9535 15.2543C23.9774 15.2508 24.0015 15.2485 24.0257 15.2477C24.052 15.2481 24.0658 15.2432 24.077 15.2512Z" fill="#111111"/>
<path d="M24.2872 16.8825C24.289 16.8845 24.2899 16.8871 24.2899 16.8898C24.2899 16.8925 24.289 16.8951 24.2872 16.8971C24.2795 16.9029 24.2704 16.9066 24.2609 16.9077C24.2168 16.9161 24.172 16.9201 24.1271 16.9196C24.0673 16.9218 24.0077 16.9282 23.9488 16.9386C23.885 16.9497 23.815 16.9656 23.7535 16.977C23.7316 16.9831 23.7088 16.9853 23.6862 16.9837C23.6684 16.9757 23.6906 16.962 23.7116 16.9501C23.763 16.9308 23.8164 16.9172 23.8708 16.9094C23.9546 16.8957 24.0527 16.882 24.1414 16.8736C24.171 16.8701 24.2008 16.8692 24.2305 16.871C24.25 16.8709 24.2693 16.8748 24.2872 16.8825Z" fill="#111111"/>
<path d="M26.2286 13.5091C26.2309 13.5106 26.2326 13.513 26.2332 13.5157C26.2339 13.5184 26.2335 13.5212 26.2321 13.5237C26.2245 13.5309 26.2151 13.5362 26.2049 13.5391C26.157 13.5563 26.1076 13.5691 26.0574 13.5776C25.9918 13.5913 25.9271 13.6091 25.8639 13.6311C25.7952 13.6541 25.7212 13.6833 25.6539 13.7067C25.6307 13.7166 25.6062 13.7232 25.5812 13.7261C25.5607 13.7213 25.5839 13.7036 25.6053 13.6877C25.659 13.6588 25.7155 13.6351 25.7738 13.6169C25.863 13.5873 25.9691 13.5551 26.0654 13.5285C26.0969 13.5194 26.1291 13.5129 26.1617 13.5091C26.1838 13.5048 26.2065 13.5048 26.2286 13.5091Z" fill="#111111"/>
<path d="M26.5507 15.9098C26.5521 15.9103 26.5533 15.9111 26.5543 15.9122C26.5553 15.9133 26.5561 15.9146 26.5565 15.9161C26.5569 15.9175 26.5569 15.919 26.5566 15.9204C26.5563 15.9219 26.5556 15.9232 26.5547 15.9244C26.5438 15.9322 26.5315 15.938 26.5186 15.9416C26.455 15.9628 26.3903 15.98 26.3246 15.9934C26.2386 16.0129 26.1539 16.0375 26.0709 16.0672C25.9817 16.0981 25.8841 16.137 25.7963 16.1702C25.7769 16.1779 25.7571 16.1846 25.737 16.1901C25.7233 16.194 25.7087 16.194 25.6951 16.1901C25.6835 16.1834 25.6888 16.179 25.6986 16.1746C25.7118 16.1689 25.7246 16.1624 25.737 16.1552C25.8078 16.1187 25.8813 16.0875 25.9568 16.0619C26.0745 16.0212 26.2123 15.977 26.338 15.9425C26.3791 15.9305 26.4209 15.9214 26.4633 15.9151C26.492 15.9091 26.5214 15.9073 26.5507 15.9098Z" fill="#111111"/>
<path d="M28.2039 13.1516C28.2053 13.1538 28.2061 13.1563 28.2061 13.1589C28.2061 13.1615 28.2053 13.1641 28.2039 13.1662C28.1976 13.1715 28.1898 13.1748 28.1816 13.1755C28.1442 13.182 28.1062 13.184 28.0683 13.1813C28.0187 13.1799 27.969 13.1827 27.9198 13.1897C27.8663 13.1958 27.8088 13.2065 27.7562 13.2126C27.7375 13.2164 27.7183 13.2164 27.6996 13.2126C27.6849 13.2029 27.704 13.1914 27.7214 13.1817C27.7647 13.1671 27.8096 13.1578 27.8552 13.1538C27.9256 13.1463 28.0077 13.1388 28.0821 13.1348C28.1064 13.1321 28.131 13.1321 28.1553 13.1348C28.1784 13.1424 28.1936 13.1419 28.2039 13.1516Z" fill="#111111"/>
<path d="M28.4768 15.634C28.4774 15.6365 28.4773 15.6391 28.4765 15.6416C28.4756 15.644 28.474 15.6462 28.4719 15.6477C28.4634 15.6501 28.4545 15.6501 28.446 15.6477C28.4058 15.6403 28.3663 15.6291 28.3283 15.6141C28.2774 15.5969 28.225 15.5845 28.1718 15.577C28.1143 15.5686 28.051 15.5646 27.9934 15.5588C27.973 15.5587 27.9528 15.555 27.9337 15.5478C27.9203 15.5354 27.9431 15.5279 27.964 15.5222C28.0136 15.5168 28.0637 15.5183 28.1129 15.5266C28.1948 15.5381 28.276 15.5543 28.3559 15.5752C28.382 15.5816 28.4072 15.5908 28.4313 15.6026C28.4545 15.6159 28.4696 15.6212 28.4768 15.634Z" fill="#111111"/>
<path d="M29.9233 13.1169C29.9245 13.1177 29.9254 13.1188 29.9261 13.12C29.9268 13.1213 29.9271 13.1227 29.9271 13.1242C29.9271 13.1256 29.9268 13.127 29.9261 13.1283C29.9254 13.1295 29.9245 13.1306 29.9233 13.1314C29.9113 13.1358 29.8985 13.1376 29.8858 13.1368C29.8319 13.1368 29.7667 13.1337 29.7008 13.1301C29.6194 13.1273 29.5379 13.1331 29.4577 13.1474C29.369 13.1639 29.2814 13.1861 29.1956 13.2137C29.1668 13.2247 29.1369 13.2324 29.1064 13.2367C29.0827 13.2331 29.1117 13.2132 29.1389 13.1956C29.2068 13.163 29.2785 13.1392 29.3525 13.1248C29.4749 13.0989 29.5997 13.0856 29.7248 13.085C29.7652 13.0845 29.8055 13.0876 29.8452 13.0943C29.8724 13.0971 29.8988 13.1048 29.9233 13.1169Z" fill="#111111"/>
<path d="M30.0001 15.5513C30.0008 15.5525 30.0013 15.5539 30.0014 15.5553C30.0015 15.5568 30.0012 15.5582 30.0007 15.5595C30.0001 15.5609 29.9992 15.5621 29.9981 15.563C29.997 15.5639 29.9957 15.5646 29.9943 15.565C29.982 15.5656 29.9698 15.5638 29.9582 15.5597C29.9069 15.5451 29.8467 15.5225 29.7865 15.4986C29.7116 15.4704 29.6344 15.4488 29.5556 15.4341C29.4704 15.4173 29.3773 15.4067 29.2912 15.3974C29.261 15.396 29.2311 15.3911 29.2021 15.3828C29.1824 15.3696 29.2168 15.3634 29.2466 15.3585C29.3203 15.356 29.394 15.3616 29.4664 15.3753C29.5873 15.3965 29.7065 15.426 29.8231 15.4637C29.8607 15.4754 29.8972 15.4902 29.9323 15.5079C29.9573 15.5183 29.9803 15.5329 30.0001 15.5513Z" fill="#111111"/>
<path d="M25.8429 20.6963C25.8568 20.6963 25.8563 20.7065 25.847 20.7105C25.8212 20.7201 25.7944 20.7269 25.7671 20.7308C25.6468 20.7543 25.497 20.775 25.3458 20.7905C25.1817 20.8073 24.9592 20.8374 24.7894 20.859C24.583 20.8897 24.3747 20.9065 24.166 20.9094C24.0961 20.9108 24.0263 20.9056 23.9574 20.894C23.9128 20.8785 23.9913 20.8772 24.0621 20.8727C24.216 20.8701 24.3921 20.859 24.5624 20.8427C24.8219 20.817 25.1224 20.775 25.3931 20.7388C25.4773 20.7273 25.5946 20.7118 25.6606 20.707C25.7211 20.6993 25.782 20.6958 25.8429 20.6963Z" fill="#111111"/>
</svg>
