<svg width="43" height="37" viewBox="0 0 43 37" fill="none" xmlns="http://www.w3.org/2000/svg">
<g clip-path="url(#clip0)">
<path d="M0.908801 5.1373L9.72237 3.94728C9.92431 3.8174 10.1434 3.7141 10.3738 3.64009C10.9888 3.44166 11.3682 3.56207 12.3537 3.40418C12.8307 3.32738 12.9553 3.2641 13.0358 3.15843C13.1699 2.97965 13.0817 2.76954 12.9719 2.16132C12.802 1.19923 12.5548 0.909252 12.7484 0.610057C12.8569 0.441107 13.0869 0.367384 13.5467 0.219937C14.064 0.0534445 14.3418 -0.0356381 14.5634 0.0866201C14.8189 0.225466 14.8119 0.537562 14.9466 1.23056C15.0371 1.68722 15.1549 2.1385 15.2992 2.58216L24.1338 1.11445C24.3433 1.0567 25.1729 0.853959 26.0498 1.26865C27.2109 1.82158 27.4632 2.98887 27.4907 3.12587C30.139 8.36475 32.7879 13.6036 35.4376 18.8425C35.4376 18.8425 40.9301 28.8996 42.6296 30.2647C44.329 31.6299 39.6687 32.7916 39.6687 32.7916C39.6687 32.7916 28.7303 33.7033 28.2213 34.5118C27.7123 35.3203 15.6971 36.8513 15.6971 36.8513C15.2302 36.933 14.4478 36.9951 13.8871 36.557C13.518 36.2683 13.3966 35.8812 13.3046 35.6134C12.9725 34.6458 12.3422 33.7943 11.9583 32.8444C11.2865 31.182 10.674 30.2266 9.63871 28.1139C8.10591 24.9904 7.16516 22.4175 5.9766 19.4317C4.9062 16.7469 3.29996 12.8777 1.07741 8.0844L0.208825 6.0957C0.208825 6.0957 0.0383014 4.98616 0.908801 5.1373Z" fill="#FFDD8B"/>
<path d="M4.42763 8.03665C4.79682 7.88918 5.17599 7.76603 5.56254 7.66803C6.50712 7.43027 6.62464 7.5642 7.34058 7.3289C7.88792 7.14889 8.17084 6.95414 8.34903 7.08868C8.52722 7.22323 8.3337 7.49048 8.5055 7.7565C8.77885 8.17856 9.67426 8.13064 10.1456 8.03665C10.5052 7.96415 10.5179 7.8849 11.0346 7.7565C11.376 7.67134 11.725 7.61704 12.0769 7.5943C13.2265 7.50399 13.6097 7.17347 15.2805 6.91851C16.3419 6.75386 16.4147 6.8497 17.6486 6.63836C18.3512 6.51548 18.1327 6.51978 19.2197 6.31397C20.1982 6.12966 20.4332 6.12966 20.6759 5.91587C21.1466 5.50854 21.2322 4.88066 21.243 4.493C21.8451 4.26296 22.4869 4.14456 23.1348 4.14404C25.3829 4.15203 26.9961 5.6566 27.9567 6.59412C28.7499 7.36822 29.9704 8.76589 30.8537 10.9291L33.4722 17.0776C35.7516 22.6493 37.2346 25.9816 37.8892 26.9418C37.9812 27.0757 38.2986 27.5175 38.1651 27.9592C37.9971 28.5121 37.2071 28.7677 36.707 28.8807C35.2295 29.4865 33.721 30.0196 32.1872 30.4781C29.1676 31.3806 26.7656 31.7805 24.8528 32.0926C23.0754 32.3285 21.5566 32.5288 20.0475 32.734C20.0475 32.734 19.5448 32.8022 17.5758 32.8336C16.6504 32.8477 15.8687 32.8336 15.3111 32.3242C15.1951 32.2162 15.0945 32.0936 15.0122 31.9599C14.3212 30.9075 13.9092 30.5862 13.2188 29.6211C11.755 27.574 10.2529 24.3793 10.2529 24.3793C9.24572 22.2401 8.68625 20.6772 8.11145 19.1234C7.33675 17.0346 6.19865 14.0592 4.68182 10.3995L3.90201 8.83286C3.86184 8.75818 3.8394 8.67585 3.83631 8.59181C3.83321 8.50778 3.84955 8.42413 3.88413 8.3469C3.9333 8.24976 4.01098 8.16861 4.10758 8.11347C4.20417 8.05833 4.31544 8.03162 4.42763 8.03665Z" fill="#FFFAF0"/>
<path d="M13.0091 4.08561C13.0796 3.86557 13.1105 3.63555 13.1005 3.4055C13.0919 3.17213 13.0654 2.93968 13.0213 2.71004C13.0008 2.59393 12.9785 2.47843 12.9574 2.36231C12.9363 2.2462 12.9025 2.13684 12.8706 2.02319C12.8067 1.79587 12.7384 1.56671 12.6892 1.33203C12.6632 1.21348 12.6453 1.09342 12.6355 0.972623C12.62 0.844129 12.6349 0.713929 12.679 0.591718C12.6861 0.574886 12.6946 0.558651 12.7045 0.543183C12.715 0.52636 12.7275 0.510702 12.7415 0.496491C12.7658 0.471677 12.7928 0.449434 12.822 0.43014C12.8758 0.394733 12.9324 0.363506 12.9913 0.336757C13.1053 0.285124 13.2224 0.239993 13.3419 0.201597C13.5786 0.125192 13.8215 0.0676576 14.068 0.0295746C14.1935 0.00883775 14.3207 -0.00103159 14.4481 8.51547e-05C14.5182 0.000120793 14.5879 0.0111178 14.6543 0.0326464C14.6924 0.0479357 14.7263 0.0714852 14.7533 0.101455C14.7775 0.128023 14.7989 0.156834 14.8172 0.187466C14.8822 0.316145 14.9295 0.452465 14.9577 0.592946C14.989 0.727492 15.0126 0.860809 15.0337 0.994126C15.0548 1.12744 15.0739 1.26137 15.0976 1.39653C15.1212 1.53169 15.1372 1.6687 15.1685 1.8014C15.3837 2.58164 15.5906 2.89865 15.8161 3.18741C15.8736 3.26051 15.9342 3.32994 16.0013 3.40428C16.0351 3.44114 16.0715 3.47677 16.1086 3.51609C16.1456 3.55541 16.1871 3.59289 16.2331 3.62975C16.332 3.71777 16.4442 3.79089 16.5659 3.84662C16.7273 3.91532 16.9005 3.95469 17.0768 3.96273C17.1253 3.96765 17.246 3.97379 17.4044 3.97563C17.5628 3.97748 17.7589 3.97563 17.9537 3.97563C18.3452 3.9701 18.7373 3.95536 18.8414 3.95106C19.0483 3.94307 19.2629 3.92956 19.4609 3.91543C19.5593 3.90867 19.6583 3.89884 19.7547 3.89515C19.8511 3.89147 19.9463 3.89024 20.0447 3.89147H20.2401H20.3372C20.3671 3.89025 20.3969 3.88758 20.4266 3.88348C20.4904 3.87611 20.5543 3.86321 20.6182 3.85153C20.6889 3.83719 20.7606 3.82775 20.8328 3.82327C20.8693 3.82148 20.9058 3.82585 20.9407 3.83617C20.9652 3.84129 20.9875 3.85351 21.0046 3.87119C20.9918 3.88041 21.0308 3.92403 21.0269 3.97133C21.0266 3.98758 21.0222 4.00351 21.0142 4.01782C21.0062 4.03214 20.9948 4.04442 20.9809 4.05366C20.977 4.05577 20.9724 4.05638 20.968 4.05535C20.9636 4.05433 20.9598 4.05175 20.9573 4.04813C20.9509 4.04076 20.9458 4.02417 20.9362 4.01004C20.9267 3.99591 20.926 3.99898 20.9222 4.00082C20.9133 4.00206 20.9043 4.00206 20.8954 4.00082C20.8345 4.00667 20.7743 4.0184 20.7159 4.03584C20.6412 4.05489 20.5524 4.08131 20.4438 4.09728C20.4164 4.10158 20.3883 4.10588 20.357 4.10834L20.2733 4.11387C20.2171 4.11387 20.1596 4.11817 20.1021 4.11878H19.756C19.6991 4.11878 19.6436 4.11878 19.5893 4.12308L19.4207 4.13107C18.9947 4.15073 18.5662 4.16916 18.137 4.17776C17.9241 4.18186 17.7091 4.18329 17.4919 4.18206C17.2697 4.18599 17.0476 4.17036 16.8284 4.13537C16.5971 4.09383 16.3803 3.99708 16.198 3.85399C16.0257 3.71648 15.8705 3.56021 15.7356 3.3883C15.5972 3.22129 15.4757 3.0419 15.3728 2.85258C15.2729 2.66362 15.1889 2.4672 15.1218 2.26524C15.0969 2.19214 15.0733 2.11964 15.0516 2.04653C15.0299 1.97342 15.0069 1.90461 14.9877 1.82167C14.9532 1.66624 14.9334 1.51818 14.9098 1.3695C14.8725 1.07644 14.8173 0.785746 14.7444 0.498949C14.7248 0.433266 14.6998 0.369174 14.6697 0.307267C14.6575 0.281352 14.6428 0.256657 14.6256 0.233543C14.6154 0.219052 14.6006 0.208075 14.5835 0.202211C14.5212 0.185218 14.4564 0.178366 14.3919 0.181937C14.3184 0.183588 14.245 0.189126 14.1722 0.198525C13.8715 0.238331 13.5761 0.308553 13.2908 0.408023C13.2199 0.433212 13.1503 0.459629 13.0832 0.489733C13.0191 0.51699 12.9581 0.550549 12.9012 0.589875C12.8201 0.635337 12.8035 0.779713 12.8073 0.916716C12.8201 1.19871 12.8974 1.48992 12.9747 1.77683C13.0143 1.9212 13.057 2.06496 13.0941 2.21425C13.103 2.25111 13.112 2.29166 13.119 2.32914L13.1401 2.43972L13.1816 2.66212C13.2416 2.96355 13.2698 3.27003 13.2659 3.57691C13.2626 3.70689 13.2466 3.83628 13.218 3.96335C13.1906 4.09151 13.1453 4.21551 13.0832 4.33197C13.0523 4.39108 13.0173 4.44814 12.9785 4.50276C12.9392 4.55582 12.8965 4.6065 12.8508 4.65451C12.7596 4.74939 12.6576 4.83409 12.5468 4.90701C12.3293 5.04864 12.0947 5.16418 11.8481 5.25105C11.6048 5.33783 11.3569 5.41186 11.1053 5.47284C10.6972 5.57482 10.2182 5.66575 9.82413 5.74193C9.43008 5.81811 9.12543 5.88876 9.03027 5.87463C9.07497 5.84148 9.12445 5.81478 9.17717 5.79538C9.2736 5.75053 9.40964 5.69708 9.55334 5.64732C9.8401 5.54718 10.1518 5.45748 10.2246 5.44028C10.48 5.38314 10.8881 5.29222 11.0018 5.27624C11.3004 5.23656 11.5932 5.16357 11.8742 5.05876C12.1885 4.94141 12.5129 4.76939 12.7409 4.5261C12.8622 4.39956 12.9537 4.2493 13.0091 4.08561Z" fill="#111111"/>
<path d="M10.8569 7.74817C11.6405 7.58782 12.4191 7.40351 13.2014 7.23272C13.5923 7.14732 13.9844 7.06377 14.3798 6.99496C14.7751 6.92615 15.1717 6.86533 15.569 6.81065C16.0339 6.74921 16.4695 6.69945 16.9434 6.63494C17.6261 6.54156 17.9358 6.49057 18.245 6.4365C18.3995 6.41009 18.5534 6.3806 18.7559 6.34312L19.0957 6.27677C19.2234 6.25035 19.3748 6.22762 19.5427 6.19936C19.7764 6.16753 20.0068 6.11613 20.2312 6.04577C20.3654 6.00068 20.492 5.93671 20.6067 5.85593C20.6756 5.80734 20.738 5.75081 20.7926 5.6876C20.8917 5.5697 20.9601 5.43066 20.9918 5.28212C21.0226 5.14067 21.0385 4.99658 21.0391 4.85207C21.044 4.75255 21.0425 4.65283 21.0346 4.55349C21.0284 4.45607 21.0108 4.35963 20.9823 4.26597C20.9725 4.23902 20.9667 4.2109 20.965 4.18241C20.9797 4.1775 20.9887 4.15231 20.9912 4.12589C20.9912 4.10079 20.9946 4.07579 21.0014 4.05155C21.0091 4.03435 21.0257 4.03005 21.0653 4.06507C21.1349 4.13702 21.1846 4.22472 21.2096 4.32003C21.3073 4.66745 21.3027 5.03416 21.1962 5.37919C21.1828 5.42297 21.1671 5.46603 21.149 5.5082C21.1306 5.5515 21.1093 5.59357 21.0851 5.63415C21.073 5.65504 21.0627 5.67654 21.0493 5.69558L21.0065 5.75702C20.9934 5.77705 20.9782 5.79578 20.9612 5.81293L20.9139 5.86576C20.7823 6.00133 20.6235 6.1098 20.4471 6.18462C20.1009 6.33268 19.7401 6.37568 19.3984 6.43036C19.3122 6.44326 19.2279 6.45678 19.1429 6.47152L18.8874 6.51821C18.715 6.54955 18.5419 6.57965 18.3695 6.60607C18.0233 6.66198 17.6772 6.71051 17.3317 6.75966C16.3219 6.90096 15.3122 7.01278 14.3153 7.18603C13.8177 7.27204 13.3215 7.37709 12.8259 7.48338L11.3384 7.81083L10.726 7.94108C10.5299 7.98347 10.3319 8.0406 10.1307 8.09159C9.92683 8.14644 9.71918 8.1875 9.50931 8.21447C9.39987 8.22827 9.28933 8.23218 9.17913 8.22614C9.12228 8.22184 9.06544 8.21201 9.00924 8.20402C8.98114 8.19788 8.95304 8.18866 8.9243 8.18129C8.8958 8.17427 8.86802 8.16481 8.84127 8.15303C8.74792 8.11532 8.66327 8.0602 8.59219 7.99084C8.57431 7.97302 8.55451 7.95582 8.53855 7.93678L8.49384 7.87534L8.47149 7.84462L8.4536 7.81267L8.41848 7.74755C8.34484 7.58285 8.29954 7.40772 8.28436 7.22903C8.26989 7.09127 8.26477 6.95274 8.26903 6.81434C8.26567 6.73731 8.27849 6.66041 8.30671 6.58825C8.31501 6.57596 8.36738 6.79283 8.41975 7.02322C8.44594 7.13811 8.47851 7.25422 8.50789 7.34576C8.5245 7.39122 8.53663 7.43177 8.5494 7.46249C8.56218 7.49321 8.57176 7.51594 8.57559 7.52884C8.60976 7.62606 8.66 7.71734 8.7244 7.79916C8.74228 7.81575 8.75888 7.83295 8.77421 7.84954C8.78961 7.86375 8.80604 7.87689 8.82339 7.88885C8.84685 7.90774 8.87183 7.92479 8.89811 7.93985C8.98305 7.99513 9.08049 8.0301 9.18232 8.04183C9.3098 8.05582 9.43865 8.05355 9.56552 8.03507C9.84933 7.98879 10.1298 7.92539 10.4054 7.84523C10.5503 7.81083 10.7049 7.77704 10.8569 7.74817Z" fill="#111111"/>
<path d="M9.65851 3.93801C9.72025 3.82615 9.81731 3.73602 9.93569 3.68059C10.0441 3.6263 10.1582 3.58326 10.2761 3.55219C10.5052 3.4924 10.7392 3.4513 10.9754 3.42931C11.1128 3.41518 11.2418 3.40965 11.3804 3.39368C11.7808 3.3476 11.7457 3.3433 12.1404 3.28002L12.346 3.24685C12.4373 3.23087 12.5274 3.21306 12.5504 3.20691C12.5977 3.19646 12.6438 3.18186 12.6883 3.16329C12.7311 3.14609 12.7656 3.1209 12.8078 3.10554C12.864 3.08588 12.9234 3.0693 12.9789 3.05025C12.9898 3.04595 13.0077 3.05025 13.0102 3.05025C13.023 3.07913 13.0613 3.09817 13.0818 3.12336C13.1022 3.14855 13.1035 3.1848 13.0319 3.24132C12.9431 3.30249 12.8433 3.34747 12.7375 3.37402C12.3275 3.48338 11.9136 3.50857 11.5081 3.55465C11.2124 3.58782 10.9167 3.61117 10.6286 3.65479C10.4864 3.6759 10.346 3.7069 10.2084 3.74756C10.0805 3.78062 9.96324 3.84398 9.86735 3.93187C9.83658 3.96308 9.8138 4.00076 9.80082 4.04193C9.78785 4.0831 9.78505 4.12662 9.79263 4.16901C9.81264 4.27063 9.85275 4.36762 9.91078 4.45469C10.0047 4.61074 10.1771 4.79812 10.1273 4.89396C10.077 4.88506 10.0291 4.86623 9.98678 4.83867C9.93283 4.81095 9.88209 4.77779 9.83542 4.73976C9.81076 4.71151 9.78773 4.68197 9.76644 4.65129C9.74964 4.62751 9.73672 4.60141 9.72812 4.57388C9.71404 4.498 9.69265 4.42355 9.66426 4.35148C9.63157 4.26579 9.61639 4.17484 9.61955 4.08361C9.62322 4.0332 9.63642 3.98386 9.65851 3.93801Z" fill="#111111"/>
<path d="M16.8845 2.172C16.9291 2.1682 16.9739 2.16656 17.0186 2.16709L17.0863 2.172C17.1091 2.17305 17.1317 2.17593 17.154 2.1806C17.2443 2.19534 17.3309 2.22618 17.4095 2.27153C17.4886 2.31628 17.559 2.37386 17.6177 2.44171C17.6759 2.5061 17.726 2.57682 17.7671 2.65243C17.8163 2.73844 17.8495 2.82384 17.8949 2.9117C18.0175 3.16727 18.0136 3.1427 18.1414 3.39028C18.1561 3.42039 18.2544 3.62006 18.2736 3.6477C18.2904 3.67698 18.3105 3.70438 18.3336 3.72941C18.3553 3.75399 18.3834 3.77058 18.4032 3.79576C18.423 3.82095 18.4479 3.86887 18.4703 3.90451C18.4725 3.90824 18.4737 3.91248 18.4737 3.91679C18.4737 3.92111 18.4725 3.92535 18.4703 3.92908C18.4166 3.9641 18.4064 4.07038 18.2908 4.00158C18.2279 3.95684 18.1756 3.89965 18.1375 3.83386C17.9772 3.58135 17.8821 3.30612 17.7626 3.05238C17.6764 2.86808 17.5928 2.68377 17.4701 2.54308C17.4126 2.47365 17.3398 2.41741 17.2568 2.37843C17.1724 2.34197 17.0804 2.32493 16.988 2.32866C16.8256 2.33643 16.6654 2.36685 16.5122 2.41898C16.4442 2.44304 16.3749 2.46355 16.3046 2.48041C16.2774 2.49154 16.2475 2.4953 16.2183 2.49129C16.189 2.48729 16.1614 2.47566 16.1385 2.45768C16.1258 2.44601 16.2612 2.27337 16.2886 2.2617C16.3305 2.2381 16.3775 2.22422 16.4259 2.22115C16.5313 2.24695 16.6565 2.19965 16.7836 2.18367C16.8168 2.1763 16.8513 2.17569 16.8845 2.172Z" fill="#111111"/>
<path d="M12.3348 33.2793C12.3184 33.2472 12.3045 33.2139 12.2933 33.1798C12.2773 33.1466 12.2428 33.1054 12.2256 33.0753C12.193 33.0139 12.1508 32.9629 12.1189 32.9027L12.0327 32.735L11.9356 32.5402C11.7989 32.2638 11.6699 32.0014 11.5671 31.7925C11.35 31.3625 11.1762 30.981 11.007 30.6289L10.5599 29.6785C10.1333 28.7379 9.70412 27.798 9.29601 26.8494L9.19638 26.6264L9.16381 26.5526C8.59732 25.249 8.0487 23.9385 7.50329 22.6287C7.19545 21.8915 6.44247 20.0668 6.37732 19.9003C6.26939 19.6238 5.58219 17.9847 5.46659 17.7046L4.95183 16.4906L4.27229 14.8681C3.39285 12.7663 2.52938 10.7918 1.61928 8.83808C1.5056 8.59233 1.39213 8.34802 1.27887 8.10514L1.24566 8.03387L1.24055 8.00377C1.23672 7.98473 1.23353 7.96568 1.22842 7.94786C1.21163 7.87623 1.1903 7.80565 1.16455 7.73652C1.11432 7.60501 1.05719 7.47604 0.993391 7.35009C0.870129 7.10434 0.737926 6.8672 0.618496 6.62944C0.496407 6.4046 0.406601 6.16485 0.351535 5.91678C0.328438 5.81042 0.333267 5.70019 0.365585 5.59608L0.37772 5.56168L0.394964 5.52973C0.406875 5.50824 0.420543 5.4877 0.435838 5.46829C0.452444 5.44986 0.469688 5.43143 0.488209 5.41423L0.504175 5.40194C0.504175 5.40194 0.509923 5.39703 0.513755 5.39703L0.902063 5.31962C1.04129 5.29197 1.18116 5.26801 1.32103 5.24221C1.88113 5.14268 2.45082 5.0579 3.03009 4.97619C4.37639 4.79188 5.75271 4.65057 7.07219 4.42326C7.27784 4.38517 7.48285 4.35199 7.6853 4.31206L7.7332 4.30162C7.75747 4.29609 7.78174 4.29117 7.80537 4.28749C7.85391 4.27888 7.90181 4.27151 7.95099 4.26537C8.04807 4.2537 8.1477 4.24202 8.25499 4.22421C8.34313 4.20946 8.54239 4.12099 8.55453 4.0614C8.56219 4.02638 8.5309 3.99198 8.53601 3.95696C8.54878 3.87648 8.39039 3.77265 8.27543 3.79845C8.16047 3.82425 8.03401 3.85989 7.91203 3.88569C7.84816 3.89859 7.7843 3.90904 7.72043 3.92071L7.62399 3.93791L7.54352 3.95327L7.44453 3.9717L7.24654 4.00611C7.11434 4.02884 6.98214 4.0528 6.84993 4.07369C6.5851 4.1171 6.31984 4.15806 6.05416 4.19656C4.36489 4.44722 2.65647 4.65549 1.00042 4.96451C0.889928 4.98356 0.780717 5.00691 0.670866 5.02595L0.510562 5.0622L0.411569 5.08247L0.37772 5.08923C0.37195 5.08963 0.366314 5.09109 0.361115 5.09353L0.347064 5.10397L0.2915 5.14882C0.182648 5.23415 0.0995135 5.34594 0.0507244 5.47259C0.0071925 5.59408 -0.0091314 5.72305 0.00282467 5.85104C0.012599 5.96832 0.0361673 6.08415 0.0730776 6.19631C0.107368 6.30387 0.147879 6.4095 0.194424 6.51271C0.284475 6.71668 0.386023 6.9102 0.490125 7.10188C0.594227 7.29357 0.696413 7.48279 0.781994 7.67509C0.825698 7.7687 0.863032 7.86495 0.89376 7.96322L0.911642 8.03449L0.928886 8.12787C0.955072 8.18439 0.981257 8.24092 1.0068 8.29744C1.19265 8.70046 1.3817 9.11024 1.57457 9.52985C2.55428 11.7121 3.5621 14.0337 4.51881 16.3345C4.51115 16.3284 4.5054 16.3278 4.4971 16.3216C4.51434 16.364 4.53159 16.4052 4.54947 16.4445C4.57757 16.5115 4.60503 16.5784 4.63377 16.646C5.88875 19.6773 7.13158 22.7356 8.39294 25.6772C8.5954 26.1564 8.80616 26.6325 9.015 27.1099C9.22385 27.5872 9.43141 28.064 9.64919 28.5376C9.86698 29.0113 10.0765 29.4875 10.2968 29.9599L10.9648 31.3729L11.7523 32.9703C11.8098 33.1171 11.8417 33.2775 11.9094 33.412C11.9292 33.452 11.9596 33.4864 11.9976 33.5115C12.0372 33.5349 12.0372 33.5484 12.0614 33.5533C12.0973 33.5561 12.1332 33.547 12.163 33.5275C12.262 33.4777 12.3827 33.3493 12.3348 33.2793Z" fill="#111111"/>
<path d="M12.2825 34.1584C12.2532 34.1044 12.1752 33.9372 12.2538 33.8936C12.2931 33.877 12.3372 33.8744 12.3783 33.8863C12.443 33.8953 12.507 33.9082 12.5699 33.925C12.6025 33.9324 12.6326 33.9476 12.6574 33.9692C12.7213 34.0306 12.7213 34.132 12.7577 34.2051C12.8216 34.3354 12.8216 34.4871 12.8708 34.6296C12.9199 34.7722 13.0234 34.8791 12.9346 35.0118C12.8823 34.9934 12.8024 34.9725 12.7699 34.9239C12.6115 34.6849 12.4652 34.4367 12.3055 34.1959C12.297 34.1839 12.2894 34.1714 12.2825 34.1584Z" fill="#111111"/>
<path d="M13.1371 35.7007C13.1059 35.6516 13.0906 35.5948 13.093 35.5373C13.1032 35.3923 13.2955 35.2682 13.3989 35.4181C13.4628 35.5091 13.4628 35.5902 13.5037 35.6946C13.5273 35.761 13.5886 35.9913 13.4724 35.9748C13.3779 35.9612 13.2367 35.8255 13.1786 35.7585C13.1631 35.7404 13.1492 35.7211 13.1371 35.7007Z" fill="#111111"/>
<path d="M13.9523 36.7197L13.9446 36.7259C13.799 36.8279 13.5614 36.6343 13.5857 36.4801C13.6055 36.3652 13.7722 36.2546 13.8878 36.3167C14.0034 36.3787 14.0551 36.6331 13.9523 36.7197Z" fill="#111111"/>
<path d="M21.818 35.744C23.322 35.4368 24.8197 35.118 26.3218 34.7998C26.6973 34.7193 27.0729 34.6431 27.442 34.554C27.8112 34.4649 28.1822 34.3697 28.552 34.2745C29.2916 34.081 30.0331 33.8807 30.7873 33.7265C31.2306 33.6362 31.6642 33.5661 32.1036 33.5176L32.4338 33.4863L32.7634 33.458C32.9839 33.4396 33.2077 33.4191 33.4346 33.3966C34.749 33.262 35.3455 33.1797 35.942 33.098L36.9236 32.9561L37.5808 32.8578C37.8299 32.8197 38.1116 32.7804 38.4322 32.7226C38.5874 32.6956 39.1851 32.5893 39.7734 32.4388C40.0665 32.3644 40.3565 32.2797 40.5896 32.2022C40.8227 32.1248 40.9996 32.0573 41.073 32.0278C41.363 31.9154 41.6384 31.7711 41.8937 31.5977C42.1126 31.4496 42.2934 31.2555 42.4225 31.03C42.4994 30.8952 42.5273 30.7395 42.5017 30.5877C42.4873 30.5066 42.4622 30.4275 42.427 30.3524C42.3881 30.2727 42.3424 30.1963 42.2903 30.1239C42.2667 30.0939 42.2453 30.0623 42.2265 30.0293C42.2092 30.0004 42.1984 29.977 42.2028 29.974C42.2297 29.9568 42.2297 29.907 42.2239 29.8511C42.2127 29.8027 42.2099 29.7529 42.2156 29.7036C42.2265 29.6686 42.259 29.657 42.3433 29.7036C42.5074 29.8019 42.6466 29.9342 42.7508 30.0907C42.8471 30.225 42.9144 30.3764 42.9488 30.5361C42.9918 30.7387 42.9725 30.949 42.8932 31.1412C42.811 31.3338 42.6884 31.5081 42.533 31.653C42.3928 31.7855 42.2382 31.9031 42.0719 32.0038C41.7739 32.1823 41.4591 32.3335 41.1318 32.4554C40.8124 32.576 40.4869 32.6812 40.1566 32.7705C39.5019 32.9478 38.8364 33.0857 38.1639 33.1834C36.8349 33.3714 35.5052 33.5329 34.1723 33.6749C33.6856 33.7269 33.1989 33.7746 32.7123 33.818C32.5903 33.8285 32.4683 33.8389 32.3508 33.8518C32.2333 33.8647 32.1132 33.8758 31.9951 33.8923L31.8175 33.9157L31.64 33.9433L31.4624 33.971L31.2855 34.0029C30.3409 34.1725 29.4066 34.4275 28.4607 34.6652C27.9881 34.7844 27.5116 34.8993 27.0301 34.9982L25.6001 35.2882C24.6472 35.4827 23.6952 35.6807 22.744 35.8823L21.5702 36.128L20.9832 36.2509C20.7846 36.2902 20.586 36.3221 20.388 36.3516C19.992 36.4094 19.5986 36.4536 19.209 36.5083C18.8194 36.563 18.4349 36.6312 18.0409 36.7116C17.7216 36.7731 17.3754 36.8468 17.0241 36.9039C16.6835 36.9625 16.3386 36.9954 15.9927 37.0022C15.7129 37.0087 15.4332 36.9858 15.1586 36.934C15.1037 36.9224 15.0526 36.9107 15.0066 36.899C14.9606 36.8874 14.9191 36.872 14.8827 36.8585C14.8266 36.8403 14.7747 36.8117 14.7301 36.7743C14.7115 36.7516 15.1509 36.7626 15.6095 36.703C15.8388 36.6779 16.0732 36.6342 16.2635 36.5968C16.4538 36.5593 16.6007 36.5218 16.6575 36.5138C16.8536 36.4806 17.111 36.4333 17.3435 36.391C17.5759 36.3486 17.7829 36.3117 17.8748 36.3068C18.0735 36.2963 18.297 36.2718 18.5384 36.2453L19.3093 36.155C19.8458 36.0936 20.4167 36.0279 20.9513 35.9228L21.818 35.744Z" fill="#111111"/>
<path d="M40.288 26.602C40.2679 26.5719 40.2504 26.5403 40.2356 26.5074C40.2158 26.4761 40.1756 26.4405 40.1552 26.4122C40.1149 26.3581 40.0658 26.3096 40.0274 26.2543L39.9169 26.0958L39.7962 25.9158C39.6404 25.6701 39.4929 25.4366 39.3747 25.2511L39.0292 24.7092C38.9206 24.539 38.8229 24.3744 38.7258 24.2177L38.2092 23.3705L37.4696 22.1074C37.2256 21.6847 36.9893 21.2583 36.7485 20.8344L36.6355 20.6335L36.5991 20.5672C35.9515 19.3913 35.3145 18.2107 34.6882 17.0254C34.3325 16.3588 33.4748 14.7068 33.3962 14.555C33.2685 14.3043 32.4867 12.8207 32.3545 12.5669L31.767 11.4678L30.9923 9.99951C30.7426 9.52276 30.4877 9.05769 30.2399 8.59507C30.1786 8.47957 30.1169 8.36428 30.0547 8.24919L29.8765 7.90453C29.7597 7.67353 29.6434 7.44376 29.5297 7.21337C29.075 6.29183 28.6599 5.37028 28.2582 4.4426C28.0563 3.97875 27.8584 3.51245 27.6431 3.04676C27.5352 2.81392 27.4221 2.58169 27.2957 2.35192C27.1687 2.11596 27.0191 1.89196 26.8486 1.68288C26.7588 1.5751 26.6592 1.47518 26.551 1.3843C26.4397 1.29189 26.3182 1.21135 26.1889 1.14408C25.9289 1.01622 25.6461 0.936804 25.3554 0.91001C25.0743 0.884138 24.7914 0.881261 24.5098 0.901409C24.2307 0.919226 23.9536 0.951787 23.6796 0.989878C23.0364 1.08019 22.3991 1.1963 21.7668 1.31549C21.1345 1.43468 20.5093 1.56123 19.8955 1.68411L19.3239 1.80145L19.2779 1.81189C19.2536 1.81742 19.23 1.82234 19.2057 1.82664C19.1578 1.83586 19.1106 1.84261 19.062 1.84937C18.9656 1.86227 18.8666 1.87333 18.7606 1.8893C18.6731 1.90282 18.4745 1.98883 18.4604 2.04842C18.4521 2.08283 18.4828 2.11785 18.4764 2.15287C18.4617 2.23335 18.6182 2.33717 18.735 2.31444C18.8519 2.29171 18.979 2.25301 19.1023 2.22966C19.1661 2.21615 19.23 2.20447 19.2939 2.1928L19.391 2.17437L20.8669 1.87517C21.6569 1.71483 22.445 1.54526 23.23 1.40642C23.6227 1.33822 24.0155 1.27556 24.4051 1.24177C24.7851 1.19791 25.1697 1.20701 25.547 1.2688C25.9287 1.33678 26.2742 1.52976 26.5248 1.81497C26.7803 2.09819 26.9789 2.44715 27.1635 2.80471C27.3481 3.16226 27.5109 3.54194 27.6744 3.92223C27.8379 4.30252 28.0084 4.69756 28.1802 5.09812C28.6273 6.13701 29.1216 7.19248 29.6658 8.23936C29.9391 8.76157 30.224 9.27702 30.5037 9.798C30.7834 10.319 31.0561 10.8424 31.334 11.3615C31.3257 11.3566 31.3199 11.3566 31.3116 11.3511C31.3314 11.3898 31.3506 11.4273 31.371 11.4654L31.4668 11.6497C32.9032 14.3959 34.3254 17.171 35.7797 19.8207C36.7249 21.5465 37.704 23.2562 38.7488 24.9304L39.5101 26.1265L39.5638 26.2058L39.6698 26.3643C39.7458 26.5025 39.7975 26.6549 39.8831 26.7833C39.9067 26.8213 39.9407 26.8523 39.9815 26.873C40.0236 26.8926 40.0249 26.9062 40.0453 26.908C40.081 26.9069 40.1153 26.8941 40.1424 26.8718C40.2408 26.806 40.3436 26.6635 40.288 26.602Z" fill="#111111"/>
<path d="M40.3358 27.481C40.2988 27.4312 40.2043 27.2721 40.2764 27.2193C40.3133 27.1988 40.3565 27.1914 40.3984 27.1984C40.4626 27.2003 40.5266 27.2062 40.59 27.2162C40.6231 27.2201 40.6546 27.2317 40.682 27.25C40.751 27.3016 40.7676 27.403 40.8136 27.4712C40.896 27.594 40.9164 27.7415 40.9822 27.8773C41.048 28.013 41.1674 28.1046 41.0997 28.2459C41.0454 28.2342 40.963 28.2231 40.9247 28.1789C40.7331 27.962 40.5549 27.7335 40.3639 27.5142C40.354 27.5036 40.3446 27.4925 40.3358 27.481Z" fill="#111111"/>
<path d="M41.3846 28.9118C41.3477 28.867 41.3255 28.8127 41.3207 28.7557C41.3105 28.6107 41.4849 28.4645 41.6081 28.5991C41.6835 28.6814 41.6982 28.7613 41.7499 28.8596C41.7831 28.921 41.8776 29.1422 41.7576 29.1409C41.6624 29.1409 41.5021 29.0224 41.4383 28.9634C41.4187 28.9479 41.4007 28.9306 41.3846 28.9118Z" fill="#111111"/>
<path d="M42.3377 29.8176L42.3307 29.8243C42.203 29.9472 41.9354 29.7838 41.9405 29.6241C41.9443 29.5079 42.0938 29.3783 42.217 29.4232C42.3403 29.468 42.4278 29.7174 42.3377 29.8176Z" fill="#111111"/>
<path d="M23.1595 4.25482C23.1779 4.25477 23.1963 4.25621 23.2144 4.25912C23.233 4.25912 23.2592 4.25297 23.2783 4.25174C23.3128 4.25174 23.3467 4.24253 23.3811 4.24253L23.4763 4.24806L23.6392 4.25912L23.7669 4.26833L23.8946 4.28738L24.145 4.32363L24.387 4.37769L24.5052 4.40411C24.5441 4.41271 24.5818 4.42622 24.6195 4.43728L24.8437 4.50425C24.9171 4.52452 24.9848 4.55585 25.0538 4.58043L25.2524 4.65599L25.4357 4.74016C25.8962 4.95674 26.3293 5.22348 26.7265 5.53515L26.8657 5.64512C26.913 5.68136 26.9577 5.71823 27.0011 5.75755L27.2604 5.98425C27.4239 6.14152 27.5861 6.29143 27.7343 6.45239C28.2702 7.02207 28.756 7.63363 29.1866 8.28073C29.5059 8.75625 29.808 9.24528 30.0922 9.74291C30.3764 10.2405 30.6415 10.7486 30.8969 11.261C31.4079 12.287 31.8715 13.3339 32.3122 14.3899L32.5185 14.8888C32.5434 14.9502 32.5613 14.9926 32.5862 15.0541C33.1802 16.5132 33.7358 17.9864 34.2991 19.4578C34.8624 20.9292 35.4276 22.4 36.0637 23.8456C36.2445 24.2523 36.4961 24.8064 36.7995 25.4042C36.9502 25.7034 37.1188 26.0118 37.2919 26.319C37.3832 26.4708 37.4694 26.6262 37.5659 26.7736C37.6131 26.8486 37.6598 26.9229 37.707 26.9967C37.7543 27.0704 37.8047 27.1423 37.8533 27.2135C37.9018 27.2848 37.9523 27.3554 38.0027 27.4242L38.0774 27.5268L38.1151 27.5778C38.1226 27.5902 38.1295 27.6029 38.1356 27.6159C38.1643 27.6732 38.1741 27.7375 38.1637 27.8002C38.1515 27.8645 38.1263 27.9259 38.0896 27.9809C38.0109 28.0944 37.9144 28.1956 37.8035 28.2807C37.7017 28.3617 37.595 28.437 37.4841 28.5061C37.2734 28.6358 37.0837 28.7341 36.9374 28.8059C36.7912 28.8778 36.6864 28.9245 36.6405 28.946C36.4878 29.0148 36.1423 29.166 35.6888 29.3355C35.2354 29.5051 34.6772 29.6962 34.1126 29.8712C32.9828 30.2239 31.8313 30.5169 31.4941 30.6011C31.2731 30.6589 29.8974 31.0017 28.5594 31.2812C27.2508 31.5558 25.9371 31.7997 24.6093 32.0141C23.3237 32.2206 22.0502 32.3957 20.7862 32.5253C20.154 32.5867 19.5236 32.6426 18.8958 32.6764C18.268 32.7102 17.6421 32.7256 17.022 32.6979C16.7138 32.6859 16.4068 32.6545 16.1029 32.6039C15.9544 32.5785 15.8083 32.5413 15.6661 32.4927C15.5976 32.4691 15.5315 32.4395 15.4687 32.4043C15.4094 32.3729 15.3566 32.3312 15.3129 32.2814C15.2938 32.2584 15.2777 32.2332 15.265 32.2064C15.2618 32.2 15.2594 32.1932 15.258 32.1862L15.2471 32.1511C15.2471 32.1339 15.2305 32.1241 15.2196 32.11L15.1998 32.0866L15.0536 31.9134L14.7611 31.5675C14.5695 31.3347 14.3856 31.0963 14.1971 30.861C13.4702 29.9055 12.8023 28.9098 12.1968 27.8789C10.9834 25.8208 9.98962 23.649 9.08016 21.4139C8.17071 19.1789 7.33789 16.8769 6.42779 14.5294C6.16466 13.8468 5.89195 13.1649 5.61477 12.4848C5.33759 11.8047 5.04764 11.1283 4.74683 10.4574C4.67338 10.2897 4.59419 10.1238 4.51818 9.95732C4.44218 9.79083 4.36682 9.62372 4.28571 9.45969C4.2046 9.29566 4.12732 9.13039 4.04749 8.9682L4.01811 8.90676L4.00342 8.87605L3.99576 8.86007C3.99168 8.85075 3.98654 8.84189 3.98043 8.83366C3.95669 8.79986 3.93536 8.76455 3.91656 8.72799C3.8815 8.66329 3.86518 8.59072 3.8693 8.51787C3.87888 8.38517 4.00853 8.27213 4.15989 8.19533C4.31889 8.11656 4.48636 8.05476 4.65933 8.01102C5.0106 7.9158 5.37463 7.85436 5.7374 7.79231C6.19149 7.71367 6.64685 7.6504 7.09711 7.52261L7.12457 7.51401H7.12904H7.13799L7.17439 7.50233L7.24656 7.48083C7.29865 7.46675 7.34983 7.44973 7.39984 7.42984C7.44518 7.41387 7.53587 7.33461 7.52757 7.30328C7.52757 7.28546 7.50203 7.27563 7.49819 7.25782C7.48606 7.21973 7.39856 7.19638 7.35258 7.22157C7.30174 7.24964 7.24904 7.27447 7.19483 7.29591C7.16545 7.30758 7.13543 7.3168 7.10541 7.32601L7.06007 7.33953L6.9962 7.35857L6.89082 7.38683C6.81993 7.40465 6.74776 7.42062 6.67559 7.43598C6.53126 7.4667 6.385 7.49435 6.23875 7.52015C5.94496 7.57114 5.64926 7.61722 5.35356 7.67067C5.05535 7.71798 4.76038 7.78261 4.47029 7.86419C4.3208 7.90838 4.17636 7.96704 4.03919 8.03929C3.96707 8.07798 3.90016 8.12503 3.83992 8.17936C3.7523 8.25485 3.69371 8.35657 3.67366 8.46807C3.65361 8.57956 3.67326 8.69431 3.72943 8.79372C3.74279 8.82271 3.75772 8.85101 3.77414 8.8785L3.79969 8.91844L3.81246 8.93748L3.81629 8.94608L3.89549 9.09906L4.19566 9.72018L4.48625 10.3456L4.76854 10.9741C5.14024 11.8139 5.49343 12.6605 5.83511 13.509C6.5172 15.2064 7.15076 16.9113 7.79134 18.5916C8.47407 20.3812 9.16575 22.1377 9.9628 23.8898C10.7599 25.642 11.6559 27.3917 12.7774 29.1273C12.8694 29.2667 12.962 29.4068 13.0539 29.5475C13.1459 29.6882 13.2455 29.8246 13.3407 29.9634C13.4359 30.1022 13.5323 30.2423 13.6332 30.3781L13.9366 30.7866C13.9877 30.8548 14.0368 30.9243 14.0898 30.9906L14.2419 31.1915L14.5612 31.5939C14.6723 31.7246 14.783 31.8556 14.8933 31.9871L15.06 32.1843L15.0811 32.2089C15.0811 32.2132 15.0849 32.2126 15.0862 32.2163L15.0919 32.2353C15.0952 32.2479 15.1001 32.2601 15.1066 32.2716C15.1168 32.2953 15.1297 32.318 15.1449 32.3391L15.1673 32.3711L15.1928 32.3987C15.2599 32.468 15.3392 32.5252 15.4272 32.5677C15.5092 32.6086 15.5947 32.6427 15.6827 32.6697C15.8556 32.7213 16.0324 32.7599 16.2115 32.7852C16.5657 32.8345 16.9228 32.8624 17.2806 32.8687C17.9934 32.8859 18.7068 32.854 19.4201 32.8073C20.8456 32.7065 22.2699 32.5302 23.6877 32.3195C25.1055 32.1088 26.5189 31.8581 27.9188 31.5767C27.9003 31.5829 27.8952 31.5865 27.8754 31.5927L28.1813 31.5313L28.6712 31.4293C30.5112 31.0404 32.3429 30.5993 34.1407 30.047C35.0348 29.7674 35.929 29.4652 36.7861 29.0738C36.9994 28.9749 37.2108 28.8698 37.4152 28.7525C37.6242 28.6366 37.8204 28.5006 38.0008 28.3464C38.0946 28.266 38.1765 28.1736 38.2441 28.0718C38.2795 28.0175 38.3075 27.9591 38.3272 27.8979C38.3468 27.833 38.3538 27.765 38.3476 27.6976C38.3393 27.6304 38.3177 27.5653 38.2837 27.506C38.279 27.4963 38.2735 27.4871 38.2671 27.4783L38.2556 27.4623L38.2307 27.4279L38.1809 27.3597C38.117 27.2682 38.0462 27.1754 37.9842 27.0827C37.4733 26.3344 37.0549 25.5296 36.6647 24.7174C36.2745 23.9052 35.9232 23.0752 35.5854 22.2433C34.909 20.5809 34.2889 18.9067 33.6502 17.2541C32.82 15.1038 31.9603 12.9585 30.911 10.8924C30.6485 10.3763 30.3726 9.8664 30.0807 9.36569C29.7889 8.86499 29.4746 8.37288 29.1393 7.89552C28.8048 7.41689 28.4396 6.95871 28.0459 6.52366C27.6521 6.08601 27.217 5.68435 26.7463 5.32381C26.2725 4.962 25.7484 4.66586 25.1892 4.44404L24.9714 4.36233C24.9005 4.33714 24.8271 4.3181 24.7555 4.29536C24.684 4.27263 24.6112 4.2499 24.5378 4.23393L24.3168 4.18416C24.1699 4.14607 24.0192 4.13256 23.8697 4.1086C23.7948 4.09704 23.7194 4.08946 23.6436 4.08587L23.5798 4.08157L23.5299 4.07788L23.431 4.07112C23.3901 4.06375 23.3492 4.05699 23.3083 4.05208C23.2682 4.04599 23.2276 4.04229 23.187 4.04102C23.1646 4.04087 23.1426 4.04638 23.1231 4.05699C23.1027 4.06866 23.0963 4.06559 23.0893 4.07419C23.0803 4.08904 23.0772 4.10646 23.0803 4.12334C23.0822 4.17802 23.1193 4.25973 23.1595 4.25482Z" fill="#111111"/>
<path d="M22.7534 4.05499C22.7853 4.05499 22.8811 4.04885 22.8875 4.09185C22.8873 4.11263 22.8799 4.13275 22.8664 4.14899C22.8498 4.17568 22.8315 4.20133 22.8115 4.22579C22.802 4.23885 22.7893 4.24941 22.7745 4.25651C22.7349 4.27248 22.685 4.25651 22.6435 4.25651C22.5694 4.25651 22.4966 4.23685 22.4193 4.23685C22.3421 4.23685 22.2737 4.26879 22.2207 4.20858C22.2373 4.1877 22.2603 4.15452 22.2897 4.14715C22.3619 4.12872 22.4347 4.11213 22.5081 4.09554C22.5816 4.07895 22.6563 4.07219 22.7304 4.05806L22.7534 4.05499Z" fill="#111111"/>
<path d="M21.8425 4.20445C21.8714 4.19617 21.9023 4.19617 21.9313 4.20445C22.0034 4.2278 22.0385 4.33409 21.951 4.36235C21.9015 4.37331 21.8505 4.37745 21.7997 4.37463C21.7633 4.37463 21.64 4.37463 21.6617 4.32487C21.6834 4.27511 21.7665 4.23456 21.8073 4.21613C21.8187 4.21133 21.8305 4.20743 21.8425 4.20445Z" fill="#111111"/>
<path d="M21.2366 4.47955V4.47525C21.1957 4.39784 21.3196 4.302 21.3982 4.33026C21.4132 4.33652 21.4267 4.34579 21.4377 4.35745C21.4487 4.3691 21.4571 4.38288 21.4621 4.39787C21.4672 4.41286 21.4689 4.42872 21.4671 4.44439C21.4654 4.46006 21.4601 4.47518 21.4518 4.48877C21.4097 4.53423 21.273 4.53607 21.2366 4.47955Z" fill="#111111"/>
<path d="M10.3973 14.3859C10.3574 13.9327 10.3614 13.4769 10.4094 13.0245C10.4228 12.8918 10.4509 12.7695 10.4682 12.635C10.502 12.4415 10.5142 12.353 10.532 12.2664C10.5499 12.1797 10.5608 12.0894 10.608 11.8977C10.6157 11.8504 10.7096 11.5469 10.7256 11.5015C10.7415 11.456 10.7543 11.4069 10.7652 11.362C10.7721 11.3173 10.7817 11.273 10.7939 11.2293C10.8143 11.1716 10.8418 11.1126 10.8673 11.0561C10.8725 11.045 10.8846 11.0321 10.8884 11.034C10.9331 11.0518 11.0213 10.9725 10.9995 11.139C10.9807 11.2356 10.9551 11.3308 10.9229 11.4241C10.7941 11.7933 10.6938 12.1711 10.6227 12.5545C10.5171 13.1142 10.4806 13.684 10.5142 14.252C10.5212 14.3693 10.5346 14.4842 10.5423 14.5997C10.5499 14.7152 10.5659 14.8295 10.5844 14.9456C10.6093 15.1348 10.6604 15.3836 10.5914 15.4371C10.5806 15.4463 10.4503 15.2012 10.4426 15.1661C10.4278 15.1058 10.4205 15.0439 10.4209 14.9818C10.4318 14.9107 10.4344 14.8385 10.4286 14.7668C10.4235 14.6869 10.4113 14.6022 10.4069 14.5211L10.3973 14.3859Z" fill="#111111"/>
<path d="M10.6316 13.9678C10.6573 13.9228 10.673 13.8733 10.6776 13.8222C10.677 13.8178 10.6755 13.8136 10.6732 13.8098C10.6709 13.806 10.6678 13.8027 10.6642 13.8001H10.6572C10.6484 13.8024 10.64 13.806 10.6323 13.8105C10.6094 13.8214 10.5913 13.8396 10.5812 13.8621C10.5707 13.8879 10.5659 13.9155 10.5671 13.9432C10.5671 13.9641 10.5671 13.9844 10.5735 14.0311C10.5735 14.0433 10.5735 14.1226 10.5735 14.1343C10.5742 14.1468 10.5772 14.159 10.5824 14.1705C10.5869 14.1822 10.5984 14.1926 10.6003 14.2043C10.6009 14.2203 10.599 14.2362 10.5946 14.2516C10.5934 14.2536 10.5917 14.2553 10.5897 14.2566C10.5877 14.2579 10.5855 14.2587 10.5831 14.259C10.5345 14.259 10.4803 14.2879 10.4407 14.2473C10.4229 14.226 10.413 14.1997 10.4126 14.1724C10.4094 14.1214 10.4126 14.0747 10.4126 14.0188C10.415 13.9597 10.4249 13.9011 10.4419 13.8443C10.4569 13.7931 10.4873 13.7473 10.5294 13.7128C10.5529 13.6945 10.5798 13.6805 10.6086 13.6717C10.6269 13.6658 10.6462 13.6633 10.6655 13.6643C10.6891 13.665 10.7122 13.6716 10.7325 13.6833C10.7662 13.7036 10.7906 13.7355 10.8009 13.7724C10.8085 13.8023 10.8085 13.8335 10.8009 13.8633C10.7898 13.9031 10.7759 13.9421 10.7593 13.9801C10.7376 14.0384 10.7089 14.0913 10.6814 14.1472C10.6597 14.1926 10.6284 14.2528 10.5537 14.2289C10.5292 14.197 10.5108 14.1613 10.4994 14.1232C10.5032 14.1085 10.5141 14.0863 10.5262 14.0845C10.5792 14.0759 10.5939 14.0323 10.6131 13.996L10.6316 13.9678Z" fill="#111111"/>
<path d="M10.5948 13.3254C10.6094 13.2686 10.6144 13.2099 10.6095 13.1516C10.6069 13.1235 10.6026 13.0956 10.5967 13.068C10.5967 13.0619 10.5935 13.0533 10.5922 13.049C10.5909 13.0447 10.5858 13.049 10.6018 13.0379L10.5967 13.0422C10.5984 13.0412 10.5998 13.0397 10.6005 13.0379C10.6005 13.0379 10.6005 13.0336 10.6005 13.0379C10.6005 13.0422 10.6005 13.0484 10.6005 13.0557C10.5922 13.057 10.5844 13.0607 10.5782 13.0662C10.5674 13.0744 10.5594 13.0855 10.5552 13.0981C10.5421 13.1264 10.5348 13.1569 10.5335 13.1878C10.5335 13.2099 10.5335 13.232 10.5335 13.2812C10.5335 13.2929 10.5335 13.374 10.5335 13.3869C10.5349 13.3997 10.5388 13.4122 10.545 13.4237C10.5507 13.4354 10.5635 13.4452 10.566 13.4569C10.5686 13.4736 10.5686 13.4906 10.566 13.5073C10.566 13.511 10.5596 13.5159 10.5558 13.5165C10.5073 13.5226 10.4575 13.5589 10.4128 13.5165C10.3917 13.4945 10.3787 13.4664 10.3757 13.4366C10.3584 13.3149 10.371 13.1909 10.4128 13.0748C10.4172 13.0637 10.4211 13.0527 10.4268 13.0416C10.4327 13.029 10.4393 13.0166 10.4466 13.0047C10.4659 12.9753 10.4927 12.9512 10.5245 12.9347C10.5469 12.9231 10.5719 12.9172 10.5973 12.9175C10.6143 12.9179 10.631 12.9216 10.6464 12.9285C10.6618 12.9354 10.6755 12.9452 10.6867 12.9574C10.7022 12.9752 10.7129 12.9962 10.718 13.0189C10.718 13.0324 10.7219 13.0422 10.7238 13.0539C10.7336 13.1417 10.7308 13.2304 10.7155 13.3174C10.7032 13.3848 10.6829 13.4506 10.6548 13.5134C10.6337 13.5644 10.6031 13.6295 10.5271 13.6123C10.5013 13.5809 10.482 13.545 10.4702 13.5067C10.4702 13.4907 10.483 13.4667 10.4951 13.463C10.5488 13.4489 10.559 13.4016 10.5743 13.3611C10.5884 13.3475 10.5916 13.3365 10.5948 13.3254Z" fill="#111111"/>
<path d="M10.7057 12.5816C10.7204 12.5556 10.7328 12.5285 10.7427 12.5005C10.7496 12.4825 10.7496 12.4626 10.7427 12.4446H10.7382C10.7227 12.4598 10.7108 12.478 10.7031 12.498C10.6882 12.5304 10.676 12.5639 10.6667 12.5982C10.6537 12.6652 10.649 12.7335 10.6526 12.8015C10.6526 12.8144 10.6456 12.8998 10.6456 12.9127C10.646 12.926 10.6486 12.939 10.6533 12.9514C10.6584 12.9637 10.6699 12.9748 10.6718 12.9871C10.6727 13.0038 10.6714 13.0205 10.668 13.0368C10.668 13.0399 10.6609 13.0448 10.6565 13.0454C10.6086 13.0454 10.5562 13.0835 10.5141 13.0387C10.4947 13.0134 10.484 12.9829 10.4834 12.9514C10.4832 12.8331 10.4976 12.7151 10.5262 12.6C10.5351 12.5584 10.5466 12.5174 10.5607 12.4772C10.5607 12.4686 10.569 12.4532 10.5747 12.4403C10.5805 12.4274 10.5875 12.4151 10.5952 12.4034C10.6129 12.3742 10.6379 12.3497 10.668 12.3322C10.6891 12.3191 10.7137 12.3122 10.7389 12.3125C10.7648 12.3124 10.7902 12.3192 10.8123 12.3322C10.8343 12.3458 10.8518 12.3652 10.8628 12.3881C10.8712 12.4061 10.876 12.4255 10.8768 12.4452C10.8779 12.4746 10.8736 12.5039 10.864 12.5318C10.8601 12.5448 10.8554 12.5575 10.85 12.5699L10.8372 12.5988C10.8079 12.6623 10.7719 12.7229 10.7299 12.7794C10.698 12.8261 10.6482 12.8863 10.5792 12.8501C10.5631 12.813 10.5536 12.7735 10.5511 12.7333C10.5588 12.7186 10.5735 12.6971 10.5862 12.6965C10.6424 12.6934 10.6648 12.648 10.689 12.6099L10.7057 12.5816Z" fill="#111111"/>
<path d="M10.9093 11.9457C10.9131 11.9338 10.9149 11.9213 10.9144 11.9089C10.9144 11.8984 10.9074 11.8824 10.9087 11.8818C10.9253 11.872 10.9265 11.8628 10.9253 11.8665C10.9258 11.8721 10.9275 11.8775 10.9304 11.8824L10.9348 11.8892C10.9244 11.8995 10.9148 11.9106 10.9061 11.9224C10.8505 12.0083 10.8043 12.0995 10.7682 12.1945C10.7487 12.2671 10.734 12.3408 10.7241 12.4151C10.7209 12.4292 10.6979 12.5201 10.6941 12.5343C10.6918 12.5487 10.6918 12.5634 10.6941 12.5779C10.6941 12.592 10.7043 12.6062 10.7024 12.6203C10.6991 12.6385 10.6933 12.6563 10.6851 12.6731C10.6851 12.6768 10.6755 12.6799 10.6717 12.6793C10.6245 12.67 10.5638 12.6922 10.5357 12.6363C10.5236 12.6061 10.5212 12.5732 10.5287 12.5416C10.5516 12.4188 10.5925 12.3051 10.6289 12.1884C10.6543 12.0979 10.6919 12.0109 10.7407 11.9297C10.7678 11.8863 10.8004 11.8463 10.8378 11.8106C10.8531 11.7939 10.8724 11.7811 10.894 11.7731C10.9167 11.7651 10.9415 11.7651 10.9642 11.7731C10.9838 11.7805 11.0007 11.7933 11.0128 11.8099C11.0254 11.8286 11.034 11.8495 11.0383 11.8714C11.0417 11.888 11.0432 11.9049 11.0428 11.9218C11.0383 11.9668 11.0241 12.0104 11.0013 12.05C10.9784 12.0895 10.9473 12.1241 10.9099 12.1515C10.8601 12.1939 10.8192 12.2345 10.7477 12.2056C10.7369 12.1869 10.732 12.1655 10.7337 12.1442C10.7321 12.1214 10.7347 12.0985 10.7413 12.0766C10.7541 12.06 10.7765 12.0397 10.7892 12.0416C10.8126 12.0435 10.8359 12.0381 10.8558 12.0262C10.8756 12.0142 10.8908 11.9963 10.8991 11.9752C10.9037 11.9658 10.9071 11.9559 10.9093 11.9457Z" fill="#111111"/>
<path d="M10.8678 11.684C10.8884 11.6324 10.9036 11.5789 10.9132 11.5243L10.9266 11.4432C10.929 11.432 10.9307 11.4208 10.9317 11.4094V11.4063H10.9374H10.9406H10.9445C10.9445 11.4063 10.9381 11.418 10.9387 11.4137C10.9371 11.4119 10.9348 11.4108 10.9323 11.4106C10.9294 11.4097 10.9263 11.4097 10.9234 11.4106C10.92 11.4114 10.917 11.4134 10.9151 11.4162C10.9006 11.4363 10.8924 11.4599 10.8914 11.4844C10.8914 11.5065 10.8857 11.5292 10.8755 11.5777C10.8755 11.5894 10.848 11.665 10.8448 11.6767C10.8415 11.6885 10.8404 11.7007 10.8416 11.7129C10.8416 11.7252 10.8506 11.7381 10.8487 11.7498C10.8443 11.765 10.8376 11.7795 10.8289 11.7928C10.8272 11.7945 10.825 11.7957 10.8227 11.7963C10.8203 11.797 10.8178 11.797 10.8154 11.7965C10.7688 11.7836 10.7082 11.7965 10.6826 11.7449C10.6724 11.7198 10.6711 11.6921 10.6788 11.6662C10.6915 11.6177 10.7082 11.571 10.7248 11.5237L10.7497 11.453C10.7586 11.4223 10.7706 11.3925 10.7854 11.3639C10.8037 11.332 10.8318 11.3062 10.8659 11.2902C10.886 11.2817 10.9078 11.2773 10.9298 11.2773C10.9518 11.2773 10.9735 11.2817 10.9936 11.2902C11.0178 11.3002 11.0384 11.3168 11.0527 11.3381C11.067 11.3593 11.0745 11.3841 11.0741 11.4094C11.073 11.4333 11.0689 11.4571 11.062 11.4801C11.0441 11.555 11.0205 11.6275 10.9981 11.7006C10.9786 11.7602 10.9523 11.8175 10.9195 11.8714C10.894 11.9163 10.8557 11.974 10.7829 11.9421C10.7626 11.9093 10.748 11.8736 10.7394 11.8364C10.7446 11.8229 10.7561 11.8032 10.7682 11.802C10.8218 11.7971 10.8372 11.7553 10.855 11.7197L10.8678 11.684Z" fill="#111111"/>
<path d="M10.9365 10.8694C10.9691 10.7613 10.9844 10.6489 11.0266 10.5432C11.0387 10.5125 11.0553 10.4855 11.0662 10.4535C11.0969 10.3614 11.0854 10.3669 11.1128 10.2729C11.116 10.2618 11.1467 10.1893 11.1511 10.1783C11.1552 10.1666 11.1574 10.1544 11.1575 10.142C11.1575 10.1304 11.1505 10.1168 11.1537 10.1058C11.1598 10.0911 11.1679 10.0772 11.178 10.0646C11.18 10.0636 11.1823 10.063 11.1847 10.063C11.187 10.063 11.1893 10.0636 11.1914 10.0646C11.2367 10.0818 11.2974 10.0781 11.3191 10.1261C11.327 10.1513 11.3259 10.1783 11.3159 10.2029C11.2833 10.2932 11.238 10.3792 11.2061 10.4707C11.1519 10.6009 11.1058 10.734 11.0681 10.8694C11.056 10.9266 11.0368 10.9794 11.0196 11.0353C11.0062 11.0802 10.9876 11.1404 10.9097 11.133C10.8793 11.1078 10.8545 11.0768 10.8369 11.0421C10.8369 11.0267 10.8446 11.0034 10.8567 10.9997C10.9078 10.9819 10.9148 10.9382 10.9276 10.8995L10.9365 10.8694Z" fill="#111111"/>
<path d="M10.9894 11.0495C11.029 10.9384 11.0799 10.8314 11.1414 10.73C11.1612 10.7012 11.1836 10.6772 11.2015 10.6477C11.2532 10.5617 11.2411 10.5654 11.287 10.4769L11.3413 10.3891C11.3468 10.3782 11.3505 10.3666 11.3522 10.3547C11.3512 10.3426 11.3512 10.3305 11.3522 10.3184C11.3592 10.3044 11.3687 10.2917 11.3803 10.2809C11.3823 10.2799 11.3846 10.2793 11.387 10.2793C11.3893 10.2793 11.3916 10.2799 11.3937 10.2809C11.4371 10.3024 11.4991 10.3018 11.5138 10.3559C11.5186 10.3835 11.5134 10.4119 11.4991 10.4364C11.4505 10.5279 11.3848 10.6084 11.3324 10.6938C11.2551 10.8167 11.1631 10.9315 11.1184 11.0624C11.0993 11.1171 11.0776 11.1668 11.0622 11.2209C11.0482 11.2645 11.0373 11.3223 10.9581 11.3247C10.9447 11.3247 10.8776 11.2461 10.8789 11.235C10.8802 11.224 10.8866 11.192 10.8981 11.1871C10.9492 11.1662 10.9581 11.1208 10.9754 11.0808L10.9894 11.0495Z" fill="#111111"/>
<path d="M11.1581 11.0875C11.2053 11.0217 11.236 10.9456 11.2896 10.8835C11.305 10.8657 11.3235 10.8509 11.3375 10.8313C11.3778 10.7741 11.3663 10.7741 11.4014 10.7145C11.4059 10.7072 11.4416 10.6636 11.4467 10.6568C11.452 10.6495 11.4553 10.641 11.4563 10.6322C11.4563 10.623 11.4531 10.6107 11.4563 10.604C11.4629 10.5946 11.4716 10.5868 11.4819 10.5812C11.4864 10.5806 11.491 10.5817 11.4946 10.5843C11.5336 10.6126 11.5885 10.6298 11.6019 10.6746C11.6042 10.6843 11.6044 10.6943 11.6024 10.704C11.6004 10.7138 11.5963 10.723 11.5904 10.7311C11.5508 10.7877 11.4991 10.8362 11.4582 10.8921C11.3921 10.9695 11.3305 11.0503 11.2737 11.1342C11.2524 11.1697 11.2285 11.2038 11.2021 11.2361C11.1972 11.2462 11.19 11.2551 11.1811 11.2622C11.1722 11.2693 11.1617 11.2745 11.1505 11.2773C11.1393 11.2801 11.1276 11.2805 11.1162 11.2785C11.1049 11.2765 11.0941 11.2721 11.0846 11.2656C11.0621 11.2386 11.045 11.2078 11.0342 11.1747C11.038 11.1643 11.0482 11.1501 11.0591 11.1514C11.1089 11.1575 11.123 11.1286 11.1415 11.1059L11.1581 11.0875Z" fill="#111111"/>
<path d="M11.0902 11.6302C11.1419 11.5688 11.1758 11.492 11.2314 11.4318C11.2473 11.414 11.2665 11.4004 11.2812 11.3808C11.305 11.3434 11.3264 11.3047 11.345 11.2647C11.3495 11.2573 11.3859 11.2137 11.391 11.2069C11.3964 11.1997 11.3998 11.1912 11.4006 11.1823C11.4006 11.1731 11.4006 11.1608 11.4006 11.1535C11.4074 11.1444 11.4161 11.1369 11.4261 11.1313C11.4261 11.1313 11.4357 11.1313 11.4389 11.1313C11.4779 11.1596 11.5334 11.1762 11.5469 11.221C11.5491 11.2308 11.5492 11.2409 11.5473 11.2508C11.5453 11.2606 11.5412 11.2699 11.5354 11.2782C11.4945 11.3359 11.4415 11.3851 11.3987 11.4416C11.3348 11.5239 11.2569 11.594 11.2007 11.6812C11.1767 11.7157 11.1502 11.7485 11.1215 11.7795C11.1158 11.7894 11.108 11.7979 11.0985 11.8046C11.089 11.8112 11.0781 11.8157 11.0666 11.8178C11.055 11.8199 11.0432 11.8196 11.0318 11.8168C11.0204 11.814 11.0098 11.8088 11.0008 11.8016C10.9808 11.7727 10.9664 11.7407 10.958 11.707C10.9625 11.6972 10.974 11.6837 10.9848 11.6855C11.034 11.6947 11.0487 11.6671 11.0704 11.6456L11.0902 11.6302Z" fill="#111111"/>
<path d="M10.9968 12.2133C11.0427 12.1561 11.0715 12.0904 11.1213 12.0339C11.137 12.0193 11.1519 12.0039 11.166 11.9878C11.1877 11.9541 11.2069 11.919 11.2235 11.8827C11.2273 11.876 11.2599 11.8367 11.2644 11.8305C11.2689 11.8239 11.2715 11.8163 11.272 11.8084C11.272 11.7998 11.2682 11.7881 11.272 11.7814C11.2781 11.773 11.2862 11.7663 11.2957 11.7617C11.2957 11.7617 11.3046 11.7617 11.3078 11.7648C11.3468 11.7924 11.4017 11.8096 11.417 11.8526C11.4198 11.8613 11.4206 11.8706 11.4193 11.8796C11.418 11.8886 11.4146 11.8973 11.4093 11.9049C11.3736 11.9577 11.3257 12.0013 11.288 12.0517C11.2324 12.126 11.1603 12.1887 11.1124 12.2673C11.0911 12.2985 11.0674 12.3281 11.0415 12.3558C11.021 12.3798 10.9929 12.4105 10.9265 12.3718C10.9057 12.3447 10.8899 12.3143 10.8799 12.2821C10.8831 12.2729 10.8933 12.2606 10.9042 12.263C10.9521 12.2735 10.968 12.2483 10.984 12.2292L10.9968 12.2133Z" fill="#111111"/>
<path d="M10.8604 12.871C10.9243 12.7862 10.9677 12.6897 11.0341 12.608C11.0539 12.5841 11.0756 12.5638 11.0935 12.538C11.1245 12.489 11.1528 12.4386 11.1785 12.3869C11.1842 12.3776 11.2276 12.3193 11.234 12.3101C11.2407 12.3006 11.2453 12.29 11.2474 12.2787C11.2474 12.2677 11.2474 12.2535 11.2513 12.2443C11.2594 12.2323 11.2695 12.2217 11.2813 12.213C11.2835 12.212 11.2859 12.2114 11.2883 12.2114C11.2908 12.2114 11.2932 12.212 11.2953 12.213C11.3349 12.2394 11.3943 12.2486 11.4046 12.3008C11.4074 12.3255 11.401 12.3503 11.3867 12.3709C11.3369 12.4477 11.2736 12.5159 11.2213 12.5908C11.1446 12.7002 11.0514 12.7991 10.9818 12.9128C10.952 12.9585 10.9196 13.0026 10.8847 13.0448C10.8579 13.0805 10.8208 13.1272 10.7506 13.0928C10.7314 13.0603 10.7186 13.0247 10.7129 12.9877C10.7186 12.9742 10.732 12.9564 10.7442 12.957C10.7978 12.957 10.8176 12.9232 10.8419 12.8955L10.8604 12.871Z" fill="#111111"/>
<path d="M10.8247 13.5812C10.8655 13.5087 10.8885 13.427 10.9326 13.357C10.9474 13.3372 10.9611 13.3167 10.9735 13.2955C10.9921 13.2537 11.0081 13.2108 11.0214 13.1671C11.0246 13.1591 11.0533 13.1057 11.0578 13.1014C11.0615 13.093 11.0632 13.084 11.0629 13.075C11.0629 13.0657 11.0565 13.0541 11.059 13.0461C11.0643 13.0358 11.0717 13.0266 11.0808 13.019C11.0808 13.019 11.0903 13.019 11.0942 13.019C11.1376 13.0393 11.1964 13.0448 11.2174 13.0872C11.2222 13.0968 11.2246 13.1073 11.2246 13.118C11.2246 13.1286 11.2222 13.1391 11.2174 13.1487C11.1861 13.2144 11.1408 13.2716 11.1076 13.3391C11.0584 13.4331 10.9907 13.5185 10.9492 13.6168C10.9306 13.6561 10.9093 13.694 10.8853 13.7305C10.8816 13.7413 10.8755 13.7512 10.8673 13.7594C10.8591 13.7677 10.849 13.774 10.8379 13.778C10.8268 13.782 10.815 13.7836 10.8032 13.7826C10.7913 13.7816 10.7799 13.7781 10.7697 13.7723C10.7458 13.7458 10.7265 13.7157 10.7129 13.6832C10.7129 13.6721 10.7244 13.6568 10.7359 13.6568C10.7857 13.6568 10.7997 13.6279 10.8138 13.6027L10.8247 13.5812Z" fill="#111111"/>
<path d="M10.0696 14.1261C10.0261 14.0856 9.99043 14.038 9.96425 13.9854C9.94826 13.9506 9.93999 13.9129 9.93998 13.8748C9.93802 13.857 9.94157 13.8389 9.95021 13.823C9.95884 13.807 9.97216 13.7939 9.98852 13.7851C10.0087 13.777 10.0308 13.7745 10.0524 13.7778C10.0747 13.7778 10.0971 13.7839 10.1194 13.7864L10.2165 13.8017C10.2486 13.8061 10.2799 13.8144 10.3098 13.8263C10.342 13.8408 10.3727 13.8585 10.4011 13.8791C10.4119 13.8856 10.4235 13.8908 10.4356 13.8945C10.4477 13.8982 10.4637 13.8945 10.4739 13.9037C10.4865 13.9146 10.4971 13.9275 10.5052 13.9418C10.5064 13.9438 10.507 13.946 10.507 13.9483C10.507 13.9505 10.5064 13.9527 10.5052 13.9547C10.4707 13.9879 10.4458 14.0383 10.3941 14.0407C10.3711 14.0417 10.3485 14.035 10.3302 14.0217C10.2692 13.9742 10.1985 13.9396 10.1226 13.9203C10.1028 13.9172 10.1092 13.9203 10.1054 13.9166H10.099C10.0977 13.9163 10.0962 13.9162 10.0949 13.9164C10.0935 13.9166 10.0922 13.9171 10.091 13.9179C10.0898 13.9186 10.0889 13.9196 10.0882 13.9208C10.0874 13.922 10.087 13.9233 10.0869 13.9246C10.0865 13.9279 10.0865 13.9312 10.0869 13.9344V13.943C10.0884 13.949 10.0906 13.9547 10.0933 13.9602C10.1046 13.9834 10.1204 14.0042 10.1399 14.0217C10.174 14.0543 10.2107 14.0843 10.2497 14.1114C10.2836 14.1347 10.334 14.1661 10.304 14.2342C10.272 14.2558 10.2357 14.2709 10.1974 14.2785C10.1833 14.2736 10.1622 14.26 10.1622 14.2478C10.1622 14.1962 10.1233 14.1759 10.0926 14.1476L10.0696 14.1261Z" fill="#111111"/>
<path d="M10.0959 13.3206C10.0707 13.2655 10.0494 13.2088 10.032 13.151L10.0256 13.1246C10.0231 13.1141 10.0212 13.1034 10.0199 13.0926C10.0168 13.0723 10.0168 13.0516 10.0199 13.0312C10.0232 13.0119 10.0309 12.9936 10.0425 12.9775C10.0541 12.9614 10.0693 12.9481 10.087 12.9384C10.1065 12.9285 10.129 12.9251 10.1508 12.9286C10.1728 12.9332 10.1935 12.9422 10.2115 12.955C10.2339 12.9707 10.2553 12.9877 10.2754 13.006L10.3079 13.0324C10.3346 13.0533 10.3594 13.0764 10.382 13.1012C10.4053 13.13 10.4267 13.1601 10.4459 13.1916C10.4532 13.2025 10.462 13.2124 10.4721 13.221C10.4823 13.2297 10.4976 13.234 10.5046 13.2444C10.513 13.2596 10.5188 13.276 10.5219 13.2929C10.5219 13.296 10.5174 13.3028 10.5142 13.3046C10.4702 13.3237 10.4299 13.366 10.3782 13.3476C10.355 13.3372 10.3357 13.3202 10.3226 13.2991C10.299 13.261 10.2754 13.2229 10.2485 13.186C10.2353 13.1676 10.2213 13.1498 10.2064 13.1326L10.1802 13.1037C10.1802 13.1037 10.1751 13.0963 10.1687 13.0957C10.1659 13.0954 10.1632 13.0961 10.1608 13.0975C10.1585 13.099 10.1568 13.1012 10.1559 13.1037C10.1553 13.1072 10.1553 13.1107 10.1559 13.1141V13.1172V13.1295L10.161 13.1535C10.1684 13.1856 10.1793 13.2169 10.1936 13.2469C10.2172 13.296 10.2377 13.3445 10.2658 13.3912C10.2939 13.4379 10.3245 13.4766 10.2728 13.5332C10.2322 13.542 10.1899 13.5403 10.1502 13.5282C10.1374 13.5166 10.1227 13.4932 10.1272 13.4815C10.147 13.4312 10.1195 13.3943 10.1029 13.3538L10.0959 13.3206Z" fill="#111111"/>
<path d="M10.1495 12.6301C10.1341 12.5681 10.1239 12.505 10.1188 12.4415C10.1165 12.397 10.1202 12.3524 10.1297 12.3088C10.1322 12.2903 10.1393 12.2726 10.1504 12.2573C10.1616 12.242 10.1763 12.2296 10.1935 12.2209C10.2037 12.2168 10.2148 12.2149 10.2258 12.2154C10.2369 12.216 10.2477 12.2189 10.2574 12.224C10.2761 12.2342 10.2935 12.2466 10.3091 12.2609C10.3602 12.3088 10.3839 12.3413 10.4043 12.3616C10.4296 12.3863 10.4525 12.4133 10.4726 12.4421C10.4809 12.4525 10.5218 12.5306 10.5269 12.5429C10.5335 12.5551 10.5416 12.5664 10.5512 12.5766C10.5608 12.5865 10.5755 12.5932 10.5819 12.6049C10.5887 12.6212 10.593 12.6384 10.5946 12.6559C10.5944 12.6584 10.5936 12.6608 10.5921 12.6628C10.5907 12.6649 10.5887 12.6665 10.5863 12.6676C10.5403 12.6829 10.4969 12.7241 10.4465 12.6977C10.4228 12.6829 10.4045 12.6615 10.3941 12.6362C10.373 12.5932 10.3519 12.5502 10.3302 12.5078C10.3181 12.4863 10.306 12.4654 10.2925 12.4464C10.2791 12.4273 10.2849 12.4347 10.2823 12.431C10.2824 12.4298 10.2824 12.4286 10.2823 12.4273C10.2753 12.4071 10.2331 12.3874 10.2702 12.5693C10.2834 12.6239 10.3006 12.6775 10.3219 12.7296C10.3392 12.7726 10.3711 12.8236 10.3143 12.8758C10.2933 12.8812 10.2713 12.8812 10.2504 12.8758C10.228 12.873 10.2064 12.8664 10.1865 12.8562C10.175 12.842 10.1616 12.8156 10.168 12.804C10.1936 12.7542 10.168 12.7112 10.1597 12.6663L10.1495 12.6301Z" fill="#111111"/>
<path d="M10.2823 12.1156L10.26 12.029C10.26 12.0143 10.2529 12.0001 10.2504 11.9848L10.2466 11.9627C10.2459 11.9522 10.2459 11.9418 10.2466 11.9313C10.2343 11.8557 10.248 11.7783 10.2855 11.7108C10.2954 11.6972 10.3088 11.6864 10.3245 11.6795C10.3331 11.6754 10.3426 11.6733 10.3523 11.6733C10.3619 11.6733 10.3714 11.6754 10.38 11.6795C10.4081 11.6965 10.4337 11.7172 10.456 11.7409C10.4868 11.7745 10.5132 11.8117 10.5346 11.8515C10.5532 11.8883 10.5688 11.9265 10.5812 11.9657C10.5854 11.9782 10.5919 11.9899 10.6004 12.0001C10.608 12.0106 10.6221 12.0186 10.6259 12.0302C10.6305 12.0469 10.6323 12.0641 10.631 12.0812C10.631 12.0812 10.6246 12.0898 10.6208 12.0905C10.5736 12.0997 10.5244 12.1328 10.4784 12.1027C10.4578 12.0872 10.443 12.0656 10.4362 12.0413L10.4145 11.9799L10.403 11.9492C10.4037 11.9434 10.4026 11.9377 10.3998 11.9326C10.3998 11.9289 10.3922 11.9258 10.389 11.9277C10.3858 11.9295 10.3832 11.9307 10.3807 11.9356C10.3791 11.9385 10.3781 11.9416 10.3775 11.9449C10.3772 11.9467 10.3772 11.9486 10.3775 11.9504C10.3769 11.9545 10.3769 11.9586 10.3775 11.9627C10.3806 11.9952 10.3874 12.0274 10.3979 12.0585C10.4152 12.1107 10.4292 12.1636 10.4484 12.2176C10.4637 12.2619 10.4861 12.3214 10.4184 12.3602C10.3783 12.3563 10.3394 12.3448 10.304 12.3264C10.2951 12.3128 10.2862 12.2889 10.2932 12.2791C10.3245 12.2354 10.304 12.1943 10.2932 12.1531L10.2823 12.1156Z" fill="#111111"/>
<path d="M10.4446 11.6118C10.4319 11.5589 10.4184 11.5061 10.4108 11.4514C10.4059 11.4232 10.4038 11.3946 10.4044 11.366C10.4041 11.3457 10.4085 11.3255 10.4173 11.307C10.4262 11.2885 10.4392 11.2721 10.4555 11.2591C10.4788 11.242 10.5082 11.2345 10.5372 11.2382C10.5524 11.2407 10.5668 11.2464 10.5794 11.2549C10.592 11.2634 10.6025 11.2745 10.61 11.2874C10.6198 11.3055 10.6283 11.3241 10.6356 11.3433C10.6413 11.3556 10.6458 11.3648 10.6509 11.374C10.656 11.3832 10.6714 11.4102 10.6899 11.4514C10.6943 11.4612 10.7161 11.53 10.7193 11.5405C10.7236 11.551 10.7296 11.5607 10.7371 11.5694C10.7448 11.578 10.7589 11.5835 10.7633 11.5933C10.7685 11.6069 10.771 11.6213 10.771 11.6357C10.771 11.6357 10.7659 11.6443 10.762 11.6456C10.7161 11.6597 10.672 11.6996 10.6228 11.6763C10.6006 11.6634 10.5839 11.6434 10.5756 11.6197C10.543 11.5356 10.5238 11.4434 10.4951 11.3617V11.3562C10.4951 11.3562 10.4893 11.3562 10.5053 11.3488C10.5152 11.3436 10.5241 11.3368 10.5315 11.3285C10.5353 11.3218 10.5315 11.3285 10.5315 11.3334C10.5316 11.3392 10.5332 11.3449 10.536 11.35C10.536 11.3537 10.536 11.3531 10.536 11.35H10.5328L10.5532 11.3617C10.5532 11.3617 10.5487 11.3697 10.5475 11.3808C10.5421 11.4401 10.5482 11.4999 10.5653 11.5571C10.58 11.6044 10.5909 11.6517 10.6088 11.6984C10.6266 11.7451 10.6464 11.785 10.5839 11.8305C10.5442 11.8329 10.5045 11.8259 10.4683 11.8102C10.4587 11.7973 10.4491 11.774 10.4555 11.7641C10.4855 11.7205 10.4663 11.683 10.4555 11.6413L10.4446 11.6118Z" fill="#111111"/>
<path d="M10.5522 11.1943C10.5426 11.1225 10.5337 10.8871 10.6691 10.8779C10.6869 10.8802 10.704 10.8858 10.7195 10.8946C10.735 10.9034 10.7484 10.915 10.7591 10.9289C10.7834 10.9558 10.8048 10.9851 10.823 11.0162C10.83 11.0285 10.8377 11.0414 10.8466 11.0579C10.8556 11.0745 10.8607 11.0837 10.8696 11.104C10.8795 11.1335 10.8878 11.1634 10.8945 11.1937C10.8973 11.2045 10.9021 11.2147 10.9086 11.2238C10.915 11.2337 10.9284 11.2404 10.9309 11.2509C10.9338 11.2651 10.9338 11.2797 10.9309 11.2939C10.9298 11.296 10.9281 11.2978 10.9261 11.2991C10.9242 11.3005 10.9219 11.3015 10.9194 11.3018C10.8715 11.308 10.8198 11.335 10.777 11.3074C10.7589 11.2944 10.7462 11.2757 10.7412 11.2545C10.7323 11.2177 10.7227 11.1808 10.7138 11.1433L10.7055 11.1157C10.7053 11.1134 10.7053 11.1112 10.7055 11.1089C10.7061 11.1067 10.7061 11.1044 10.7055 11.1022C10.704 11.098 10.7018 11.0941 10.6991 11.0905C10.6972 11.0889 10.6948 11.0881 10.6924 11.0881C10.6899 11.0881 10.6875 11.0889 10.6857 11.0905C10.6812 11.0946 10.6783 11.1 10.6774 11.1059V11.12C10.6764 11.1329 10.6764 11.1458 10.6774 11.1587C10.6822 11.2002 10.6906 11.2413 10.7023 11.2816C10.7143 11.3016 10.7183 11.3253 10.7133 11.3479C10.7084 11.3706 10.6949 11.3907 10.6754 11.4044C10.6559 11.4086 10.6356 11.4086 10.616 11.4044C10.5963 11.4023 10.5771 11.3969 10.5592 11.3885C10.5496 11.3756 10.54 11.3516 10.5477 11.3418C10.5784 11.2994 10.5624 11.2625 10.5579 11.2244L10.5522 11.1943Z" fill="#111111"/>
<path d="M10.3186 10.997C10.3001 10.9049 10.2605 10.8176 10.2471 10.7255C10.2426 10.6978 10.2433 10.672 10.2369 10.6444C10.2171 10.5664 10.2101 10.575 10.1851 10.4982C10.1851 10.489 10.1698 10.4251 10.1673 10.4152C10.1648 10.4053 10.16 10.3961 10.1532 10.3882C10.1468 10.3796 10.134 10.3735 10.1309 10.3642C10.1283 10.3515 10.1283 10.3383 10.1309 10.3255C10.1309 10.3255 10.1372 10.3188 10.1411 10.3176C10.1883 10.309 10.2375 10.2776 10.2829 10.3022C10.3026 10.3151 10.3168 10.3346 10.3225 10.3569C10.3435 10.4349 10.3493 10.5166 10.3678 10.5959C10.3953 10.7107 10.4017 10.8299 10.4374 10.943C10.45 10.9897 10.4598 11.0371 10.4668 11.0849C10.4732 11.1242 10.4815 11.1764 10.408 11.2016C10.3714 11.1956 10.3363 11.1829 10.3046 11.1641C10.2988 11.1525 10.295 11.1328 10.3046 11.1248C10.3435 11.0916 10.3308 11.0566 10.3257 11.0234L10.3186 10.997Z" fill="#111111"/>
<path d="M10.5375 10.7717C10.5375 10.7459 10.5184 10.7219 10.5222 10.6961C10.5222 10.6881 10.5292 10.6801 10.528 10.6728C10.5228 10.6513 10.5145 10.6543 10.503 10.6341C10.503 10.6341 10.503 10.6144 10.503 10.6119C10.503 10.6095 10.4986 10.607 10.4941 10.6052C10.4878 10.6047 10.4816 10.6037 10.4756 10.6021C10.4756 10.6021 10.4756 10.5947 10.4801 10.5904L10.4909 10.5861C10.5358 10.5712 10.5823 10.5613 10.6295 10.5566C10.648 10.5566 10.6576 10.5628 10.6595 10.5689C10.664 10.5945 10.6659 10.6204 10.6653 10.6463C10.6717 10.6832 10.6557 10.7219 10.6653 10.7575C10.6688 10.7725 10.6688 10.788 10.6653 10.803C10.6653 10.8153 10.6595 10.8319 10.5816 10.8325C10.5506 10.8287 10.5199 10.823 10.4896 10.8153C10.4896 10.8153 10.4896 10.8073 10.4979 10.8055C10.5433 10.7987 10.5388 10.7883 10.5414 10.779C10.5439 10.7698 10.5375 10.7741 10.5375 10.7717Z" fill="#111111"/>
<path d="M10.1968 11.5544C10.191 11.5021 10.1642 11.453 10.1636 11.4002C10.1652 11.385 10.1652 11.3698 10.1636 11.3547C10.1562 11.3262 10.1462 11.2985 10.1335 11.2718C10.1335 11.2668 10.1284 11.2306 10.1272 11.2251C10.1259 11.219 10.1225 11.2136 10.1176 11.2097C10.1125 11.2054 10.1003 11.2023 10.0984 11.1968C10.0965 11.1913 10.0984 11.1827 10.1016 11.1747C10.105 11.1722 10.1089 11.1705 10.1131 11.1698C10.1589 11.1559 10.2072 11.1513 10.2549 11.1563C10.2623 11.1583 10.269 11.1621 10.2744 11.1674C10.2798 11.1727 10.2836 11.1792 10.2856 11.1864C10.2958 11.2306 10.2907 11.2779 10.2977 11.3227C10.3001 11.3892 10.3067 11.4555 10.3175 11.5212C10.324 11.5477 10.327 11.575 10.3264 11.6023C10.3264 11.6244 10.3264 11.6539 10.253 11.6699C10.2201 11.6673 10.1877 11.6607 10.1565 11.6502C10.1552 11.6484 10.1543 11.6464 10.1538 11.6443C10.1533 11.6422 10.1533 11.64 10.1537 11.6379C10.1541 11.6358 10.155 11.6338 10.1562 11.632C10.1575 11.6302 10.1591 11.6286 10.161 11.6275C10.2038 11.6078 10.1968 11.5882 10.1961 11.5691C10.1967 11.5642 10.1969 11.5593 10.1968 11.5544Z" fill="#111111"/>
<path d="M10.1021 12.1253C10.0944 12.0492 10.0657 11.976 10.0644 11.8993C10.0657 11.8769 10.0657 11.8546 10.0644 11.8323C10.0575 11.7907 10.0474 11.7496 10.0344 11.7094C10.0344 11.7014 10.0305 11.648 10.0299 11.64C10.0284 11.6317 10.0251 11.6237 10.0203 11.6166C10.0152 11.6093 10.0031 11.6031 10.0011 11.5958C10.0004 11.5849 10.002 11.5741 10.0056 11.5638C10.0086 11.5607 10.0127 11.5587 10.0171 11.5583C10.0657 11.5583 10.1187 11.5337 10.1595 11.5583C10.1679 11.5636 10.1749 11.5705 10.18 11.5787C10.1852 11.5869 10.1885 11.5961 10.1896 11.6056C10.1985 11.6701 10.1896 11.7371 10.1991 11.8022C10.2018 11.8978 10.2099 11.9931 10.2234 12.0879C10.2304 12.1265 10.2349 12.1655 10.2368 12.2046C10.2368 12.2365 10.2426 12.2795 10.1666 12.2974C10.1317 12.2912 10.0983 12.2793 10.0676 12.2623C10.0631 12.2525 10.0618 12.2359 10.0714 12.2298C10.1129 12.2046 10.1046 12.1751 10.1033 12.1475L10.1021 12.1253Z" fill="#111111"/>
<path d="M9.95465 12.7622C9.93267 12.6929 9.91728 12.6217 9.90866 12.5497C9.90866 12.5282 9.91377 12.5079 9.90866 12.4882C9.90356 12.4268 9.89461 12.4323 9.88695 12.3697C9.88695 12.3617 9.88695 12.3113 9.88695 12.3039C9.88727 12.2955 9.88505 12.2872 9.88056 12.28C9.87673 12.2726 9.86587 12.2652 9.86523 12.2578C9.86573 12.2475 9.86879 12.2374 9.87418 12.2284C9.87418 12.2284 9.88248 12.2241 9.88631 12.2247C9.93485 12.2284 9.99041 12.2167 10.0275 12.2443C10.0346 12.2496 10.0405 12.2564 10.0445 12.2641C10.0484 12.2719 10.0505 12.2805 10.0505 12.2892C10.0505 12.3469 10.039 12.4053 10.0428 12.4637C10.0404 12.5491 10.049 12.6345 10.0683 12.718C10.0782 12.7518 10.0861 12.786 10.092 12.8206C10.0984 12.8482 10.1073 12.8857 10.0351 12.9152C10.0001 12.9157 9.96524 12.9101 9.9323 12.8986C9.92719 12.8894 9.92272 12.874 9.9323 12.8673C9.97062 12.8366 9.95848 12.8108 9.95465 12.785V12.7622Z" fill="#111111"/>
<path d="M9.88384 13.6117C9.86635 13.5448 9.85482 13.4765 9.84935 13.4077C9.84935 13.3868 9.85574 13.3678 9.85446 13.3463C9.85127 13.2848 9.84233 13.2922 9.8353 13.2326C9.8353 13.2252 9.8385 13.1773 9.8385 13.1712C9.83987 13.1631 9.83876 13.1547 9.8353 13.1472C9.83147 13.1399 9.81997 13.1331 9.81934 13.1257C9.82023 13.1158 9.82328 13.1062 9.82828 13.0975C9.83197 13.0949 9.83654 13.0938 9.84105 13.0944C9.88895 13.0981 9.94515 13.0876 9.98155 13.114C9.98864 13.1191 9.99441 13.1257 9.9984 13.1332C10.0024 13.1408 10.0045 13.1492 10.0045 13.1577C10.0045 13.2136 9.99113 13.2689 9.99368 13.3254C9.98818 13.4075 9.99269 13.49 10.0071 13.5711C10.0149 13.6039 10.0204 13.6372 10.0237 13.6707C10.0275 13.6983 10.0333 13.7321 9.95984 13.7591C9.92532 13.7575 9.89138 13.75 9.85957 13.737C9.85446 13.7284 9.85191 13.7137 9.85957 13.7069C9.8998 13.6805 9.89022 13.6553 9.88831 13.6301L9.88384 13.6117Z" fill="#111111"/>
<path d="M10.5642 10.7931C10.5678 10.7012 10.5778 10.6097 10.5942 10.5191C10.6012 10.4933 10.6127 10.4699 10.6179 10.4429C10.6338 10.3655 10.623 10.3704 10.6357 10.2918C10.6357 10.2819 10.6562 10.2205 10.6587 10.2113C10.661 10.2014 10.661 10.1911 10.6587 10.1812C10.6587 10.1713 10.6485 10.1597 10.6504 10.1505C10.654 10.138 10.6601 10.1263 10.6683 10.1161C10.6704 10.1152 10.6727 10.1147 10.675 10.1147C10.6773 10.1147 10.6796 10.1152 10.6817 10.1161C10.7277 10.1296 10.7865 10.1259 10.8139 10.1677C10.8244 10.1865 10.8272 10.2084 10.8216 10.2291C10.8024 10.3034 10.7718 10.3747 10.7577 10.4503C10.7266 10.5583 10.7052 10.6686 10.6939 10.7802C10.6939 10.8269 10.6843 10.8711 10.6785 10.9172C10.6728 10.9633 10.6689 11.0044 10.591 11.01C10.5571 10.9954 10.5265 10.9745 10.501 10.9485C10.501 10.9356 10.501 10.916 10.5112 10.911C10.5578 10.8895 10.5565 10.8539 10.5616 10.8213L10.5642 10.7931Z" fill="#111111"/>
<path d="M10.7889 10.8346C10.7887 10.7671 10.7923 10.6996 10.7997 10.6325C10.8063 10.6138 10.8117 10.5947 10.8157 10.5753C10.8183 10.5381 10.8183 10.5008 10.8157 10.4635C10.8157 10.4562 10.8266 10.4101 10.8278 10.4021C10.8287 10.3945 10.8274 10.3869 10.824 10.38C10.824 10.372 10.8112 10.364 10.8112 10.3572C10.8129 10.3478 10.817 10.3389 10.8234 10.3314C10.8234 10.3314 10.8317 10.3284 10.8361 10.3314C10.8834 10.3407 10.9402 10.3357 10.9734 10.3658C10.9801 10.3717 10.9851 10.379 10.9882 10.3871C10.9913 10.3952 10.9924 10.404 10.9913 10.4125C10.9837 10.4684 10.9626 10.5225 10.9549 10.579C10.9355 10.6599 10.9227 10.742 10.9166 10.8248C10.916 10.8588 10.9128 10.8926 10.907 10.9262C10.9032 10.9538 10.8981 10.9876 10.8202 10.9937C10.7875 10.983 10.7569 10.9672 10.7295 10.947C10.7295 10.9384 10.7295 10.9237 10.7397 10.92C10.7857 10.9047 10.7825 10.8782 10.787 10.8543L10.7889 10.8346Z" fill="#111111"/>
<path d="M10.3374 13.551C10.3501 13.567 10.377 13.5633 10.3884 13.5781C10.3923 13.583 10.3942 13.591 10.3993 13.5934C10.4153 13.5989 10.4178 13.5934 10.4351 13.5897C10.4403 13.5917 10.4454 13.594 10.4504 13.5965C10.4504 13.5965 10.4549 13.5965 10.4574 13.591C10.46 13.5854 10.4644 13.5768 10.4664 13.5762C10.4683 13.5756 10.4702 13.5799 10.4715 13.5836C10.4723 13.5874 10.4723 13.5914 10.4715 13.5953C10.4665 13.6408 10.4567 13.6856 10.4421 13.7292C10.4338 13.7445 10.4236 13.7501 10.4165 13.7488C10.3909 13.741 10.3667 13.7292 10.345 13.7138C10.3093 13.6978 10.2907 13.6616 10.2582 13.6444C10.2454 13.6356 10.2352 13.6238 10.2288 13.61C10.2224 13.6002 10.2147 13.5842 10.2773 13.5393C10.2824 13.5357 10.3029 13.5252 10.3214 13.5154C10.3399 13.5056 10.3572 13.4951 10.3584 13.4951C10.3597 13.4951 10.3629 13.4951 10.3584 13.5049C10.3265 13.5363 10.3354 13.54 10.338 13.5461C10.3377 13.5477 10.3374 13.5494 10.3374 13.551Z" fill="#111111"/>
<path d="M12.2828 19.3804C12.3893 19.6061 12.5315 19.8146 12.7043 19.9985C12.8729 20.1831 13.0815 20.3299 13.3155 20.4285C13.5472 20.5235 13.8041 20.5461 14.0499 20.4931C14.1702 20.4655 14.2835 20.4152 14.3833 20.345C14.4828 20.274 14.5668 20.1849 14.6305 20.0827C14.7806 19.8406 14.8408 19.5565 14.801 19.2772C14.776 19.1154 14.7252 18.9584 14.6503 18.8115C14.6018 18.716 14.5461 18.624 14.4836 18.5363C14.4205 18.4485 14.3522 18.3642 14.2792 18.2838C14.1667 18.1589 14.0469 18.0403 13.9203 17.9287C13.808 17.8264 13.689 17.7311 13.5639 17.6436C13.4395 17.5564 13.3062 17.4817 13.166 17.4206C13.0689 17.3784 12.9672 17.3471 12.8627 17.3272C12.8151 17.319 12.7672 17.3134 12.719 17.3106C12.673 17.3106 12.6276 17.3106 12.5804 17.3149C12.4565 17.3242 12.3249 17.3622 12.2553 17.4409C12.2491 17.4495 12.2418 17.4573 12.2336 17.4642C12.2278 17.4716 12.2221 17.4765 12.2202 17.4753C12.2127 17.4733 12.2049 17.4729 12.1973 17.4742C12.1896 17.4754 12.1824 17.4783 12.1761 17.4827C12.1617 17.493 12.146 17.5017 12.1295 17.5085C12.1154 17.5115 12.1052 17.5054 12.1039 17.4698C12.1061 17.4345 12.1157 17.4 12.132 17.3683C12.1484 17.3366 12.1712 17.3085 12.1991 17.2854C12.2916 17.2063 12.4075 17.1569 12.5306 17.1441C12.5986 17.1345 12.6677 17.1329 12.7362 17.1392C12.7697 17.1422 12.8029 17.1469 12.8358 17.1534C12.8678 17.1595 12.8997 17.165 12.9291 17.1736C13.1605 17.2323 13.3797 17.3292 13.5767 17.4599C13.7704 17.5859 13.9508 17.7299 14.1151 17.89C14.2819 18.0476 14.4337 18.2193 14.5685 18.403C14.7065 18.5904 14.8126 18.7978 14.8828 19.0173C14.9884 19.3455 14.9685 19.6992 14.8266 20.0145C14.7541 20.1736 14.6433 20.3138 14.5034 20.4236C14.362 20.5325 14.1937 20.6043 14.0148 20.6319C13.6625 20.6829 13.3031 20.6032 13.0096 20.4089C12.7255 20.2206 12.4878 19.9746 12.3134 19.6882C12.0242 19.2256 11.8821 18.6917 11.9047 18.1523C11.9126 17.9222 11.9556 17.6945 12.0324 17.4765C12.0481 17.4291 12.0671 17.3827 12.0892 17.3377C12.1057 17.299 12.1254 17.2616 12.148 17.2259C12.1719 17.1802 12.2067 17.1406 12.2495 17.1104C12.2487 17.1393 12.2431 17.1679 12.2329 17.1951L12.2087 17.2861C12.2016 17.3198 12.194 17.3567 12.1857 17.3942C12.1531 17.5435 12.1391 17.7014 12.1333 17.7407C12.1193 17.8021 12.1103 17.8881 12.0988 17.9625C12.0873 18.0368 12.0854 18.1038 12.0771 18.1327C12.0132 18.3784 12.0592 18.7765 12.1793 19.1156C12.2091 19.2055 12.2436 19.2939 12.2828 19.3804Z" fill="#111111"/>
<path d="M19.333 11.3507L19.4007 11.3992C19.4131 11.4087 19.4264 11.4171 19.4403 11.4244C19.4478 11.4263 19.4557 11.4254 19.4625 11.4219C19.4693 11.4183 19.4744 11.4124 19.4767 11.4053C19.4801 11.3987 19.4827 11.3917 19.4844 11.3845L19.4927 11.3556C19.5229 11.2499 19.5546 11.1449 19.5878 11.0404C19.6552 10.8316 19.7345 10.6265 19.8254 10.4261C19.8791 10.3087 19.9359 10.2018 19.994 10.0845C20.0356 9.99907 20.0668 9.93763 20.0924 9.88726L20.1563 9.76008C20.1952 9.68268 20.2335 9.60465 20.33 9.44062C20.3523 9.40007 20.5216 9.14204 20.549 9.10518C20.5765 9.06831 20.6001 9.02469 20.6225 8.98599C20.6448 8.94729 20.6595 8.90797 20.6864 8.87049C20.7221 8.8213 20.7605 8.77393 20.8013 8.72857C20.809 8.71936 20.8243 8.71137 20.8275 8.71383C20.8658 8.7427 20.9706 8.69478 20.9061 8.84223C20.8634 8.92774 20.8139 9.0099 20.7579 9.08797C20.6506 9.24341 20.5446 9.40068 20.4437 9.56042C20.3428 9.72015 20.2521 9.88541 20.1626 10.0519C20.0381 10.2976 19.9212 10.5465 19.8184 10.8014C19.7667 10.9286 19.72 11.0582 19.6766 11.1879C19.6543 11.253 19.6351 11.3187 19.6128 11.3845L19.6044 11.4115C19.6 11.4268 19.5961 11.4416 19.5904 11.4557C19.5802 11.4823 19.564 11.5064 19.5431 11.5264C19.5229 11.5456 19.4962 11.5572 19.4678 11.5589C19.4395 11.5605 19.4114 11.5536 19.3873 11.5393C19.3652 11.5265 19.3439 11.5125 19.3234 11.4975L19.287 11.4729L19.2161 11.4232L19.075 11.3224L18.794 11.1197C18.6401 11.0085 18.4357 10.8598 18.451 10.7781C18.451 10.7646 18.7116 10.8536 18.7403 10.8721C18.7928 10.9033 18.8411 10.9406 18.884 10.9833C18.9479 11.084 19.0961 11.1817 19.2257 11.2763L19.333 11.3507Z" fill="#111111"/>
<path d="M21.5869 15.3559C21.4445 15.6428 21.3315 15.9401 21.1954 16.2301C21.1558 16.3143 21.1162 16.3929 21.0792 16.4801C20.9757 16.7351 20.993 16.7154 20.8985 16.9716C20.8863 17.003 20.8065 17.2088 20.7937 17.2401C20.7825 17.2719 20.7731 17.3043 20.7656 17.3372C20.7586 17.3685 20.7586 17.3986 20.749 17.4299C20.7347 17.4718 20.7179 17.5128 20.6986 17.5528C20.6947 17.5608 20.6839 17.5688 20.68 17.5676C20.6353 17.551 20.5581 17.6026 20.5606 17.4828C20.5666 17.4124 20.5828 17.3431 20.6085 17.277C20.703 17.0146 20.8174 16.7584 20.924 16.5004C21.0798 16.1232 21.2651 15.7595 21.4349 15.389C21.5046 15.2348 21.5812 15.0911 21.6598 14.9418C21.7236 14.8189 21.8111 14.661 21.8929 14.6708C21.8999 14.7452 21.8956 14.8201 21.8801 14.8932C21.8655 14.9339 21.8439 14.9719 21.8162 15.0057C21.7383 15.0591 21.6885 15.1734 21.6329 15.2754L21.5869 15.3559Z" fill="#111111"/>
<path d="M21.1437 15.7666C21.3864 15.9281 21.6406 16.0737 21.8801 16.2378C21.9504 16.2863 22.013 16.3349 22.0864 16.3822C22.2972 16.5185 22.2838 16.4995 22.4977 16.631C22.5226 16.6476 22.6893 16.7594 22.7174 16.776C22.7433 16.7928 22.7704 16.8078 22.7985 16.8208C22.826 16.8337 22.8547 16.8392 22.8796 16.854C22.9131 16.8758 22.9453 16.8994 22.9761 16.9246C22.9818 16.9296 22.9863 16.9412 22.9844 16.9443C22.9556 16.9818 22.9799 17.0616 22.8701 17.0352C22.8081 17.0153 22.7493 16.987 22.6957 16.9511C22.4824 16.8153 22.2767 16.666 22.0647 16.5278C21.7549 16.3256 21.4573 16.1075 21.1431 15.9134C21.0154 15.8329 20.8921 15.7487 20.7663 15.6627C20.6635 15.5939 20.5274 15.5005 20.5504 15.4244C20.621 15.4235 20.6912 15.4333 20.7586 15.4532C20.7944 15.4715 20.8265 15.4958 20.8531 15.5251C20.8902 15.6019 20.9885 15.6609 21.0748 15.7205L21.1437 15.7666Z" fill="#111111"/>
<path d="M15.667 24.3615C15.8202 24.6057 15.92 24.8775 15.9601 25.1601C16.0004 25.4427 15.971 25.7247 15.955 25.9994C15.9454 26.1356 15.9442 26.2722 15.9512 26.4085C15.9597 26.5436 15.9811 26.6777 16.015 26.8091C16.0886 27.0723 16.1959 27.3257 16.3344 27.5635C16.4943 27.8416 16.6704 28.1107 16.8619 28.3696C16.9156 28.4519 16.9925 28.5179 17.0835 28.56C17.154 28.5858 17.2304 28.5926 17.3045 28.5797C17.4223 28.5581 17.5363 28.5204 17.643 28.4679C17.7446 28.4224 17.8448 28.3745 17.9719 28.3063C18.1394 28.2183 18.3015 28.1211 18.4573 28.0151C18.4816 27.9985 18.5403 27.9592 18.6131 27.9045L18.6406 27.8842L18.6527 27.8756C18.6489 27.8702 18.6446 27.8651 18.64 27.8603C18.615 27.8289 18.5882 27.7988 18.562 27.7644C18.4196 27.5887 18.2836 27.4081 18.2478 27.3602L18.0326 27.0751C17.9623 26.9836 17.8953 26.9049 17.8308 26.8103C17.7452 26.6874 17.6641 26.5492 17.5874 26.4177C17.5743 26.3979 17.5654 26.3758 17.5613 26.3526C17.606 26.333 17.5197 26.0878 17.7624 26.411C17.8729 26.5566 18.0434 26.8029 18.1891 27.0063C18.3347 27.2097 18.4752 27.3976 18.6265 27.5881L18.7415 27.7306L18.845 27.8566L18.8712 27.8879L18.8775 27.8959C18.8775 27.8959 18.8833 27.9014 18.8775 27.9033L18.8597 27.9174L18.7862 27.9727L18.7172 28.0249L18.6789 28.0526L18.601 28.1072C18.5493 28.1429 18.4963 28.1779 18.4426 28.2117C18.2281 28.3473 18.0028 28.4665 17.7688 28.568C17.6504 28.6243 17.5262 28.6687 17.3984 28.7007C17.3279 28.7166 17.2554 28.7222 17.1832 28.7173C17.1064 28.7111 17.0321 28.6879 16.966 28.6497C16.8799 28.594 16.8059 28.5227 16.7482 28.4396C16.6927 28.364 16.6435 28.2934 16.5911 28.2191C16.4889 28.0722 16.3887 27.9223 16.2948 27.7681C16.0983 27.4602 15.9536 27.1243 15.8662 26.7728C15.827 26.5948 15.8092 26.413 15.8132 26.231C15.8164 26.051 15.8343 25.8746 15.8452 25.7008C15.8593 25.5304 15.8572 25.3591 15.8388 25.189C15.8166 25.02 15.7709 24.8547 15.7027 24.6975C15.6487 24.5721 15.5815 24.4523 15.5022 24.34C15.4627 24.2845 15.4201 24.2312 15.3745 24.1802C15.3528 24.1544 15.3285 24.1311 15.3004 24.0948C15.2856 24.0748 15.2733 24.0532 15.264 24.0303C15.2529 24.0011 15.2501 23.9695 15.2558 23.9389C15.2615 23.9082 15.2756 23.8796 15.2966 23.8558C15.3116 23.8378 15.3285 23.8214 15.347 23.8067C15.3777 23.7815 15.4109 23.7569 15.4409 23.7342C15.5055 23.688 15.5738 23.6469 15.6453 23.6113C15.7165 23.5751 15.7906 23.5443 15.8669 23.5192C15.9052 23.5063 15.9442 23.4952 15.9838 23.4854C16.0255 23.4738 16.0683 23.466 16.1115 23.462C16.1534 23.4586 16.1955 23.4634 16.2354 23.4762C16.2801 23.4922 16.3188 23.5206 16.3465 23.5579C16.3707 23.5929 16.3868 23.6326 16.3937 23.6741C16.4005 23.7157 16.3979 23.7582 16.3861 23.7987C16.3756 23.839 16.356 23.8765 16.3286 23.9087C16.3034 23.938 16.2737 23.9635 16.2405 23.9842C16.1805 24.02 16.1136 24.0436 16.0438 24.0537C15.9377 24.0659 15.8305 24.0659 15.7245 24.0537C15.668 24.0524 15.6118 24.0448 15.5571 24.0309C15.552 24.0309 15.5884 24.0119 15.651 23.9959C15.7136 23.9799 15.8005 23.9689 15.8854 23.9541C15.9614 23.9437 16.0348 23.92 16.1019 23.8841C16.1349 23.8658 16.1636 23.8411 16.1862 23.8116C16.2025 23.7931 16.2132 23.7705 16.2169 23.7465C16.2218 23.7212 16.2194 23.695 16.2098 23.6709C16.2046 23.656 16.1943 23.6432 16.1805 23.6347C16.1683 23.6282 16.1552 23.6236 16.1415 23.6212C16.0827 23.6137 16.0229 23.6181 15.9659 23.6341C15.8934 23.6498 15.8226 23.6723 15.7545 23.701C15.6803 23.7328 15.6093 23.771 15.5424 23.8153C15.5086 23.8386 15.4747 23.8626 15.4428 23.889C15.4109 23.9154 15.3834 23.9406 15.3789 23.9597C15.3781 23.9708 15.3797 23.982 15.3835 23.9926C15.3874 24.0032 15.3934 24.0129 15.4013 24.0211C15.4179 24.0444 15.4434 24.0696 15.4652 24.0973C15.5395 24.1802 15.6069 24.2685 15.667 24.3615Z" fill="#111111"/>
<path d="M17.2953 25.7302C18.0406 26.5123 19.3141 26.7691 20.3149 26.3514C20.4557 26.2919 20.5834 26.207 20.6911 26.1013C20.797 25.9944 20.8676 25.8597 20.8942 25.7143C20.9113 25.6213 20.9033 25.5257 20.8712 25.4366C20.8456 25.3681 20.8078 25.3045 20.7594 25.2486C20.6846 25.1628 20.5988 25.0867 20.5039 25.0219C20.4152 24.9604 20.327 24.9021 20.2063 24.8333C20.0498 24.7418 19.8867 24.6611 19.7184 24.5918C19.567 24.5279 19.4119 24.4721 19.2541 24.4247C19.095 24.3792 18.9334 24.3425 18.77 24.3147L18.6838 24.3012L18.5963 24.292C18.5381 24.2865 18.4807 24.2803 18.4251 24.2797C18.3127 24.2736 18.2131 24.2828 18.1026 24.2797L17.8797 24.284C17.805 24.2895 17.729 24.2889 17.6555 24.2975C17.6328 24.3009 17.6095 24.2999 17.5872 24.2944C17.5872 24.2478 17.3196 24.225 17.7207 24.1421C17.9674 24.1028 18.2183 24.0946 18.4673 24.1175C18.9643 24.1613 19.4491 24.2907 19.8985 24.4996C20.1229 24.6031 20.3367 24.7265 20.5372 24.8683C20.6418 24.9392 20.7385 25.0203 20.8258 25.1103C20.9196 25.207 20.987 25.3246 21.0219 25.4525C21.0622 25.6415 21.0293 25.8382 20.9293 26.0055C20.8324 26.1673 20.6921 26.3012 20.5231 26.3931C20.3626 26.4831 20.1891 26.5495 20.0083 26.5904C19.8314 26.6352 19.6501 26.6622 19.4674 26.6708C18.7317 26.7072 18.0086 26.4763 17.4416 26.0239C17.2041 25.8431 17.0135 25.6118 16.8847 25.3481C16.8219 25.2103 16.7914 25.061 16.7952 24.9107C16.8017 24.769 16.8437 24.631 16.9175 24.5083C16.9913 24.3856 17.0949 24.2819 17.2193 24.206C17.3333 24.1382 17.4625 24.0978 17.5961 24.088C17.7015 24.0793 17.8077 24.0927 17.9072 24.1273C17.9629 24.142 18.0121 24.1739 18.047 24.2183C17.9449 24.2 17.841 24.1934 17.7373 24.1986C17.6615 24.2051 17.5872 24.2219 17.5163 24.2484C17.4747 24.2642 17.4342 24.2825 17.3949 24.303C17.3269 24.3351 17.2641 24.3765 17.2085 24.4259C17.1662 24.4645 17.1266 24.5055 17.0897 24.5488C16.9808 24.664 16.9223 24.8152 16.9262 24.9709C16.9278 25.0626 16.9449 25.1535 16.9766 25.24C17.0095 25.3286 17.0523 25.4134 17.1044 25.4931C17.1606 25.5774 17.2245 25.6568 17.2953 25.7302Z" fill="#111111"/>
<path d="M17.5939 26.5356C17.8699 26.7342 18.174 26.8939 18.497 27.0099C18.6573 27.0713 18.8201 27.1328 18.983 27.1887C19.1458 27.2446 19.3074 27.3048 19.4722 27.3484C19.6578 27.4053 19.8526 27.429 20.047 27.4184C20.1573 27.4095 20.2652 27.3829 20.3663 27.3398C20.4316 27.3105 20.4938 27.2754 20.5522 27.2347C20.6983 27.1287 20.8182 26.993 20.9035 26.8373C20.9504 26.7526 20.9872 26.6632 21.0133 26.5706C21.0383 26.4767 21.0529 26.3806 21.0567 26.2837C21.059 26.216 21.0541 26.1483 21.0421 26.0816C21.0306 26.0165 21.0082 25.9618 20.9929 25.8973C20.9721 25.8123 20.9468 25.7284 20.9169 25.646C20.9111 25.6301 20.9073 25.6067 20.9118 25.6055C20.9341 25.5975 20.9424 25.5533 20.9609 25.5361C20.9795 25.5189 21.0127 25.5268 21.0785 25.6374C21.1521 25.7753 21.1976 25.9254 21.2126 26.0798C21.2497 26.3934 21.1757 26.7099 21.0025 26.9779C20.8289 27.2489 20.5527 27.4445 20.2322 27.5235C20.0012 27.5691 19.7623 27.5628 19.5342 27.5051C19.3166 27.4506 19.1032 27.3818 18.8955 27.2992C18.4842 27.145 18.0652 26.9865 17.682 26.7463C17.3637 26.5521 17.1049 26.2798 16.9322 25.9575C16.8569 25.8189 16.8089 25.6681 16.7904 25.5127C16.7886 25.4789 16.7886 25.4451 16.7904 25.4113C16.7904 25.3794 16.7956 25.3499 16.7994 25.3266C16.804 25.2902 16.8206 25.2562 16.8466 25.2295C16.8682 25.29 16.8865 25.3515 16.9016 25.4138C16.9335 25.5096 16.9795 25.6042 16.9884 25.6264C17.0133 25.7062 17.067 25.8309 17.0772 25.8678C17.1085 26.0349 17.2688 26.2487 17.4489 26.4097C17.493 26.4557 17.5422 26.4963 17.5939 26.5356Z" fill="#111111"/>
<path d="M16.5549 24.2671C16.5969 24.3325 16.6348 24.4002 16.6685 24.4698C16.6768 24.492 16.6794 24.5141 16.6896 24.535C16.7101 24.5736 16.7327 24.6111 16.7573 24.6474C16.7612 24.6548 16.7797 24.7088 16.7822 24.7144C16.7856 24.7224 16.7911 24.7294 16.7982 24.7346C16.8052 24.7408 16.8186 24.7439 16.8225 24.7512C16.8263 24.7617 16.8278 24.7728 16.8269 24.7838C16.8269 24.7838 16.8212 24.7905 16.8174 24.7924C16.7714 24.8071 16.7254 24.8409 16.68 24.8274C16.6704 24.8247 16.6616 24.8198 16.6542 24.8132C16.6469 24.8066 16.6413 24.7984 16.6379 24.7893C16.6117 24.7279 16.5983 24.6664 16.5708 24.605C16.5392 24.5141 16.4996 24.426 16.4527 24.3414C16.4317 24.3078 16.4129 24.2729 16.3965 24.237C16.3898 24.2281 16.3853 24.2179 16.3832 24.2071C16.3811 24.1963 16.3814 24.1852 16.3842 24.1745C16.387 24.1639 16.3922 24.154 16.3994 24.1454C16.4066 24.1369 16.4156 24.13 16.4259 24.1252C16.4609 24.1191 16.4968 24.1191 16.5319 24.1252C16.5395 24.1332 16.5478 24.1479 16.5408 24.1571C16.5121 24.1964 16.5312 24.2186 16.5408 24.2468L16.5549 24.2671Z" fill="#111111"/>
<path d="M16.4225 25.6892C16.5057 25.647 16.5778 25.5871 16.6333 25.5141C16.6512 25.4959 16.6661 25.4752 16.6773 25.4526C16.6865 25.4282 16.6927 25.4029 16.6959 25.3771C16.6988 25.3472 16.7059 25.3179 16.7169 25.2898C16.7246 25.2724 16.7347 25.2561 16.747 25.2413C16.7603 25.2239 16.7767 25.2089 16.7955 25.1971L16.8357 25.1688C16.8403 25.1655 16.8439 25.161 16.8459 25.1559L16.8498 25.1645C16.8534 25.1726 16.8577 25.1804 16.8625 25.1878C16.8649 25.1916 16.8677 25.1951 16.8709 25.1983L16.883 25.2069H16.8792C16.8721 25.2069 16.8792 25.2069 16.8836 25.2026C16.8881 25.1983 16.8836 25.1983 16.8836 25.1989C16.8836 25.1995 16.8836 25.1989 16.8836 25.1989C16.8836 25.1928 16.8836 25.1872 16.8785 25.1811C16.8734 25.1749 16.8689 25.1583 16.8823 25.1467C16.888 25.143 16.8944 25.1406 16.9012 25.1396C16.9079 25.1387 16.9148 25.1392 16.9213 25.1411C16.9394 25.1461 16.9552 25.157 16.966 25.1719C16.9783 25.1889 16.9837 25.2096 16.9813 25.2302C16.9795 25.2453 16.9738 25.2596 16.9647 25.272C16.9593 25.2812 16.9524 25.2895 16.9443 25.2966C16.9283 25.3099 16.9102 25.3207 16.8906 25.3285C16.8861 25.3307 16.882 25.3336 16.8785 25.3371C16.8698 25.3459 16.8626 25.3561 16.8574 25.3672C16.8393 25.4039 16.8243 25.4419 16.8127 25.4809C16.7873 25.5519 16.7433 25.6153 16.685 25.6652C16.6299 25.7111 16.5707 25.7522 16.5081 25.7881C16.4598 25.8156 16.4084 25.8377 16.3548 25.8538C16.312 25.8686 16.2552 25.8845 16.2207 25.817C16.2238 25.7807 16.2333 25.7451 16.2488 25.7119C16.2603 25.7051 16.2795 25.6984 16.289 25.7058C16.3293 25.7371 16.3638 25.718 16.397 25.7058L16.4225 25.6892Z" fill="#111111"/>
<path d="M26.6321 22.7927C26.5369 23.0384 26.4622 23.2971 26.3625 23.5441C26.3332 23.616 26.2987 23.6823 26.2744 23.7566C26.1952 23.9723 26.2105 23.9563 26.1377 24.1738C26.1281 24.1996 26.0624 24.3723 26.0528 24.3987C26.043 24.425 26.0355 24.4522 26.0304 24.4798C26.0247 24.5068 26.0272 24.5332 26.0189 24.559C26.0064 24.5933 25.9915 24.6268 25.9742 24.6592C25.9742 24.6653 25.9615 24.6721 25.9576 24.6702C25.9129 24.653 25.8395 24.6917 25.8369 24.5891C25.8395 24.5303 25.8518 24.4722 25.8733 24.4171C25.9512 24.1996 26.0432 23.987 26.1237 23.7695C26.2412 23.4525 26.3791 23.1429 26.4871 22.824C26.5318 22.6913 26.5835 22.5666 26.6346 22.437C26.6755 22.3319 26.7317 22.1912 26.8128 22.1949C26.8332 22.256 26.8427 22.32 26.8409 22.3841C26.8323 22.4198 26.8167 22.4536 26.7949 22.4837C26.731 22.5328 26.6959 22.6323 26.6602 22.7214L26.6321 22.7927Z" fill="#111111"/>
<path d="M26.4303 23.2167C26.6949 23.3396 26.9666 23.4481 27.2439 23.5417C27.3238 23.5712 27.3979 23.6031 27.4822 23.6271C27.7255 23.7032 27.7076 23.6836 27.9522 23.7677C27.9669 23.7733 28.0225 23.796 28.08 23.8218C28.1374 23.8476 28.1879 23.8765 28.2019 23.8832C28.2301 23.898 28.2601 23.9133 28.2888 23.9256C28.318 23.9359 28.3464 23.9482 28.3738 23.9625C28.4087 23.9873 28.4408 24.0155 28.4696 24.0467C28.4753 24.0528 28.4785 24.0651 28.4753 24.0675C28.4427 24.102 28.4517 24.1812 28.3514 24.1437C28.2955 24.1196 28.2417 24.0913 28.1905 24.0589C27.9758 23.9365 27.7462 23.84 27.5071 23.7714C27.1464 23.6573 26.7941 23.5199 26.4526 23.3604C26.3124 23.2963 26.1757 23.2252 26.0432 23.1473C25.9334 23.0858 25.7916 22.9949 25.8126 22.9193C25.8831 22.9159 25.9537 22.9225 26.0221 22.939C26.0587 22.9548 26.092 22.9769 26.1205 23.0041C26.1626 23.0772 26.2655 23.127 26.3581 23.1774L26.4303 23.2167Z" fill="#111111"/>
<path d="M7.41755 12.3575C7.42879 12.8383 7.56374 13.309 7.81033 13.7275C7.93508 13.9339 8.08945 14.1223 8.26889 14.2872C8.45134 14.4496 8.65057 14.5937 8.86348 14.7172C9.28794 14.9719 9.75127 15.161 10.2366 15.2775C10.719 15.3956 11.2238 15.4009 11.7087 15.2929C11.8479 15.2609 11.9839 15.2178 12.1156 15.1639C12.246 15.1138 12.3713 15.0521 12.4898 14.9796C12.7329 14.8329 12.9413 14.6389 13.1017 14.4101C13.2061 14.2613 13.2899 14.1 13.3507 13.9302C13.3814 13.8577 13.3967 13.7859 13.4178 13.7201C13.4389 13.6544 13.4459 13.5905 13.4599 13.5309C13.4949 13.3269 13.5094 13.1201 13.5034 12.9135C13.4977 12.7062 13.4763 12.4997 13.4395 12.2954C13.3818 11.9794 13.2972 11.6685 13.1866 11.3659C13.0905 11.0912 12.9722 10.8241 12.8328 10.5672C12.745 10.4087 12.646 10.2562 12.5364 10.1107C12.4406 9.98785 12.3589 9.89385 12.3231 9.85638C12.1841 9.70721 12.0274 9.57421 11.8563 9.46011C11.5847 9.28818 11.2869 9.15801 10.9736 9.07429C10.8452 9.043 10.7142 9.02245 10.5821 9.01286C10.5415 9.0127 10.5012 9.00733 10.4621 8.99688C10.4678 8.97047 10.3548 8.94712 10.3279 8.92132C10.3152 8.90841 10.3241 8.89551 10.3835 8.88138C10.4266 8.87084 10.4707 8.86425 10.5151 8.86172C10.5444 8.86172 10.5789 8.85742 10.616 8.85742L10.7437 8.86111C10.9576 8.87699 11.1677 8.9238 11.367 8.99995C11.4828 9.04306 11.5953 9.09397 11.7036 9.15232C11.8098 9.21023 11.912 9.27467 12.0095 9.34523C12.3725 9.61252 12.6764 9.94669 12.9037 10.3282C13.1273 10.7038 13.3035 11.1037 13.4286 11.5195C13.562 11.933 13.6416 12.3607 13.6656 12.793C13.6931 13.2322 13.6232 13.672 13.4606 14.0832C13.4453 14.1207 13.4261 14.1563 13.4088 14.1932C13.3923 14.2303 13.3737 14.2666 13.3533 14.3019C13.3134 14.3731 13.2693 14.4421 13.2211 14.5083C13.1273 14.643 13.0164 14.7658 12.8909 14.8739C12.6421 15.091 12.3507 15.2581 12.0338 15.3654C11.7205 15.4734 11.3901 15.5287 11.0573 15.5288C10.7273 15.5291 10.3989 15.4852 10.0814 15.3986C9.45056 15.2236 8.86146 14.9314 8.34744 14.5385C8.09047 14.3367 7.87272 14.0927 7.70431 13.8178C7.53784 13.5427 7.41858 13.2435 7.35113 12.9319C7.24199 12.4227 7.25246 11.8965 7.38178 11.3917C7.3952 11.3302 7.41436 11.2688 7.43352 11.2074C7.45268 11.1459 7.4712 11.0845 7.49738 11.0231C7.54098 10.901 7.59216 10.7816 7.65066 10.6655C7.7664 10.4242 7.93503 10.2098 8.14499 10.037C8.32891 9.89326 8.53836 9.78273 8.76321 9.71077C8.98022 9.64231 9.20451 9.59739 9.43189 9.57684C9.85213 9.53752 10.183 9.55964 10.2679 9.59712C10.2826 9.60449 9.99519 9.63275 9.69311 9.68006C9.54111 9.70402 9.38591 9.73473 9.26137 9.76422L9.10043 9.80662C9.05764 9.81952 9.02507 9.82935 9.00654 9.83365C8.8634 9.87226 8.72389 9.9224 8.5895 9.98355C8.52954 10.0122 8.47113 10.0438 8.4145 10.0782C8.36405 10.1058 8.32701 10.1328 8.30338 10.147C8.18655 10.2174 8.08291 10.3063 7.99682 10.4099C7.89534 10.5345 7.80959 10.6702 7.74135 10.8142C7.5924 11.1307 7.494 11.4671 7.44948 11.8119C7.43926 11.9034 7.42713 11.9962 7.42521 12.0865C7.4233 12.1768 7.41563 12.2653 7.41755 12.3575Z" fill="#111111"/>
<path d="M10.2826 19.1858C10.2953 19.4234 10.3462 19.6575 10.4334 19.8801C10.5217 20.1027 10.6405 20.313 10.7866 20.5055C11.0806 20.8915 11.4613 21.2088 11.9004 21.4338C12.7709 21.8829 13.8477 21.9769 14.7706 21.631C15.0353 21.5335 15.2833 21.3983 15.5063 21.2298C15.731 21.0561 15.9251 20.8486 16.0811 20.6155C16.1102 20.5745 16.1368 20.5321 16.1609 20.4883C16.1852 20.4465 16.2107 20.4072 16.2318 20.3654C16.2695 20.2837 16.311 20.21 16.3391 20.1369C16.3672 20.0638 16.3972 19.9962 16.4158 19.9304C16.4343 19.8647 16.4541 19.8027 16.47 19.7461C16.4949 19.6391 16.5132 19.5308 16.525 19.4218C16.5358 19.3269 16.5407 19.2315 16.5397 19.1361C16.5373 18.932 16.5066 18.7291 16.4483 18.5328C16.4394 18.5039 16.433 18.4713 16.4215 18.4437C16.41 18.416 16.3972 18.3823 16.3851 18.3515C16.373 18.3208 16.3596 18.2901 16.3461 18.2539C16.3327 18.2176 16.3142 18.1869 16.2963 18.1525C16.2128 17.993 16.1134 17.8418 15.9993 17.7009C15.9674 17.6622 15.892 17.5676 15.7822 17.4552C15.6558 17.3241 15.5219 17.1998 15.3811 17.0829C15.2298 16.96 15.0726 16.8414 14.9392 16.753C14.8057 16.6645 14.699 16.6006 14.6537 16.5754C14.4746 16.4716 14.2866 16.3828 14.0916 16.31C13.9109 16.2444 13.7254 16.1916 13.5366 16.1521C13.2773 16.0907 13.0111 16.0604 12.7441 16.0618C12.7035 16.0629 12.6629 16.0607 12.6227 16.0551C12.6227 16.0305 12.5122 16.0133 12.4841 15.9899C12.4707 15.9783 12.479 15.9654 12.5371 15.9488C12.5665 15.9408 12.608 15.9316 12.6649 15.9218C12.7217 15.9119 12.7958 15.9082 12.889 15.9027C13.0998 15.8995 13.3102 15.918 13.5168 15.958C13.7542 16.005 13.9858 16.0756 14.2079 16.1687C14.6184 16.3416 15.0024 16.5678 15.3492 16.8408C15.7035 17.1079 16.013 17.4257 16.2669 17.7833C16.3934 17.9661 16.4941 18.1642 16.5665 18.3724C16.6382 18.5814 16.6797 18.7989 16.6897 19.0187L16.6942 19.1004V19.1828C16.6942 19.2374 16.6942 19.2921 16.6878 19.3468C16.6778 19.4555 16.6614 19.5636 16.6386 19.6706C16.6172 19.7775 16.5893 19.8832 16.555 19.987C16.539 20.0398 16.516 20.0896 16.4975 20.1406C16.4794 20.1921 16.4581 20.2426 16.4336 20.2917C16.2987 20.5824 16.1146 20.8496 15.8889 21.0824C15.6626 21.3153 15.3951 21.5077 15.0988 21.6507C14.5048 21.9301 13.839 22.0369 13.1828 21.9578C12.3608 21.8743 11.5938 21.5206 11.0114 20.9564C10.8959 20.8443 10.7892 20.7242 10.692 20.597C10.4946 20.3424 10.3434 20.0574 10.245 19.7541C10.1676 19.5031 10.1325 19.2418 10.1409 18.98C10.1463 18.8511 10.1602 18.7227 10.1824 18.5954C10.2054 18.4697 10.2345 18.3452 10.2699 18.2219C10.3437 17.9792 10.4333 17.7412 10.5381 17.5093C10.5898 17.3931 10.6422 17.2783 10.6978 17.1621C10.7535 17.0413 10.8227 16.9265 10.9041 16.8199C11.0546 16.6379 11.2556 16.5007 11.484 16.4243C11.7023 16.3543 11.9309 16.3189 12.161 16.3192C12.3422 16.3176 12.5232 16.3311 12.7019 16.3598C12.7996 16.3708 12.895 16.3961 12.9848 16.4347C12.9983 16.4446 12.7115 16.4292 12.41 16.4421C12.2651 16.4473 12.1206 16.4619 11.9777 16.4857C11.8915 16.4997 11.8062 16.5181 11.7222 16.541C11.5821 16.5733 11.4478 16.6254 11.3237 16.6958C11.2331 16.7513 11.1497 16.8169 11.0752 16.8912C10.979 16.9853 10.9 17.0943 10.8415 17.2137C10.7706 17.3477 10.6984 17.4957 10.6301 17.6506C10.4849 17.9684 10.3794 18.3016 10.3159 18.6434C10.2848 18.8225 10.2737 19.0044 10.2826 19.1858Z" fill="#111111"/>
<path d="M13.7304 26.5813C13.8488 26.8688 13.9879 27.148 14.1468 27.4169C14.3052 27.686 14.4706 27.9544 14.6488 28.2112C14.8234 28.4692 15.0262 28.7086 15.2536 28.9251C15.3117 28.9773 15.3737 29.0253 15.4337 29.0756L15.5238 29.15L15.6221 29.2157C15.686 29.2581 15.7499 29.3054 15.8188 29.3441L16.027 29.4565C16.6002 29.7308 17.2278 29.884 17.8677 29.9056C18.0273 29.9192 18.187 29.913 18.3479 29.9161C18.5076 29.9075 18.6673 29.9075 18.8276 29.8903C19.1476 29.8641 19.4659 29.8212 19.7811 29.7619L20.0557 29.7078L20.3252 29.6464C20.5041 29.6052 20.6791 29.5567 20.8521 29.5014C21.2053 29.3933 21.5422 29.2411 21.8542 29.0486C22.0541 28.9224 22.2332 28.7682 22.3856 28.5909C22.4984 28.4541 22.5886 28.3014 22.6532 28.1381C22.6782 28.0696 22.6995 27.9999 22.717 27.9292C22.7315 27.8646 22.7419 27.7991 22.7483 27.7333C22.7594 27.6107 22.7609 27.4875 22.7528 27.3646C22.7455 27.2411 22.7308 27.118 22.7087 26.996C22.6979 26.9346 22.6864 26.8658 22.6742 26.7964C22.6685 26.7613 22.6627 26.7257 22.6564 26.6895C22.65 26.6532 22.6378 26.6164 22.6276 26.5783C22.6085 26.5021 22.5874 26.4216 22.5637 26.3362C22.558 26.3147 22.5529 26.2926 22.5465 26.2705L22.5235 26.2041C22.5082 26.1593 22.4922 26.1132 22.4763 26.0653C22.4424 25.97 22.4124 25.8662 22.3619 25.7612C22.3389 25.7077 22.3147 25.6524 22.2904 25.5953C22.2661 25.5381 22.2419 25.4786 22.2093 25.4202L22.1352 25.2789C22.1186 25.2461 22.1001 25.2105 22.0796 25.172C22.0587 25.1299 22.0355 25.0889 22.01 25.0491L21.8357 24.7665C21.7718 24.667 21.6945 24.5687 21.623 24.4667L21.5681 24.3911C21.5496 24.3666 21.5285 24.3432 21.5093 24.3193L21.3944 24.1792L21.2826 24.0459L21.1708 23.9298L20.9856 23.7381L20.8636 23.6287C20.7634 23.5415 20.6669 23.4444 20.5571 23.3688L20.3974 23.249L20.3188 23.1876C20.2927 23.1686 20.2652 23.1526 20.2384 23.1348C20.1292 23.066 20.0263 23.0008 19.9222 22.9388C19.8181 22.8767 19.707 22.8264 19.5959 22.7637C19.5224 22.7219 19.4426 22.69 19.3653 22.6519C19.288 22.6138 19.2108 22.5751 19.1303 22.5413L18.8876 22.4461L18.7669 22.3988C18.7267 22.3834 18.6845 22.3723 18.6436 22.3594C18.5929 22.3455 18.5439 22.3264 18.4974 22.3023C18.5114 22.2784 18.3811 22.2102 18.3582 22.1751C18.3473 22.1579 18.3633 22.1487 18.4393 22.1579C18.4776 22.1622 18.5306 22.1715 18.6028 22.1868L18.7267 22.2138L18.8001 22.231C18.8257 22.2378 18.8518 22.2476 18.8799 22.2562C18.9809 22.2894 19.0984 22.33 19.2261 22.3748C19.3538 22.4197 19.4816 22.4878 19.6214 22.5499C19.7613 22.6119 19.8916 22.6961 20.0276 22.7705C20.1637 22.8448 20.2831 22.9382 20.407 23.0162C21.3328 23.6786 22.0541 24.5705 22.4941 25.5965C22.7118 26.1091 22.8516 26.6491 22.9093 27.2C22.944 27.4821 22.925 27.768 22.8531 28.0435C22.7711 28.3223 22.6214 28.5784 22.4162 28.7906C22.2695 28.9408 22.1046 29.0737 21.9251 29.1862C21.7471 29.2957 21.5607 29.392 21.3675 29.4744C20.9837 29.6331 20.5851 29.7565 20.1771 29.843C19.7726 29.9341 19.3623 29.9996 18.9489 30.039C18.5342 30.0797 18.1164 30.0836 17.701 30.0506C17.2835 30.0189 16.8719 29.9363 16.476 29.8049C16.078 29.6709 15.7067 29.4725 15.3782 29.2182C15.0546 28.9604 14.7746 28.6559 14.5479 28.3157C14.4317 28.1498 14.3231 27.9802 14.2177 27.8094C14.1123 27.6387 14.0089 27.4666 13.9118 27.2909C13.7483 27.0005 13.6116 26.6969 13.503 26.3835C13.3941 26.07 13.3326 25.7431 13.3204 25.4128C13.3071 25.0785 13.3595 24.7448 13.4749 24.4292C13.5342 24.2708 13.6131 24.1198 13.71 23.9795C13.809 23.8394 13.9243 23.7106 14.0536 23.5955C14.2775 23.4038 14.5328 23.249 14.8091 23.1372C15.0765 23.0286 15.3547 22.9462 15.6394 22.8915C16.1663 22.7883 16.5891 22.7686 16.7015 22.792C16.7206 22.7981 16.3585 22.8657 15.9766 22.9597C15.785 23.0064 15.5934 23.0604 15.4344 23.1133C15.3552 23.1378 15.2868 23.1624 15.2319 23.1833C15.177 23.2042 15.1361 23.2177 15.1137 23.2269C14.9329 23.2912 14.7577 23.3694 14.59 23.461L14.4725 23.5304L14.3716 23.598C14.3078 23.6373 14.263 23.676 14.233 23.6963C13.9193 23.9196 13.69 24.2354 13.5803 24.5957C13.4512 25.0219 13.4328 25.4721 13.5267 25.9068C13.5737 26.137 13.6419 26.3627 13.7304 26.5813Z" fill="#111111"/>
</g>
<defs>
<clipPath id="clip0">
<rect width="43" height="37" fill="white"/>
</clipPath>
</defs>
</svg>
